<?xml version="1.0" encoding="utf-8"?>
<!-- Generator: Adobe Illustrator 24.0.1, SVG Export Plug-In . SVG Version: 6.00 Build 0)  -->
<svg version="1.1" id="Layer_1" xmlns="http://www.w3.org/2000/svg" xmlns:xlink="http://www.w3.org/1999/xlink" x="0px" y="0px"
	 viewBox="0 0 1921 908" style="enable-background:new 0 0 1921 908;" xml:space="preserve">
<style type="text/css">
	.st0{opacity:0.7397;fill-rule:evenodd;clip-rule:evenodd;fill:url(#Polygon-Copy-2_1_);enable-background:new    ;}
	.st1{opacity:0.3158;fill-rule:evenodd;clip-rule:evenodd;fill:url(#Polygon-Copy-3_1_);enable-background:new    ;}
	.st2{opacity:0.1863;}
	.st3{filter:url(#filter-22);}
	.st4{fill-rule:evenodd;clip-rule:evenodd;}
	.st5{fill-rule:evenodd;clip-rule:evenodd;fill:url(#path-21_2_);}
	.st6{filter:url(#filter-25);}
	.st7{fill-rule:evenodd;clip-rule:evenodd;fill:url(#path-24_2_);}
	.st8{filter:url(#filter-33);}
	.st9{fill-rule:evenodd;clip-rule:evenodd;fill:#09CBF9;}
	.st10{filter:url(#filter-35);}
	.st11{fill-rule:evenodd;clip-rule:evenodd;fill:#FFCF26;}
	.st12{filter:url(#filter-37);}
	.st13{fill-rule:evenodd;clip-rule:evenodd;fill:#EE80C6;}
	.st14{filter:url(#filter-39);}
	.st15{filter:url(#filter-44);}
	.st16{fill-rule:evenodd;clip-rule:evenodd;fill:url(#path-43_2_);}
	.st17{filter:url(#filter-46);}
	.st18{fill-rule:evenodd;clip-rule:evenodd;fill:#B8E986;}
	.st19{filter:url(#filter-50);}
	.st20{fill-rule:evenodd;clip-rule:evenodd;fill:#FFFFFF;}
	.st21{filter:url(#filter-52);}
	.st22{fill-rule:evenodd;clip-rule:evenodd;fill:url(#path-51_3_);}
	.st23{filter:url(#filter-55);}
	.st24{fill-rule:evenodd;clip-rule:evenodd;fill:url(#path-54_3_);}
	.st25{filter:url(#filter-57);}
	.st26{filter:url(#filter-59);}
	.st27{opacity:0.489;}
	.st28{fill-rule:evenodd;clip-rule:evenodd;fill:url(#Combined-Shape_1_);}
	.st29{opacity:0.7059;}
	.st30{filter:url(#filter-65);}
	.st31{fill-rule:evenodd;clip-rule:evenodd;fill:url(#path-64_2_);}
	.st32{filter:url(#filter-67);}
	.st33{fill-rule:evenodd;clip-rule:evenodd;fill:url(#path-66_2_);}
	.st34{opacity:0.5;}
	.st35{filter:url(#filter-69);}
	.st36{fill-rule:evenodd;clip-rule:evenodd;fill:url(#path-68_2_);}
	.st37{opacity:0.2036;}
	.st38{filter:url(#filter-27);}
	.st39{filter:url(#filter-31);}
	.st40{filter:url(#filter-41);}
	.st41{filter:url(#filter-48);}
	.st42{fill-rule:evenodd;clip-rule:evenodd;fill:#D8D8D8;}
	.st43{fill-rule:evenodd;clip-rule:evenodd;fill:url(#path-51_4_);}
	.st44{fill-rule:evenodd;clip-rule:evenodd;fill:url(#path-54_4_);}
	.st45{fill-rule:evenodd;clip-rule:evenodd;fill:url(#path-51_8_);}
	.st46{fill-rule:evenodd;clip-rule:evenodd;fill:url(#path-54_8_);}
</style>
<filter  filterUnits="objectBoundingBox" height="1125.0%" id="filter-69" width="1125.0%" x="-512.5%" y="-312.5%">
	<feOffset  dx="0" dy="40" in="SourceAlpha" result="shadowOffsetOuter1"></feOffset>
	<feGaussianBlur  in="shadowOffsetOuter1" result="shadowBlurOuter1" stdDeviation="27.5"></feGaussianBlur>
	<feColorMatrix  in="shadowBlurOuter1" type="matrix" values="0 0 0 0 0   0 0 0 0 0   0 0 0 0 0  0 0 0 0.133973053 0">
		</feColorMatrix>
</filter>
<filter  filterUnits="objectBoundingBox" height="1676.9%" id="filter-67" width="1676.9%" x="-788.5%" y="-480.8%">
	<feOffset  dx="0" dy="40" in="SourceAlpha" result="shadowOffsetOuter1"></feOffset>
	<feGaussianBlur  in="shadowOffsetOuter1" result="shadowBlurOuter1" stdDeviation="27.5"></feGaussianBlur>
	<feColorMatrix  in="shadowBlurOuter1" type="matrix" values="0 0 0 0 0   0 0 0 0 0   0 0 0 0 0  0 0 0 0.133973053 0">
		</feColorMatrix>
</filter>
<filter  filterUnits="objectBoundingBox" height="555.6%" id="filter-65" width="555.6%" x="-227.8%" y="-138.9%">
	<feOffset  dx="0" dy="40" in="SourceAlpha" result="shadowOffsetOuter1"></feOffset>
	<feGaussianBlur  in="shadowOffsetOuter1" result="shadowBlurOuter1" stdDeviation="27.5"></feGaussianBlur>
	<feColorMatrix  in="shadowBlurOuter1" type="matrix" values="0 0 0 0 0   0 0 0 0 0   0 0 0 0 0  0 0 0 0.133973053 0">
		</feColorMatrix>
</filter>
<filter  filterUnits="objectBoundingBox" height="1833.3%" id="filter-59" width="1833.3%" x="-866.7%" y="-533.3%">
	<feOffset  dx="0" dy="20" in="SourceAlpha" result="shadowOffsetOuter1"></feOffset>
	<feGaussianBlur  in="shadowOffsetOuter1" result="shadowBlurOuter1" stdDeviation="14"></feGaussianBlur>
	<feColorMatrix  in="shadowBlurOuter1" type="matrix" values="0 0 0 0 0   0 0 0 0 0   0 0 0 0 0  0 0 0 0.133973053 0">
		</feColorMatrix>
</filter>
<filter  filterUnits="objectBoundingBox" height="966.7%" id="filter-57" width="966.7%" x="-433.3%" y="-266.7%">
	<feOffset  dx="0" dy="20" in="SourceAlpha" result="shadowOffsetOuter1"></feOffset>
	<feGaussianBlur  in="shadowOffsetOuter1" result="shadowBlurOuter1" stdDeviation="14"></feGaussianBlur>
	<feColorMatrix  in="shadowBlurOuter1" type="matrix" values="0 0 0 0 0   0 0 0 0 0   0 0 0 0 0  0 0 0 0.133973053 0">
		</feColorMatrix>
</filter>
<filter  filterUnits="objectBoundingBox" height="1585.7%" id="filter-55" width="1585.7%" x="-742.9%" y="-457.1%">
	<feOffset  dx="0" dy="20" in="SourceAlpha" result="shadowOffsetOuter1"></feOffset>
	<feGaussianBlur  in="shadowOffsetOuter1" result="shadowBlurOuter1" stdDeviation="14"></feGaussianBlur>
	<feColorMatrix  in="shadowBlurOuter1" type="matrix" values="0 0 0 0 0   0 0 0 0 0   0 0 0 0 0  0 0 0 0.133973053 0">
		</feColorMatrix>
</filter>
<filter  filterUnits="objectBoundingBox" height="2662.5%" id="filter-52" width="2662.5%" x="-1281.2%" y="-781.2%">
	<feOffset  dx="0" dy="40" in="SourceAlpha" result="shadowOffsetOuter1"></feOffset>
	<feGaussianBlur  in="shadowOffsetOuter1" result="shadowBlurOuter1" stdDeviation="27.5"></feGaussianBlur>
	<feColorMatrix  in="shadowBlurOuter1" type="matrix" values="0 0 0 0 0   0 0 0 0 0   0 0 0 0 0  0 0 0 0.133973053 0">
		</feColorMatrix>
</filter>
<filter  filterUnits="objectBoundingBox" height="3495.9%" id="filter-50" width="3516.7%" x="-1708.3%" y="-1035.3%">
	<feOffset  dx="0" dy="40" in="SourceAlpha" result="shadowOffsetOuter1"></feOffset>
	<feGaussianBlur  in="shadowOffsetOuter1" result="shadowBlurOuter1" stdDeviation="27.5"></feGaussianBlur>
	<feColorMatrix  in="shadowBlurOuter1" type="matrix" values="0 0 0 0 0   0 0 0 0 0   0 0 0 0 0  0 0 0 0.133973053 0">
		</feColorMatrix>
</filter>
<filter  filterUnits="objectBoundingBox" height="3550.0%" id="filter-48" width="3550.0%" x="-1725.0%" y="-1050.0%">
	<feOffset  dx="0" dy="27" in="SourceAlpha" result="shadowOffsetOuter1"></feOffset>
	<feGaussianBlur  in="shadowOffsetOuter1" result="shadowBlurOuter1" stdDeviation="18.5"></feGaussianBlur>
	<feColorMatrix  in="shadowBlurOuter1" type="matrix" values="0 0 0 0 0   0 0 0 0 0   0 0 0 0 0  0 0 0 0.133973053 0">
		</feColorMatrix>
</filter>
<filter  filterUnits="objectBoundingBox" height="3417.6%" id="filter-46" width="3566.7%" x="-1733.3%" y="-1020.8%">
	<feOffset  dx="0" dy="20" in="SourceAlpha" result="shadowOffsetOuter1"></feOffset>
	<feGaussianBlur  in="shadowOffsetOuter1" result="shadowBlurOuter1" stdDeviation="14"></feGaussianBlur>
	<feColorMatrix  in="shadowBlurOuter1" type="matrix" values="0 0 0 0 0   0 0 0 0 0   0 0 0 0 0  0 0 0 0.133973053 0">
		</feColorMatrix>
</filter>
<filter  filterUnits="objectBoundingBox" height="1585.7%" id="filter-44" width="1585.7%" x="-742.9%" y="-457.1%">
	<feOffset  dx="0" dy="20" in="SourceAlpha" result="shadowOffsetOuter1"></feOffset>
	<feGaussianBlur  in="shadowOffsetOuter1" result="shadowBlurOuter1" stdDeviation="14"></feGaussianBlur>
	<feColorMatrix  in="shadowBlurOuter1" type="matrix" values="0 0 0 0 0   0 0 0 0 0   0 0 0 0 0  0 0 0 0.133973053 0">
		</feColorMatrix>
</filter>
<filter  filterUnits="objectBoundingBox" height="1400.0%" id="filter-41" width="1400.0%" x="-650.0%" y="-400.0%">
	<feOffset  dx="0" dy="20" in="SourceAlpha" result="shadowOffsetOuter1"></feOffset>
	<feGaussianBlur  in="shadowOffsetOuter1" result="shadowBlurOuter1" stdDeviation="14"></feGaussianBlur>
	<feColorMatrix  in="shadowBlurOuter1" type="matrix" values="0 0 0 0 0   0 0 0 0 0   0 0 0 0 0  0 0 0 0.133973053 0">
		</feColorMatrix>
</filter>
<filter  filterUnits="objectBoundingBox" height="3566.7%" id="filter-39" width="3566.7%" x="-1733.3%" y="-1066.7%">
	<feOffset  dx="0" dy="20" in="SourceAlpha" result="shadowOffsetOuter1"></feOffset>
	<feGaussianBlur  in="shadowOffsetOuter1" result="shadowBlurOuter1" stdDeviation="14"></feGaussianBlur>
	<feColorMatrix  in="shadowBlurOuter1" type="matrix" values="0 0 0 0 0   0 0 0 0 0   0 0 0 0 0  0 0 0 0.133973053 0">
		</feColorMatrix>
</filter>
<filter  filterUnits="objectBoundingBox" height="3566.7%" id="filter-37" width="3566.7%" x="-1733.3%" y="-1066.7%">
	<feOffset  dx="0" dy="20" in="SourceAlpha" result="shadowOffsetOuter1"></feOffset>
	<feGaussianBlur  in="shadowOffsetOuter1" result="shadowBlurOuter1" stdDeviation="14"></feGaussianBlur>
	<feColorMatrix  in="shadowBlurOuter1" type="matrix" values="0 0 0 0 0   0 0 0 0 0   0 0 0 0 0  0 0 0 0.133973053 0">
		</feColorMatrix>
</filter>
<filter  filterUnits="objectBoundingBox" height="3566.7%" id="filter-35" width="3566.7%" x="-1733.3%" y="-1066.7%">
	<feOffset  dx="0" dy="20" in="SourceAlpha" result="shadowOffsetOuter1"></feOffset>
	<feGaussianBlur  in="shadowOffsetOuter1" result="shadowBlurOuter1" stdDeviation="14"></feGaussianBlur>
	<feColorMatrix  in="shadowBlurOuter1" type="matrix" values="0 0 0 0 0   0 0 0 0 0   0 0 0 0 0  0 0 0 0.133973053 0">
		</feColorMatrix>
</filter>
<filter  filterUnits="objectBoundingBox" height="3566.7%" id="filter-33" width="3566.7%" x="-1733.3%" y="-1066.7%">
	<feOffset  dx="0" dy="20" in="SourceAlpha" result="shadowOffsetOuter1"></feOffset>
	<feGaussianBlur  in="shadowOffsetOuter1" result="shadowBlurOuter1" stdDeviation="14"></feGaussianBlur>
	<feColorMatrix  in="shadowBlurOuter1" type="matrix" values="0 0 0 0 0   0 0 0 0 0   0 0 0 0 0  0 0 0 0.133973053 0">
		</feColorMatrix>
</filter>
<filter  filterUnits="objectBoundingBox" height="3566.7%" id="filter-31" width="3566.7%" x="-1733.3%" y="-1066.7%">
	<feOffset  dx="0" dy="20" in="SourceAlpha" result="shadowOffsetOuter1"></feOffset>
	<feGaussianBlur  in="shadowOffsetOuter1" result="shadowBlurOuter1" stdDeviation="14"></feGaussianBlur>
	<feColorMatrix  in="shadowBlurOuter1" type="matrix" values="0 0 0 0 0   0 0 0 0 0   0 0 0 0 0  0 0 0 0.133973053 0">
		</feColorMatrix>
</filter>
<filter  filterUnits="objectBoundingBox" height="1238.9%" id="filter-27" width="1238.9%" x="-569.4%" y="-347.2%">
	<feOffset  dx="0" dy="40" in="SourceAlpha" result="shadowOffsetOuter1"></feOffset>
	<feGaussianBlur  in="shadowOffsetOuter1" result="shadowBlurOuter1" stdDeviation="27.5"></feGaussianBlur>
	<feColorMatrix  in="shadowBlurOuter1" type="matrix" values="0 0 0 0 0   0 0 0 0 0   0 0 0 0 0  0 0 0 0.133973053 0">
		</feColorMatrix>
</filter>
<filter  filterUnits="objectBoundingBox" height="488.9%" id="filter-25" width="488.9%" x="-194.4%" y="-105.6%">
	<feOffset  dx="0" dy="40" in="SourceAlpha" result="shadowOffsetOuter1"></feOffset>
	<feGaussianBlur  in="shadowOffsetOuter1" result="shadowBlurOuter1" stdDeviation="22.5"></feGaussianBlur>
	<feColorMatrix  in="shadowBlurOuter1" type="matrix" values="0 0 0 0 0   0 0 0 0 0   0 0 0 0 0  0 0 0 0.25 0"></feColorMatrix>
</filter>
<filter  filterUnits="objectBoundingBox" height="555.6%" id="filter-22" width="555.6%" x="-227.8%" y="-138.9%">
	<feOffset  dx="0" dy="40" in="SourceAlpha" result="shadowOffsetOuter1"></feOffset>
	<feGaussianBlur  in="shadowOffsetOuter1" result="shadowBlurOuter1" stdDeviation="27.5"></feGaussianBlur>
	<feColorMatrix  in="shadowBlurOuter1" type="matrix" values="0 0 0 0 0   0 0 0 0 0   0 0 0 0 0  0 0 0 0.133973053 0">
		</feColorMatrix>
</filter>
<title>Illustration 02</title>
<desc>Created with Sketch.</desc>
<linearGradient id="Polygon-Copy-2_1_" gradientUnits="userSpaceOnUse" x1="273.7808" y1="846.8643" x2="273.6534" y2="847.4688" gradientTransform="matrix(44.9999 0 0 -44.9999 -10581.9658 38642.9492)">
	<stop  offset="0" style="stop-color:#A75BFF"/>
	<stop  offset="1" style="stop-color:#E2CBFF"/>
</linearGradient>
<path id="Polygon-Copy-2" class="st0" d="M1733,503.8l11.5,3.1c1.4,0.4,2.5,1.5,2.9,2.9l3.1,11.5c0.4,1.4,0,2.9-1,3.9l-8.4,8.4
	c-1,1-2.5,1.4-3.9,1l-11.5-3.1c-1.4-0.4-2.5-1.5-2.9-2.9l-3.1-11.5c-0.4-1.4,0-2.9,1-3.9l8.4-8.4
	C1730.1,503.8,1731.6,503.4,1733,503.8z"/>
<linearGradient id="Polygon-Copy-3_1_" gradientUnits="userSpaceOnUse" x1="271.9995" y1="838.6028" x2="272.4995" y2="837.6028" gradientTransform="matrix(22.9999 0 0 -23.0001 -4471.9658 20132.0508)">
	<stop  offset="0" style="stop-color:#81FBB8"/>
	<stop  offset="1" style="stop-color:#28C76F"/>
</linearGradient>
<path id="Polygon-Copy-3" class="st1" d="M1789.7,846.6l8,2.1c1.2,0.3,2.2,1.3,2.5,2.5l2.1,8c0.3,1.2,0,2.5-0.9,3.4l-5.8,5.8
	c-0.9,0.9-2.2,1.2-3.4,0.9l-8-2.1c-1.2-0.3-2.2-1.3-2.5-2.5l-2.1-8c-0.3-1.2,0-2.5,0.9-3.4l5.8-5.8
	C1787.2,846.6,1788.4,846.2,1789.7,846.6z"/>
<g id="Oval-Copy-12" class="st2">
	<g class="st3">
		<circle id="path-21_2_" class="st4" cx="1337.3" cy="692.8" r="11.2"/>
	</g>
	<g>
		
			<linearGradient id="path-21_2_" gradientUnits="userSpaceOnUse" x1="278.739" y1="826.0023" x2="278.5908" y2="826.4102" gradientTransform="matrix(45 0 0 -45 -11203 37871)">
			<stop  offset="0" style="stop-color:#0354D0"/>
			<stop  offset="0.7156" style="stop-color:#3099FF"/>
			<stop  offset="1" style="stop-color:#74B9FF"/>
		</linearGradient>
		<circle id="path-21_1_" class="st5" cx="1337.3" cy="692.8" r="11.2"/>
	</g>
</g>
<g id="Oval-Copy-13">
	<g class="st6">
		<circle id="path-24_2_" class="st4" cx="1239.8" cy="100.8" r="11.2"/>
	</g>
	<g>
		
			<linearGradient id="path-24_2_" gradientUnits="userSpaceOnUse" x1="272.4263" y1="838.9896" x2="272.706" y2="838.6368" gradientTransform="matrix(45 0 0 -45 -11026 37847)">
			<stop  offset="0" style="stop-color:#FCDBDE"/>
			<stop  offset="1" style="stop-color:#EA66BF"/>
		</linearGradient>
		<circle id="path-24_1_" class="st7" cx="1239.8" cy="100.8" r="11.2"/>
	</g>
</g>
<g id="Oval-Copy-36">
	<g class="st8">
		<circle id="path-32_2_" class="st4" cx="1372.5" cy="161.5" r="1.5"/>
	</g>
	<g>
		<circle id="path-32_1_" class="st9" cx="1372.5" cy="161.5" r="1.5"/>
	</g>
</g>
<g id="Oval-Copy-46">
	<g class="st10">
		<circle id="path-34_2_" class="st4" cx="1610.5" cy="177.5" r="1.5"/>
	</g>
	<g>
		<circle id="path-34_1_" class="st11" cx="1610.5" cy="177.5" r="1.5"/>
	</g>
</g>
<g id="Oval-Copy-47">
	<g class="st12">
		<circle id="path-36_2_" class="st4" cx="1671.5" cy="229.5" r="1.5"/>
	</g>
	<g>
		<circle id="path-36_1_" class="st13" cx="1671.5" cy="229.5" r="1.5"/>
	</g>
</g>
<g id="Oval-Copy-37">
	<g class="st14">
		<circle id="path-38_3_" class="st4" cx="1158.5" cy="75.5" r="1.5"/>
	</g>
	<g>
		<circle id="path-38_1_" class="st9" cx="1158.5" cy="75.5" r="1.5"/>
	</g>
</g>
<g id="Oval-Copy-21_1_">
	<g class="st15">
		<circle id="path-43_2_" class="st4" cx="1292.5" cy="67.5" r="3.5"/>
	</g>
	<g>
		
			<linearGradient id="path-43_2_" gradientUnits="userSpaceOnUse" x1="238.7857" y1="848" x2="238.7857" y2="847" gradientTransform="matrix(7 0 0 -7 -379 6000)">
			<stop  offset="0" style="stop-color:#FFF546"/>
			<stop  offset="1" style="stop-color:#FF852F"/>
		</linearGradient>
		<circle id="path-43_1_" class="st16" cx="1292.5" cy="67.5" r="3.5"/>
	</g>
</g>
<g id="Oval-Copy-20" transform="translate(1700.060267, 183.088132) rotate(-28.000000) translate(-1700.060267, -183.088132) ">
	<g class="st17">
		<path id="path-45_2_" class="st4" d="M1528.4,19.8c0.8,0,1.4-0.8,1.4-1.6c0-0.8-0.7-1.5-1.5-1.5c-0.8,0-1.5,0.7-1.5,1.5
			S1527.6,19.8,1528.4,19.8z"/>
	</g>
	<g>
		<path id="path-45_1_" class="st18" d="M1528.4,19.8c0.8,0,1.4-0.8,1.4-1.6c0-0.8-0.7-1.5-1.5-1.5c-0.8,0-1.5,0.7-1.5,1.5
			S1527.6,19.8,1528.4,19.8z"/>
	</g>
</g>
<g id="Oval-Copy-18" transform="translate(1608.968320, 178.977633) rotate(24.000000) translate(-1608.968320, -178.977633) ">
	<g class="st19">
		<path id="path-49_2_" class="st4" d="M1373.2,215.8c1.7,0,3.1-1.4,3.1-3s-1.3-3-3-3c-1.7,0-3,1.3-3,3S1371.6,215.8,1373.2,215.8z"
			/>
	</g>
	<g>
		<path id="path-49_1_" class="st20" d="M1373.2,215.8c1.7,0,3.1-1.4,3.1-3s-1.3-3-3-3c-1.7,0-3,1.3-3,3S1371.6,215.8,1373.2,215.8z
			"/>
	</g>
</g>
<g id="Path">
	<g class="st21">
		<path id="path-51_3_" class="st4" d="M1196.8,145.6c0.2-0.2,0.2-0.4,0.1-0.6c-0.1-0.2-0.2-0.4-0.5-0.4l-1.9-0.3
			c-0.1,0-0.2-0.1-0.2-0.1l-0.9-1.8c-0.1-0.2-0.3-0.3-0.5-0.3s-0.4,0.1-0.5,0.3l-0.9,1.8c0,0.1-0.1,0.1-0.2,0.1l-1.9,0.3
			c-0.2,0-0.4,0.2-0.5,0.4c-0.1,0.2,0,0.5,0.1,0.6l1.4,1.4c0.1,0.1,0.1,0.1,0.1,0.2l-0.3,2c0,0.2,0,0.3,0.1,0.5
			c0.2,0.2,0.5,0.3,0.7,0.1l1.7-1c0.1,0,0.2,0,0.2,0l1.7,1c0.1,0,0.2,0.1,0.3,0.1c0.2,0,0.3-0.1,0.4-0.2c0.1-0.1,0.2-0.3,0.1-0.5
			l-0.3-2c0-0.1,0-0.2,0.1-0.2L1196.8,145.6z"/>
	</g>
	<g>
		
			<linearGradient id="path-51_3_" gradientUnits="userSpaceOnUse" x1="243.7505" y1="846.75" x2="243.7505" y2="845.75" gradientTransform="matrix(8.0001 0 0 -8 -757.0341 6916)">
			<stop  offset="0" style="stop-color:#FFF546"/>
			<stop  offset="1" style="stop-color:#FF852F"/>
		</linearGradient>
		<path id="path-51_1_" class="st22" d="M1196.8,145.6c0.2-0.2,0.2-0.4,0.1-0.6c-0.1-0.2-0.2-0.4-0.5-0.4l-1.9-0.3
			c-0.1,0-0.2-0.1-0.2-0.1l-0.9-1.8c-0.1-0.2-0.3-0.3-0.5-0.3s-0.4,0.1-0.5,0.3l-0.9,1.8c0,0.1-0.1,0.1-0.2,0.1l-1.9,0.3
			c-0.2,0-0.4,0.2-0.5,0.4c-0.1,0.2,0,0.5,0.1,0.6l1.4,1.4c0.1,0.1,0.1,0.1,0.1,0.2l-0.3,2c0,0.2,0,0.3,0.1,0.5
			c0.2,0.2,0.5,0.3,0.7,0.1l1.7-1c0.1,0,0.2,0,0.2,0l1.7,1c0.1,0,0.2,0.1,0.3,0.1c0.2,0,0.3-0.1,0.4-0.2c0.1-0.1,0.2-0.3,0.1-0.5
			l-0.3-2c0-0.1,0-0.2,0.1-0.2L1196.8,145.6z"/>
	</g>
</g>
<g id="Path-Copy">
	<g class="st23">
		<path id="path-54_3_" class="st4" d="M1115.8,38.2c0.1-0.1,0.2-0.3,0.1-0.5c-0.1-0.2-0.2-0.3-0.4-0.4l-1.7-0.3
			c-0.1,0-0.1-0.1-0.2-0.1l-0.8-1.6c-0.1-0.2-0.3-0.3-0.5-0.3s-0.4,0.1-0.5,0.3l-0.8,1.6c0,0.1-0.1,0.1-0.2,0.1l-1.7,0.3
			c-0.2,0-0.3,0.2-0.4,0.4c-0.1,0.2,0,0.4,0.1,0.5l1.2,1.2c0.1,0.1,0.1,0.1,0.1,0.2l-0.3,1.8c0,0.2,0,0.3,0.1,0.4
			c0.1,0.2,0.4,0.2,0.6,0.1l1.5-0.8c0.1,0,0.1,0,0.2,0l1.5,0.8c0.1,0,0.2,0.1,0.2,0.1c0.1,0,0.3-0.1,0.4-0.2
			c0.1-0.1,0.1-0.3,0.1-0.4l-0.3-1.8c0-0.1,0-0.2,0.1-0.2L1115.8,38.2z"/>
	</g>
	<g>
		
			<linearGradient id="path-54_3_" gradientUnits="userSpaceOnUse" x1="238.7864" y1="848" x2="238.7864" y2="847" gradientTransform="matrix(7.0001 0 0 -7 -559.0341 5971)">
			<stop  offset="0" style="stop-color:#D17AFF"/>
			<stop  offset="1" style="stop-color:#816DFF"/>
		</linearGradient>
		<path id="path-54_1_" class="st24" d="M1115.8,38.2c0.1-0.1,0.2-0.3,0.1-0.5c-0.1-0.2-0.2-0.3-0.4-0.4l-1.7-0.3
			c-0.1,0-0.1-0.1-0.2-0.1l-0.8-1.6c-0.1-0.2-0.3-0.3-0.5-0.3s-0.4,0.1-0.5,0.3l-0.8,1.6c0,0.1-0.1,0.1-0.2,0.1l-1.7,0.3
			c-0.2,0-0.3,0.2-0.4,0.4c-0.1,0.2,0,0.4,0.1,0.5l1.2,1.2c0.1,0.1,0.1,0.1,0.1,0.2l-0.3,1.8c0,0.2,0,0.3,0.1,0.4
			c0.1,0.2,0.4,0.2,0.6,0.1l1.5-0.8c0.1,0,0.1,0,0.2,0l1.5,0.8c0.1,0,0.2,0.1,0.2,0.1c0.1,0,0.3-0.1,0.4-0.2
			c0.1-0.1,0.1-0.3,0.1-0.4l-0.3-1.8c0-0.1,0-0.2,0.1-0.2L1115.8,38.2z"/>
	</g>
</g>
<g id="Path-Copy-2">
	<g class="st25">
		<path id="path-56_2_" class="st4" d="M1693.7,173.4c0.2-0.2,0.3-0.6,0.2-0.9c-0.1-0.3-0.4-0.6-0.7-0.6l-2.9-0.4
			c-0.1,0-0.2-0.1-0.3-0.2l-1.3-2.7c-0.1-0.3-0.4-0.5-0.8-0.5c-0.3,0-0.6,0.2-0.8,0.5l-1.3,2.7c-0.1,0.1-0.2,0.2-0.3,0.2l-2.9,0.4
			c-0.3,0-0.6,0.3-0.7,0.6c-0.1,0.3,0,0.7,0.2,0.9l2.1,2.1c0.1,0.1,0.1,0.2,0.1,0.4l-0.5,3c0,0.3,0,0.5,0.2,0.7
			c0.3,0.3,0.7,0.4,1.1,0.2l2.6-1.4c0.1-0.1,0.2-0.1,0.4,0l2.6,1.4c0.1,0.1,0.3,0.1,0.4,0.1c0.3,0,0.5-0.1,0.7-0.3
			c0.2-0.2,0.2-0.5,0.2-0.7l-0.5-3c0-0.1,0-0.3,0.1-0.4L1693.7,173.4z"/>
	</g>
	<g>
		<path id="path-56_1_" class="st9" d="M1693.7,173.4c0.2-0.2,0.3-0.6,0.2-0.9c-0.1-0.3-0.4-0.6-0.7-0.6l-2.9-0.4
			c-0.1,0-0.2-0.1-0.3-0.2l-1.3-2.7c-0.1-0.3-0.4-0.5-0.8-0.5c-0.3,0-0.6,0.2-0.8,0.5l-1.3,2.7c-0.1,0.1-0.2,0.2-0.3,0.2l-2.9,0.4
			c-0.3,0-0.6,0.3-0.7,0.6c-0.1,0.3,0,0.7,0.2,0.9l2.1,2.1c0.1,0.1,0.1,0.2,0.1,0.4l-0.5,3c0,0.3,0,0.5,0.2,0.7
			c0.3,0.3,0.7,0.4,1.1,0.2l2.6-1.4c0.1-0.1,0.2-0.1,0.4,0l2.6,1.4c0.1,0.1,0.3,0.1,0.4,0.1c0.3,0,0.5-0.1,0.7-0.3
			c0.2-0.2,0.2-0.5,0.2-0.7l-0.5-3c0-0.1,0-0.3,0.1-0.4L1693.7,173.4z"/>
	</g>
</g>
<g id="Path-Copy-3">
	<g class="st26">
		<path id="path-58_2_" class="st4" d="M1575.9,104.7c0.1-0.1,0.2-0.3,0.1-0.5c-0.1-0.2-0.2-0.3-0.3-0.3l-1.5-0.2
			c-0.1,0-0.1,0-0.1-0.1l-0.6-1.4c-0.1-0.2-0.2-0.3-0.4-0.3c-0.2,0-0.3,0.1-0.4,0.3l-0.6,1.4c0,0.1-0.1,0.1-0.1,0.1l-1.5,0.2
			c-0.2,0-0.3,0.1-0.3,0.3c-0.1,0.2,0,0.3,0.1,0.5l1.1,1.1c0,0,0.1,0.1,0.1,0.2l-0.2,1.5c0,0.1,0,0.3,0.1,0.4
			c0.1,0.2,0.4,0.2,0.5,0.1l1.3-0.7c0.1,0,0.1,0,0.2,0l1.3,0.7c0.1,0,0.1,0.1,0.2,0.1c0.1,0,0.2-0.1,0.3-0.2
			c0.1-0.1,0.1-0.2,0.1-0.4l-0.2-1.5c0-0.1,0-0.1,0.1-0.2L1575.9,104.7z"/>
	</g>
	<g>
		<path id="path-58_1_" class="st11" d="M1575.9,104.7c0.1-0.1,0.2-0.3,0.1-0.5c-0.1-0.2-0.2-0.3-0.3-0.3l-1.5-0.2
			c-0.1,0-0.1,0-0.1-0.1l-0.6-1.4c-0.1-0.2-0.2-0.3-0.4-0.3c-0.2,0-0.3,0.1-0.4,0.3l-0.6,1.4c0,0.1-0.1,0.1-0.1,0.1l-1.5,0.2
			c-0.2,0-0.3,0.1-0.3,0.3c-0.1,0.2,0,0.3,0.1,0.5l1.1,1.1c0,0,0.1,0.1,0.1,0.2l-0.2,1.5c0,0.1,0,0.3,0.1,0.4
			c0.1,0.2,0.4,0.2,0.5,0.1l1.3-0.7c0.1,0,0.1,0,0.2,0l1.3,0.7c0.1,0,0.1,0.1,0.2,0.1c0.1,0,0.2-0.1,0.3-0.2
			c0.1-0.1,0.1-0.2,0.1-0.4l-0.2-1.5c0-0.1,0-0.1,0.1-0.2L1575.9,104.7z"/>
	</g>
</g>
<g id="Group-18-Copy" transform="translate(2041.000000, 439.000000)" class="st27">
	
		<linearGradient id="Combined-Shape_1_" gradientUnits="userSpaceOnUse" x1="-1791.4164" y1="403.7912" x2="-1791.4164" y2="402.7912" gradientTransform="matrix(9.6139 0 0 -14.6101 16998.3281 5834.438)">
		<stop  offset="0" style="stop-color:#0034FF"/>
		<stop  offset="1" style="stop-color:#0059FF;stop-opacity:0.3218"/>
	</linearGradient>
	<path id="Combined-Shape_2_" class="st28" d="M-226.7-62c-0.1-0.3-0.1-0.6-0.1-0.9c0.1-1.2,1.3-2.2,2.5-2c1.2,0.1,2.1,1.1,2.1,2.3
		c1,0.4,1.7,1.4,1.7,2.6c0,0.6-0.2,1.1-0.5,1.5c1,0.9,1.6,2.1,1.6,3.5c0,2.6-2.2,4.7-4.8,4.7c-2.7,0-4.8-2.1-4.8-4.7
		c0-1.2,0.5-2.3,1.2-3.1c-0.4-0.4-0.6-1-0.6-1.5C-228.3-60.8-227.7-61.7-226.7-62z"/>
</g>
<g id="Oval-Copy-16" class="st29">
	<g class="st30">
		<circle id="path-64_2_" class="st4" cx="1816.8" cy="218.8" r="11.2"/>
	</g>
	<g>
		
			<linearGradient id="path-64_2_" gradientUnits="userSpaceOnUse" x1="272.6376" y1="838.6256" x2="272.4894" y2="839.0336" gradientTransform="matrix(45 0 0 -45 -10449 37965)">
			<stop  offset="0" style="stop-color:#0354D0"/>
			<stop  offset="0.7156" style="stop-color:#3099FF"/>
			<stop  offset="1" style="stop-color:#74B9FF"/>
		</linearGradient>
		<circle id="path-64_1_" class="st31" cx="1816.8" cy="218.8" r="11.2"/>
	</g>
</g>
<g id="Oval-Copy-23" class="st29">
	<g class="st32">
		<circle id="path-66_2_" class="st4" cx="1728.5" cy="246.5" r="6.5"/>
	</g>
	<g>
		
			<linearGradient id="path-66_2_" gradientUnits="userSpaceOnUse" x1="257.2462" y1="842.5247" x2="256.9497" y2="843.3406" gradientTransform="matrix(13 0 0 -13 -1614 11204)">
			<stop  offset="0" style="stop-color:#0354D0"/>
			<stop  offset="0.7156" style="stop-color:#3099FF"/>
			<stop  offset="1" style="stop-color:#74B9FF"/>
		</linearGradient>
		<circle id="path-66_1_" class="st33" cx="1728.5" cy="246.5" r="6.5"/>
	</g>
</g>
<g id="Oval-Copy-10" class="st34">
	<g class="st35">
		<circle id="path-68_2_" class="st4" cx="178.8" cy="89.5" r="10"/>
	</g>
	<g>
		
			<linearGradient id="path-68_2_" gradientUnits="userSpaceOnUse" x1="265.4722" y1="844.9151" x2="265.1757" y2="845.731" gradientTransform="matrix(20 0 0 -20 -5128 16995)">
			<stop  offset="0" style="stop-color:#0354D0"/>
			<stop  offset="0.7156" style="stop-color:#3099FF"/>
			<stop  offset="1" style="stop-color:#74B9FF"/>
		</linearGradient>
		<circle id="path-68_1_" class="st36" cx="178.8" cy="89.5" r="10"/>
	</g>
</g>
<g id="Oval-Copy-15_1_" class="st37">
	<g class="st38">
		<circle id="path-26_1_" class="st4" cx="1790.9" cy="89.5" r="21.1"/>
	</g>
	<g>
		<circle id="path-26_2_" class="st9" cx="1790.9" cy="89.5" r="21.1"/>
	</g>
</g>
<g id="Oval-Copy-22_1_">
	<g class="st39">
		<circle id="path-30_6_" class="st4" cx="1039.7" cy="804.4" r="3.5"/>
	</g>
	<g>
		<circle id="path-30_2_" class="st9" cx="1039.7" cy="804.4" r="3.5"/>
	</g>
</g>
<g id="Oval-Copy-37_1_">
	<g class="st14">
		<circle id="path-38_3_" class="st4" cx="559.1" cy="453.9" r="3.5"/>
	</g>
	<g>
		<circle id="path-38_2_" class="st9" cx="559.1" cy="453.9" r="3.5"/>
	</g>
</g>
<g id="Oval-Copy-21_2_">
	<g class="st40">
		<circle id="path-40_1_" class="st4" cx="831.4" cy="617.6" r="9.4"/>
	</g>
	<g>
		<circle id="path-40_2_" class="st9" cx="831.4" cy="617.6" r="9.4"/>
	</g>
</g>
<g id="Oval-Copy-17_1_">
	<g class="st41">
		<circle id="path-47_6_" class="st4" cx="488.4" cy="788" r="4.7"/>
	</g>
	<g>
		<circle id="path-47_2_" class="st42" cx="488.4" cy="788" r="4.7"/>
	</g>
</g>
<g id="Path_1_">
	<g class="st21">
		<path id="path-51_4_" class="st4" d="M1502.2,222.6c0.4-0.4,0.5-0.9,0.3-1.4c-0.2-0.5-0.6-0.9-1.1-1l-4.5-0.7
			c-0.2,0-0.4-0.2-0.4-0.3l-2-4.3c-0.2-0.5-0.7-0.8-1.2-0.8c-0.5,0-1,0.3-1.2,0.8l-2,4.3c-0.1,0.2-0.3,0.3-0.4,0.3l-4.5,0.7
			c-0.5,0.1-0.9,0.4-1.1,1c-0.2,0.5,0,1.1,0.3,1.4l3.3,3.3c0.1,0.1,0.2,0.3,0.2,0.5l-0.8,4.7c-0.1,0.4,0,0.8,0.3,1.1
			c0.4,0.5,1.1,0.6,1.7,0.3l4.1-2.2c0.2-0.1,0.4-0.1,0.6,0l4.1,2.2c0.2,0.1,0.4,0.2,0.6,0.2c0.4,0,0.8-0.2,1-0.5
			c0.3-0.3,0.4-0.7,0.3-1.1l-0.8-4.7c0-0.2,0-0.4,0.2-0.5L1502.2,222.6z"/>
	</g>
	<g>
		
			<linearGradient id="path-51_4_" gradientUnits="userSpaceOnUse" x1="281.2751" y1="837.7422" x2="281.2751" y2="835.3982" gradientTransform="matrix(8.0001 0 0 -8 -757.0341 6916)">
			<stop  offset="0" style="stop-color:#FFF546"/>
			<stop  offset="1" style="stop-color:#FF852F"/>
		</linearGradient>
		<path id="path-51_2_" class="st43" d="M1502.2,222.6c0.4-0.4,0.5-0.9,0.3-1.4c-0.2-0.5-0.6-0.9-1.1-1l-4.5-0.7
			c-0.2,0-0.4-0.2-0.4-0.3l-2-4.3c-0.2-0.5-0.7-0.8-1.2-0.8c-0.5,0-1,0.3-1.2,0.8l-2,4.3c-0.1,0.2-0.3,0.3-0.4,0.3l-4.5,0.7
			c-0.5,0.1-0.9,0.4-1.1,1c-0.2,0.5,0,1.1,0.3,1.4l3.3,3.3c0.1,0.1,0.2,0.3,0.2,0.5l-0.8,4.7c-0.1,0.4,0,0.8,0.3,1.1
			c0.4,0.5,1.1,0.6,1.7,0.3l4.1-2.2c0.2-0.1,0.4-0.1,0.6,0l4.1,2.2c0.2,0.1,0.4,0.2,0.6,0.2c0.4,0,0.8-0.2,1-0.5
			c0.3-0.3,0.4-0.7,0.3-1.1l-0.8-4.7c0-0.2,0-0.4,0.2-0.5L1502.2,222.6z"/>
	</g>
</g>
<g id="Path-Copy_1_">
	<g class="st23">
		<path id="path-54_4_" class="st4" d="M405.4,300.5c0.3-0.3,0.4-0.8,0.3-1.3c-0.1-0.4-0.5-0.8-1-0.8l-4-0.6c-0.2,0-0.3-0.1-0.4-0.3
			l-1.8-3.8c-0.2-0.4-0.6-0.7-1.1-0.7s-0.9,0.3-1.1,0.7l-1.8,3.8c-0.1,0.2-0.2,0.3-0.4,0.3l-4,0.6c-0.4,0.1-0.8,0.4-1,0.8
			c-0.1,0.4,0,0.9,0.3,1.3l2.9,2.9c0.1,0.1,0.2,0.3,0.1,0.5L392,308c-0.1,0.4,0,0.7,0.3,1c0.4,0.4,1,0.6,1.5,0.3l3.6-2
			c0.1-0.1,0.3-0.1,0.5,0l3.6,2c0.2,0.1,0.4,0.1,0.5,0.1c0.3,0,0.7-0.2,0.9-0.4c0.2-0.3,0.3-0.6,0.3-1l-0.7-4.1c0-0.2,0-0.4,0.1-0.5
			L405.4,300.5z"/>
	</g>
	<g>
		
			<linearGradient id="path-54_4_" gradientUnits="userSpaceOnUse" x1="136.6486" y1="811.1318" x2="136.6486" y2="808.7877" gradientTransform="matrix(7.0001 0 0 -7 -559.0341 5971)">
			<stop  offset="0" style="stop-color:#D17AFF"/>
			<stop  offset="1" style="stop-color:#816DFF"/>
		</linearGradient>
		<path id="path-54_2_" class="st44" d="M405.4,300.5c0.3-0.3,0.4-0.8,0.3-1.3c-0.1-0.4-0.5-0.8-1-0.8l-4-0.6
			c-0.2,0-0.3-0.1-0.4-0.3l-1.8-3.8c-0.2-0.4-0.6-0.7-1.1-0.7s-0.9,0.3-1.1,0.7l-1.8,3.8c-0.1,0.2-0.2,0.3-0.4,0.3l-4,0.6
			c-0.4,0.1-0.8,0.4-1,0.8c-0.1,0.4,0,0.9,0.3,1.3l2.9,2.9c0.1,0.1,0.2,0.3,0.1,0.5L392,308c-0.1,0.4,0,0.7,0.3,1
			c0.4,0.4,1,0.6,1.5,0.3l3.6-2c0.1-0.1,0.3-0.1,0.5,0l3.6,2c0.2,0.1,0.4,0.1,0.5,0.1c0.3,0,0.7-0.2,0.9-0.4c0.2-0.3,0.3-0.6,0.3-1
			l-0.7-4.1c0-0.2,0-0.4,0.1-0.5L405.4,300.5z"/>
	</g>
</g>
<g id="Oval-Copy-22_3_">
	<g class="st39">
		<circle id="path-30_6_" class="st4" cx="928.6" cy="276.4" r="3.5"/>
	</g>
	<g>
		<circle id="path-30_4_" class="st9" cx="928.6" cy="276.4" r="3.5"/>
	</g>
</g>
<g id="Oval-Copy-17_3_">
	<g class="st41">
		<circle id="path-47_6_" class="st4" cx="712.1" cy="218.8" r="4.7"/>
	</g>
	<g>
		<circle id="path-47_4_" class="st42" cx="712.1" cy="218.8" r="4.7"/>
	</g>
</g>
<g>
	<g id="Oval-Copy-22_2_">
		<g class="st39">
			<circle id="path-30_6_" class="st4" cx="1575" cy="382.2" r="3.5"/>
		</g>
		<g>
			<circle id="path-30_3_" class="st9" cx="1575" cy="382.2" r="3.5"/>
		</g>
	</g>
	<g id="Oval-Copy-17_2_">
		<g class="st41">
			<circle id="path-47_6_" class="st4" cx="1412.1" cy="296.6" r="4.7"/>
		</g>
		<g>
			<circle id="path-47_3_" class="st42" cx="1412.1" cy="296.6" r="4.7"/>
		</g>
	</g>
	<g>
		<g id="Oval-Copy-37_3_">
			<g class="st14">
				<ellipse id="path-38_3_" class="st4" cx="1588.3" cy="544.9" rx="3.4" ry="3.1"/>
			</g>
			<g>
				<ellipse id="path-38_7_" class="st9" cx="1588.3" cy="544.9" rx="3.4" ry="3.1"/>
			</g>
		</g>
		<g id="Oval-Copy-21_4_">
			<g class="st40">
				<ellipse id="path-40_1_" class="st4" cx="1799.8" cy="711.7" rx="9" ry="8.4"/>
			</g>
			<g>
				<ellipse id="path-40_7_" class="st9" cx="1799.8" cy="711.7" rx="9" ry="8.4"/>
			</g>
		</g>
		<g id="Path_3_">
			<g class="st21">
				<path id="path-51_8_" class="st4" d="M1674.1,692c0.4-0.3,0.5-0.8,0.3-1.3c-0.2-0.5-0.5-0.8-1-0.9l-4.3-0.6
					c-0.2,0-0.3-0.1-0.4-0.3l-1.9-3.8c-0.2-0.4-0.7-0.7-1.2-0.7s-0.9,0.3-1.2,0.7l-1.9,3.8c-0.1,0.2-0.2,0.3-0.4,0.3l-4.3,0.6
					c-0.5,0.1-0.9,0.4-1,0.9c-0.2,0.5,0,1,0.3,1.3l3.1,3c0.1,0.1,0.2,0.3,0.2,0.5l-0.7,4.2c-0.1,0.4,0,0.7,0.3,1
					c0.4,0.4,1,0.6,1.6,0.3l3.9-2c0.2-0.1,0.4-0.1,0.5,0l3.9,2c0.2,0.1,0.4,0.1,0.6,0.1c0.4,0,0.7-0.2,1-0.5c0.2-0.3,0.3-0.6,0.3-1
					l-0.7-4.2c0-0.2,0-0.4,0.2-0.5L1674.1,692z"/>
			</g>
			<g>
				
					<linearGradient id="path-51_8_" gradientUnits="userSpaceOnUse" x1="302.818" y1="778.949" x2="302.818" y2="776.8507" gradientTransform="matrix(8.0001 0 0 -8 -757.0341 6916)">
					<stop  offset="0" style="stop-color:#FFF546"/>
					<stop  offset="1" style="stop-color:#FF852F"/>
				</linearGradient>
				<path id="path-51_7_" class="st45" d="M1674.1,692c0.4-0.3,0.5-0.8,0.3-1.3c-0.2-0.5-0.5-0.8-1-0.9l-4.3-0.6
					c-0.2,0-0.3-0.1-0.4-0.3l-1.9-3.8c-0.2-0.4-0.7-0.7-1.2-0.7s-0.9,0.3-1.2,0.7l-1.9,3.8c-0.1,0.2-0.2,0.3-0.4,0.3l-4.3,0.6
					c-0.5,0.1-0.9,0.4-1,0.9c-0.2,0.5,0,1,0.3,1.3l3.1,3c0.1,0.1,0.2,0.3,0.2,0.5l-0.7,4.2c-0.1,0.4,0,0.7,0.3,1
					c0.4,0.4,1,0.6,1.6,0.3l3.9-2c0.2-0.1,0.4-0.1,0.5,0l3.9,2c0.2,0.1,0.4,0.1,0.6,0.1c0.4,0,0.7-0.2,1-0.5c0.2-0.3,0.3-0.6,0.3-1
					l-0.7-4.2c0-0.2,0-0.4,0.2-0.5L1674.1,692z"/>
			</g>
		</g>
		<g id="Path-Copy_3_">
			<g class="st23">
				<path id="path-54_8_" class="st4" d="M1492.9,466.5c0.3-0.3,0.4-0.7,0.3-1.1c-0.1-0.4-0.5-0.7-0.9-0.7l-3.8-0.5
					c-0.2,0-0.3-0.1-0.4-0.3l-1.7-3.4c-0.2-0.4-0.6-0.6-1-0.6c-0.4,0-0.8,0.2-1,0.6l-1.7,3.4c-0.1,0.1-0.2,0.2-0.4,0.3l-3.8,0.5
					c-0.4,0.1-0.8,0.3-0.9,0.7c-0.1,0.4,0,0.8,0.3,1.1l2.7,2.6c0.1,0.1,0.2,0.3,0.1,0.4l-0.6,3.7c-0.1,0.3,0,0.6,0.2,0.9
					c0.3,0.4,0.9,0.5,1.4,0.3l3.4-1.7c0.1-0.1,0.3-0.1,0.5,0l3.4,1.7c0.2,0.1,0.3,0.1,0.5,0.1c0.3,0,0.6-0.1,0.9-0.4
					c0.2-0.2,0.3-0.6,0.2-0.9l-0.6-3.7c0-0.2,0-0.3,0.1-0.4L1492.9,466.5z"/>
			</g>
			<g>
				
					<linearGradient id="path-54_8_" gradientUnits="userSpaceOnUse" x1="292.0523" y1="787.3019" x2="292.0523" y2="785.2036" gradientTransform="matrix(7.0001 0 0 -7 -559.0341 5971)">
					<stop  offset="0" style="stop-color:#D17AFF"/>
					<stop  offset="1" style="stop-color:#816DFF"/>
				</linearGradient>
				<path id="path-54_7_" class="st46" d="M1492.9,466.5c0.3-0.3,0.4-0.7,0.3-1.1c-0.1-0.4-0.5-0.7-0.9-0.7l-3.8-0.5
					c-0.2,0-0.3-0.1-0.4-0.3l-1.7-3.4c-0.2-0.4-0.6-0.6-1-0.6c-0.4,0-0.8,0.2-1,0.6l-1.7,3.4c-0.1,0.1-0.2,0.2-0.4,0.3l-3.8,0.5
					c-0.4,0.1-0.8,0.3-0.9,0.7c-0.1,0.4,0,0.8,0.3,1.1l2.7,2.6c0.1,0.1,0.2,0.3,0.1,0.4l-0.6,3.7c-0.1,0.3,0,0.6,0.2,0.9
					c0.3,0.4,0.9,0.5,1.4,0.3l3.4-1.7c0.1-0.1,0.3-0.1,0.5,0l3.4,1.7c0.2,0.1,0.3,0.1,0.5,0.1c0.3,0,0.6-0.1,0.9-0.4
					c0.2-0.2,0.3-0.6,0.2-0.9l-0.6-3.7c0-0.2,0-0.3,0.1-0.4L1492.9,466.5z"/>
			</g>
		</g>
		<g id="Oval-Copy-17_5_">
			<g class="st41">
				<ellipse id="path-47_6_" class="st4" cx="1858.3" cy="548.8" rx="4.5" ry="4.2"/>
			</g>
			<g>
				<ellipse id="path-47_9_" class="st42" cx="1858.3" cy="548.8" rx="4.5" ry="4.2"/>
			</g>
		</g>
	</g>
</g>
<g>
	<g id="Oval-Copy-22_4_">
		<g class="st39">
			<circle id="path-30_6_" class="st4" cx="1247.1" cy="516.3" r="3.5"/>
		</g>
		<g>
			<circle id="path-30_1_" class="st9" cx="1247.1" cy="516.3" r="3.5"/>
		</g>
	</g>
	<g id="Oval-Copy-17_4_">
		<g class="st41">
			<circle id="path-47_6_" class="st4" cx="1030.7" cy="458.7" r="4.7"/>
		</g>
		<g>
			<circle id="path-47_1_" class="st42" cx="1030.7" cy="458.7" r="4.7"/>
		</g>
	</g>
</g>
</svg>
