<?xml version="1.0" encoding="utf-8"?>
<!-- Generator: Adobe Illustrator 24.0.1, SVG Export Plug-In . SVG Version: 6.00 Build 0)  -->
<svg version="1.1" xmlns="http://www.w3.org/2000/svg" xmlns:xlink="http://www.w3.org/1999/xlink" x="0px" y="0px"
	 viewBox="0 0 1920 1506" style="enable-background:new 0 0 1920 1506;" xml:space="preserve">
<style type="text/css">
	.st0{display:none;}
	.st1{display:inline;fill-rule:evenodd;clip-rule:evenodd;fill:url(#Fill-2_1_);}
	.st2{fill-rule:evenodd;clip-rule:evenodd;}
	.st3{fill-rule:evenodd;clip-rule:evenodd;fill:url(#path-19_6_);}
	.st4{opacity:0.1863;}
	.st5{fill-rule:evenodd;clip-rule:evenodd;fill:url(#path-21_6_);}
	.st6{fill-rule:evenodd;clip-rule:evenodd;fill:url(#path-21_7_);}
	.st7{fill-rule:evenodd;clip-rule:evenodd;fill:url(#path-24_6_);}
	.st8{opacity:0.2036;}
	.st9{fill-rule:evenodd;clip-rule:evenodd;fill:#09CBF9;}
	.st10{fill-rule:evenodd;clip-rule:evenodd;fill:#FFCF26;}
	.st11{fill-rule:evenodd;clip-rule:evenodd;fill:url(#path-43_18_);}
	.st12{fill-rule:evenodd;clip-rule:evenodd;fill:#B8E986;}
	.st13{fill-rule:evenodd;clip-rule:evenodd;fill:#D8D8D8;}
	.st14{fill-rule:evenodd;clip-rule:evenodd;fill:#FFFFFF;}
	.st15{fill-rule:evenodd;clip-rule:evenodd;fill:url(#path-51_12_);}
	.st16{fill-rule:evenodd;clip-rule:evenodd;fill:url(#path-54_14_);}
	.st17{opacity:0.7059;}
	.st18{fill-rule:evenodd;clip-rule:evenodd;fill:url(#path-64_2_);}
	.st19{fill-rule:evenodd;clip-rule:evenodd;fill:url(#path-24_7_);}
	.st20{fill-rule:evenodd;clip-rule:evenodd;fill:url(#path-43_19_);}
	.st21{fill-rule:evenodd;clip-rule:evenodd;fill:url(#path-51_13_);}
	.st22{fill-rule:evenodd;clip-rule:evenodd;fill:url(#path-54_15_);}
	.st23{fill-rule:evenodd;clip-rule:evenodd;fill:url(#path-24_8_);}
	.st24{fill-rule:evenodd;clip-rule:evenodd;fill:url(#path-43_20_);}
	.st25{fill-rule:evenodd;clip-rule:evenodd;fill:url(#path-51_14_);}
	.st26{fill-rule:evenodd;clip-rule:evenodd;fill:url(#path-54_16_);}
	.st27{fill-rule:evenodd;clip-rule:evenodd;fill:url(#path-43_21_);}
	.st28{fill-rule:evenodd;clip-rule:evenodd;fill:url(#path-43_22_);}
	.st29{fill-rule:evenodd;clip-rule:evenodd;fill:url(#path-51_15_);}
	.st30{fill-rule:evenodd;clip-rule:evenodd;fill:url(#path-43_23_);}
	.st31{fill-rule:evenodd;clip-rule:evenodd;fill:url(#path-43_24_);}
	.st32{fill-rule:evenodd;clip-rule:evenodd;fill:url(#path-51_16_);}
	.st33{fill-rule:evenodd;clip-rule:evenodd;fill:url(#path-43_25_);}
	.st34{fill-rule:evenodd;clip-rule:evenodd;fill:url(#path-54_17_);}
	.st35{fill-rule:evenodd;clip-rule:evenodd;fill:url(#path-51_17_);}
	.st36{fill-rule:evenodd;clip-rule:evenodd;fill:url(#path-43_26_);}
	.st37{fill-rule:evenodd;clip-rule:evenodd;fill:url(#path-54_18_);}
	.st38{fill-rule:evenodd;clip-rule:evenodd;fill:url(#path-54_19_);}
	.st39{fill-rule:evenodd;clip-rule:evenodd;fill:url(#path-54_20_);}
	.st40{fill-rule:evenodd;clip-rule:evenodd;fill:url(#path-21_8_);}
	.st41{fill-rule:evenodd;clip-rule:evenodd;fill:url(#path-19_7_);}
	.st42{fill-rule:evenodd;clip-rule:evenodd;fill:url(#path-19_8_);}
	.st43{opacity:0.7;}
	.st44{fill:none;stroke:#93278F;stroke-miterlimit:10;}
	.st45{fill:url(#SVGID_1_);}
	.st46{fill:#FFFFFF;}
	.st47{fill:url(#SVGID_2_);}
	.st48{fill:url(#SVGID_3_);}
	.st49{fill:url(#SVGID_4_);}
	.st50{fill:url(#SVGID_5_);}
	.st51{fill:url(#SVGID_6_);}
	.st52{fill:#03A6FF;}
</style>
<g id="Layer_14" class="st0">
	
		<linearGradient id="Fill-2_1_" gradientUnits="userSpaceOnUse" x1="0.2235" y1="1505.8978" x2="1.6067" y2="1505.8978" gradientTransform="matrix(22.6689 -1456.2335 -1023.2203 -20.0268 1541236.125 32291.7285)">
		<stop  offset="0" style="stop-color:#04A6FF"/>
		<stop  offset="6.075651e-02" style="stop-color:#38C0FF"/>
		<stop  offset="1" style="stop-color:#A9E4FF;stop-opacity:0"/>
	</linearGradient>
	<path id="Fill-2" class="st1" d="M182.9,1454.2c81.3-102.1,116.5-330.5,242.9-273.2c41.2,18.7,89,18.8,115-21.3
		c26-40.1,21-119.4,64.1-197.4C648,884.1,805,782.8,805,372.4C805,8.7,537.5-226.2,2.6-332.2c0,0-15.5,1830.4-15.6,1831.4
		c0,0,0,0.1,0,0.1c-0.2,20.7,72.1,11.6,79.8,11.5C109.2,1510.2,147.8,1498.3,182.9,1454.2z"/>
</g>
<g id="Layer_15">
	<g id="Oval-Copy">
		<g>
			<path id="path-19" class="st2" d="M1740.4,825c8.6,0,15.6-7.8,15.6-16.2s-7-15.2-15.6-15.2s-15.6,6.8-15.6,15.2
				S1731.8,825,1740.4,825z"/>
		</g>
		<g>
			
				<linearGradient id="path-19_6_" gradientUnits="userSpaceOnUse" x1="1.7813" y1="1495.1505" x2="1.7813" y2="1494.6451" gradientTransform="matrix(62 0 0 -62 1630 93493)">
				<stop  offset="0" style="stop-color:#9795E7"/>
				<stop  offset="1" style="stop-color:#544EFA"/>
			</linearGradient>
			<path id="path-19_1_" class="st3" d="M1740.4,825c8.6,0,15.6-7.8,15.6-16.2s-7-15.2-15.6-15.2s-15.6,6.8-15.6,15.2
				S1731.8,825,1740.4,825z"/>
		</g>
	</g>
	<g id="Oval-Copy-12" class="st4">
		<g>
			<circle id="path-21" class="st2" cx="182.4" cy="194.2" r="22.5"/>
		</g>
		<g>
			
				<linearGradient id="path-21_6_" gradientUnits="userSpaceOnUse" x1="-17.7052" y1="1504.3696" x2="-18.0017" y2="1505.1855" gradientTransform="matrix(45 0 0 -45 985 67907)">
				<stop  offset="0" style="stop-color:#0354D0"/>
				<stop  offset="0.7156" style="stop-color:#3099FF"/>
				<stop  offset="1" style="stop-color:#74B9FF"/>
			</linearGradient>
			<circle id="path-21_1_" class="st5" cx="182.4" cy="194.2" r="22.5"/>
		</g>
	</g>
	<g id="Oval-Copy-12_2_" class="st4">
		<g>
			<circle id="path-21_5_" class="st2" cx="1785.4" cy="118.2" r="22.5"/>
		</g>
		<g>
			
				<linearGradient id="path-21_7_" gradientUnits="userSpaceOnUse" x1="17.917" y1="1506.0586" x2="17.6205" y2="1506.8745" gradientTransform="matrix(45 0 0 -45 985 67907)">
				<stop  offset="0" style="stop-color:#0354D0"/>
				<stop  offset="0.7156" style="stop-color:#3099FF"/>
				<stop  offset="1" style="stop-color:#74B9FF"/>
			</linearGradient>
			<circle id="path-21_4_" class="st6" cx="1785.4" cy="118.2" r="22.5"/>
		</g>
	</g>
	<g id="Oval-Copy-13">
		<g>
			<circle id="path-24" class="st2" cx="1377" cy="1304.8" r="11.2"/>
		</g>
		<g>
			
				<linearGradient id="path-24_6_" gradientUnits="userSpaceOnUse" x1="4.634" y1="1479.6974" x2="4.9116" y2="1479.3473" gradientTransform="matrix(45 0 0 -45 1162 67883)">
				<stop  offset="0" style="stop-color:#FCDBDE"/>
				<stop  offset="1" style="stop-color:#EA66BF"/>
			</linearGradient>
			<circle id="path-24_1_" class="st7" cx="1377" cy="1304.8" r="11.2"/>
		</g>
	</g>
	<g id="Oval-Copy-15" class="st8">
		<g>
			<circle id="path-26" class="st2" cx="291.9" cy="920.7" r="9"/>
		</g>
		<g>
			<circle id="path-26_1_" class="st9" cx="291.9" cy="920.7" r="9"/>
		</g>
	</g>
	<g id="Oval-Copy-22">
		<g>
			<circle id="path-30" class="st2" cx="689.4" cy="854.2" r="1.5"/>
		</g>
		<g>
			<circle id="path-30_1_" class="st9" cx="689.4" cy="854.2" r="1.5"/>
		</g>
	</g>
	<g id="Oval-Copy-36">
		<g>
			<circle id="path-32" class="st2" cx="1198.4" cy="605.2" r="1.5"/>
		</g>
		<g>
			<circle id="path-32_1_" class="st9" cx="1198.4" cy="605.2" r="1.5"/>
		</g>
	</g>
	<g id="Oval-Copy-46">
		<g>
			<circle id="path-34" class="st2" cx="1326.4" cy="776.2" r="1.5"/>
		</g>
		<g>
			<circle id="path-34_1_" class="st10" cx="1326.4" cy="776.2" r="1.5"/>
		</g>
	</g>
	<g id="Oval-Copy-37">
		<g>
			<circle id="path-38" class="st2" cx="640.4" cy="706.2" r="1.5"/>
		</g>
		<g>
			<circle id="path-38_1_" class="st9" cx="640.4" cy="706.2" r="1.5"/>
		</g>
	</g>
	<g id="Oval-Copy-21">
		<g>
			<circle id="path-40" class="st2" cx="987.9" cy="48.7" r="4"/>
		</g>
		<g>
			<circle id="path-40_1_" class="st9" cx="987.9" cy="48.7" r="4"/>
		</g>
	</g>
	<g id="Oval-Copy-21_1_">
		<g>
			<circle id="path-43" class="st2" cx="159.4" cy="912.2" r="3.5"/>
		</g>
		<g>
			
				<linearGradient id="path-43_18_" gradientUnits="userSpaceOnUse" x1="-160.5171" y1="1386.4757" x2="-160.5171" y2="1385.4757" gradientTransform="matrix(7 0 0 -7 1283 10614)">
				<stop  offset="0" style="stop-color:#FFF546"/>
				<stop  offset="1" style="stop-color:#FF852F"/>
			</linearGradient>
			<circle id="path-43_1_" class="st11" cx="159.4" cy="912.2" r="3.5"/>
		</g>
	</g>
	<g id="Oval-Copy-20" transform="translate(1700.060267, 183.088132) rotate(-28.000000) translate(-1700.060267, -183.088132) ">
		<g>
			<path id="path-45" class="st2" d="M634.2-177.5c0.8,0,1.4-0.8,1.4-1.6s-0.7-1.5-1.5-1.5c-0.8,0-1.5,0.7-1.5,1.5
				C632.7-178.3,633.4-177.5,634.2-177.5z"/>
		</g>
		<g>
			<path id="path-45_1_" class="st12" d="M634.2-177.5c0.8,0,1.4-0.8,1.4-1.6s-0.7-1.5-1.5-1.5c-0.8,0-1.5,0.7-1.5,1.5
				C632.7-178.3,633.4-177.5,634.2-177.5z"/>
		</g>
	</g>
	<g id="Oval-Copy-17">
		<g>
			<circle id="path-47" class="st2" cx="563.9" cy="854.7" r="2"/>
		</g>
		<g>
			<circle id="path-47_1_" class="st13" cx="563.9" cy="854.7" r="2"/>
		</g>
	</g>
	<g id="Oval-Copy-18" transform="translate(1608.968320, 178.977633) rotate(24.000000) translate(-1608.968320, -178.977633) ">
		<g>
			<path id="path-49" class="st2" d="M344.9,969.9c1.7,0,3.1-1.4,3.1-3s-1.3-3-3-3c-1.7,0-3,1.3-3,3S343.3,969.9,344.9,969.9z"/>
		</g>
		<g>
			<path id="path-49_1_" class="st14" d="M344.9,969.9c1.7,0,3.1-1.4,3.1-3s-1.3-3-3-3c-1.7,0-3,1.3-3,3S343.3,969.9,344.9,969.9z"
				/>
		</g>
	</g>
	<g id="Path">
		<g>
			<path id="path-51" class="st2" d="M621.7,301.3c0.2-0.2,0.2-0.4,0.1-0.6c-0.1-0.2-0.2-0.4-0.5-0.4l-1.9-0.3
				c-0.1,0-0.2-0.1-0.2-0.1l-0.9-1.8c-0.1-0.2-0.3-0.3-0.5-0.3s-0.4,0.1-0.5,0.3l-0.9,1.8c0,0.1-0.1,0.1-0.2,0.1l-1.9,0.3
				c-0.2,0-0.4,0.2-0.5,0.4c-0.1,0.2,0,0.5,0.1,0.6l1.4,1.4c0.1,0.1,0.1,0.1,0.1,0.2l-0.3,2c0,0.2,0,0.3,0.1,0.5
				c0.2,0.2,0.5,0.3,0.7,0.1l1.7-1c0.1,0,0.2,0,0.2,0l1.7,1c0.1,0,0.2,0.1,0.3,0.1c0.2,0,0.3-0.1,0.4-0.2c0.1-0.1,0.2-0.3,0.1-0.5
				l-0.3-2c0-0.1,0-0.2,0.1-0.2L621.7,301.3z"/>
		</g>
		<g>
			
				<linearGradient id="path-51_12_" gradientUnits="userSpaceOnUse" x1="-70.5139" y1="1487.6663" x2="-70.5139" y2="1486.6663" gradientTransform="matrix(8.0001 0 0 -8 1181.9998 12199)">
				<stop  offset="0" style="stop-color:#FFF546"/>
				<stop  offset="1" style="stop-color:#FF852F"/>
			</linearGradient>
			<path id="path-51_1_" class="st15" d="M621.7,301.3c0.2-0.2,0.2-0.4,0.1-0.6c-0.1-0.2-0.2-0.4-0.5-0.4l-1.9-0.3
				c-0.1,0-0.2-0.1-0.2-0.1l-0.9-1.8c-0.1-0.2-0.3-0.3-0.5-0.3s-0.4,0.1-0.5,0.3l-0.9,1.8c0,0.1-0.1,0.1-0.2,0.1l-1.9,0.3
				c-0.2,0-0.4,0.2-0.5,0.4c-0.1,0.2,0,0.5,0.1,0.6l1.4,1.4c0.1,0.1,0.1,0.1,0.1,0.2l-0.3,2c0,0.2,0,0.3,0.1,0.5
				c0.2,0.2,0.5,0.3,0.7,0.1l1.7-1c0.1,0,0.2,0,0.2,0l1.7,1c0.1,0,0.2,0.1,0.3,0.1c0.2,0,0.3-0.1,0.4-0.2c0.1-0.1,0.2-0.3,0.1-0.5
				l-0.3-2c0-0.1,0-0.2,0.1-0.2L621.7,301.3z"/>
		</g>
	</g>
	<g id="Path-Copy">
		<g>
			<path id="path-54" class="st2" d="M597.7,668.8c0.1-0.1,0.2-0.3,0.1-0.5c-0.1-0.2-0.2-0.3-0.4-0.4l-1.7-0.3
				c-0.1,0-0.1-0.1-0.2-0.1l-0.8-1.6c-0.1-0.2-0.3-0.3-0.5-0.3s-0.4,0.1-0.5,0.3l-0.8,1.6c0,0.1-0.1,0.1-0.2,0.1l-1.7,0.3
				c-0.2,0-0.3,0.2-0.4,0.4c-0.1,0.2,0,0.4,0.1,0.5l1.2,1.2c0.1,0.1,0.1,0.1,0.1,0.2l-0.3,1.8c0,0.2,0,0.3,0.1,0.4
				c0.1,0.2,0.4,0.2,0.6,0.1l1.5-0.8c0.1,0,0.1,0,0.2,0l1.5,0.8c0.1,0,0.2,0.1,0.2,0.1c0.1,0,0.3-0.1,0.4-0.2
				c0.1-0.1,0.1-0.3,0.1-0.4l-0.3-1.8c0-0.1,0-0.2,0.1-0.2L597.7,668.8z"/>
		</g>
		<g>
			
				<linearGradient id="path-54_14_" gradientUnits="userSpaceOnUse" x1="-72.6587" y1="1417.0471" x2="-72.6587" y2="1416.0471" gradientTransform="matrix(7.0001 0 0 -7 1102.9998 10585)">
				<stop  offset="0" style="stop-color:#D17AFF"/>
				<stop  offset="1" style="stop-color:#816DFF"/>
			</linearGradient>
			<path id="path-54_1_" class="st16" d="M597.7,668.8c0.1-0.1,0.2-0.3,0.1-0.5c-0.1-0.2-0.2-0.3-0.4-0.4l-1.7-0.3
				c-0.1,0-0.1-0.1-0.2-0.1l-0.8-1.6c-0.1-0.2-0.3-0.3-0.5-0.3s-0.4,0.1-0.5,0.3l-0.8,1.6c0,0.1-0.1,0.1-0.2,0.1l-1.7,0.3
				c-0.2,0-0.3,0.2-0.4,0.4c-0.1,0.2,0,0.4,0.1,0.5l1.2,1.2c0.1,0.1,0.1,0.1,0.1,0.2l-0.3,1.8c0,0.2,0,0.3,0.1,0.4
				c0.1,0.2,0.4,0.2,0.6,0.1l1.5-0.8c0.1,0,0.1,0,0.2,0l1.5,0.8c0.1,0,0.2,0.1,0.2,0.1c0.1,0,0.3-0.1,0.4-0.2
				c0.1-0.1,0.1-0.3,0.1-0.4l-0.3-1.8c0-0.1,0-0.2,0.1-0.2L597.7,668.8z"/>
		</g>
	</g>
	<g id="Path-Copy-2">
		<g>
			<path id="path-56" class="st2" d="M1495.6,852.1c0.2-0.2,0.3-0.6,0.2-0.9c-0.1-0.3-0.4-0.6-0.7-0.6l-2.9-0.4
				c-0.1,0-0.2-0.1-0.3-0.2l-1.3-2.7c-0.1-0.3-0.4-0.5-0.8-0.5c-0.3,0-0.6,0.2-0.8,0.5l-1.3,2.7c-0.1,0.1-0.2,0.2-0.3,0.2l-2.9,0.4
				c-0.3,0-0.6,0.3-0.7,0.6c-0.1,0.3,0,0.7,0.2,0.9l2.1,2.1c0.1,0.1,0.1,0.2,0.1,0.4l-0.5,3c0,0.3,0,0.5,0.2,0.7
				c0.3,0.3,0.7,0.4,1.1,0.2l2.6-1.4c0.1-0.1,0.2-0.1,0.4,0l2.6,1.4c0.1,0.1,0.3,0.1,0.4,0.1c0.3,0,0.5-0.1,0.7-0.3
				c0.2-0.2,0.2-0.5,0.2-0.7l-0.5-3c0-0.1,0-0.3,0.1-0.4L1495.6,852.1z"/>
		</g>
		<g>
			<path id="path-56_1_" class="st9" d="M1495.6,852.1c0.2-0.2,0.3-0.6,0.2-0.9c-0.1-0.3-0.4-0.6-0.7-0.6l-2.9-0.4
				c-0.1,0-0.2-0.1-0.3-0.2l-1.3-2.7c-0.1-0.3-0.4-0.5-0.8-0.5c-0.3,0-0.6,0.2-0.8,0.5l-1.3,2.7c-0.1,0.1-0.2,0.2-0.3,0.2l-2.9,0.4
				c-0.3,0-0.6,0.3-0.7,0.6c-0.1,0.3,0,0.7,0.2,0.9l2.1,2.1c0.1,0.1,0.1,0.2,0.1,0.4l-0.5,3c0,0.3,0,0.5,0.2,0.7
				c0.3,0.3,0.7,0.4,1.1,0.2l2.6-1.4c0.1-0.1,0.2-0.1,0.4,0l2.6,1.4c0.1,0.1,0.3,0.1,0.4,0.1c0.3,0,0.5-0.1,0.7-0.3
				c0.2-0.2,0.2-0.5,0.2-0.7l-0.5-3c0-0.1,0-0.3,0.1-0.4L1495.6,852.1z"/>
		</g>
	</g>
	<g id="Path-Copy-3">
		<g>
			<path id="path-58" class="st2" d="M1291.7,703.4c0.1-0.1,0.2-0.3,0.1-0.5c-0.1-0.2-0.2-0.3-0.3-0.3l-1.5-0.2
				c-0.1,0-0.1,0-0.1-0.1l-0.6-1.4c-0.1-0.2-0.2-0.3-0.4-0.3c-0.2,0-0.3,0.1-0.4,0.3l-0.6,1.4c0,0.1-0.1,0.1-0.1,0.1l-1.5,0.2
				c-0.2,0-0.3,0.1-0.3,0.3c-0.1,0.2,0,0.3,0.1,0.5l1.1,1.1c0,0,0.1,0.1,0.1,0.2l-0.2,1.5c0,0.1,0,0.3,0.1,0.4
				c0.1,0.2,0.4,0.2,0.5,0.1l1.3-0.7c0.1,0,0.1,0,0.2,0l1.3,0.7c0.1,0,0.1,0.1,0.2,0.1c0.1,0,0.2-0.1,0.3-0.2
				c0.1-0.1,0.1-0.2,0.1-0.4l-0.2-1.5c0-0.1,0-0.1,0.1-0.2L1291.7,703.4z"/>
		</g>
		<g>
			<path id="path-58_1_" class="st10" d="M1291.7,703.4c0.1-0.1,0.2-0.3,0.1-0.5c-0.1-0.2-0.2-0.3-0.3-0.3l-1.5-0.2
				c-0.1,0-0.1,0-0.1-0.1l-0.6-1.4c-0.1-0.2-0.2-0.3-0.4-0.3c-0.2,0-0.3,0.1-0.4,0.3l-0.6,1.4c0,0.1-0.1,0.1-0.1,0.1l-1.5,0.2
				c-0.2,0-0.3,0.1-0.3,0.3c-0.1,0.2,0,0.3,0.1,0.5l1.1,1.1c0,0,0.1,0.1,0.1,0.2l-0.2,1.5c0,0.1,0,0.3,0.1,0.4
				c0.1,0.2,0.4,0.2,0.5,0.1l1.3-0.7c0.1,0,0.1,0,0.2,0l1.3,0.7c0.1,0,0.1,0.1,0.2,0.1c0.1,0,0.2-0.1,0.3-0.2
				c0.1-0.1,0.1-0.2,0.1-0.4l-0.2-1.5c0-0.1,0-0.1,0.1-0.2L1291.7,703.4z"/>
		</g>
	</g>
	<g id="Oval-Copy-16" class="st17">
		<g>
			<circle id="path-64" class="st2" cx="1161" cy="1081.8" r="11.2"/>
		</g>
		<g>
			
				<linearGradient id="path-64_2_" gradientUnits="userSpaceOnUse" x1="-12.7798" y1="1486.9139" x2="-12.9269" y2="1487.3188" gradientTransform="matrix(45 0 0 -45 1739 68001)">
				<stop  offset="0" style="stop-color:#0354D0"/>
				<stop  offset="0.7156" style="stop-color:#3099FF"/>
				<stop  offset="1" style="stop-color:#74B9FF"/>
			</linearGradient>
			<circle id="path-64_1_" class="st18" cx="1161" cy="1081.8" r="11.2"/>
		</g>
	</g>
	<g id="Oval-Copy-13_1_">
		<g>
			<circle id="path-24_3_" class="st2" cx="537.4" cy="719.3" r="11.2"/>
		</g>
		<g>
			
				<linearGradient id="path-24_7_" gradientUnits="userSpaceOnUse" x1="-14.0255" y1="1492.7085" x2="-13.748" y2="1492.3584" gradientTransform="matrix(45 0 0 -45 1162 67883)">
				<stop  offset="0" style="stop-color:#FCDBDE"/>
				<stop  offset="1" style="stop-color:#EA66BF"/>
			</linearGradient>
			<circle id="path-24_2_" class="st19" cx="537.4" cy="719.3" r="11.2"/>
		</g>
	</g>
	<g id="Oval-Copy-22_1_">
		<g>
			<circle id="path-30_3_" class="st2" cx="482.7" cy="357.7" r="1.5"/>
		</g>
		<g>
			<circle id="path-30_2_" class="st9" cx="482.7" cy="357.7" r="1.5"/>
		</g>
	</g>
	<g id="Oval-Copy-36_1_">
		<g>
			<circle id="path-32_3_" class="st2" cx="647.7" cy="295.7" r="1.5"/>
		</g>
		<g>
			<circle id="path-32_2_" class="st9" cx="647.7" cy="295.7" r="1.5"/>
		</g>
	</g>
	<g id="Oval-Copy-37_1_">
		<g>
			<circle id="path-38_3_" class="st2" cx="433.7" cy="209.7" r="1.5"/>
		</g>
		<g>
			<circle id="path-38_2_" class="st9" cx="433.7" cy="209.7" r="1.5"/>
		</g>
	</g>
	<g id="Oval-Copy-21_3_">
		<g>
			<circle id="path-40_3_" class="st2" cx="1248.2" cy="245.2" r="4"/>
		</g>
		<g>
			<circle id="path-40_2_" class="st9" cx="1248.2" cy="245.2" r="4"/>
		</g>
	</g>
	<g id="Oval-Copy-21_2_">
		<g>
			<circle id="path-43_3_" class="st2" cx="769.7" cy="114.7" r="3.5"/>
		</g>
		<g>
			
				<linearGradient id="path-43_19_" gradientUnits="userSpaceOnUse" x1="-73.3283" y1="1500.4043" x2="-73.3283" y2="1499.4043" gradientTransform="matrix(7 0 0 -7 1283 10614)">
				<stop  offset="0" style="stop-color:#FFF546"/>
				<stop  offset="1" style="stop-color:#FF852F"/>
			</linearGradient>
			<circle id="path-43_2_" class="st20" cx="769.7" cy="114.7" r="3.5"/>
		</g>
	</g>
	<g id="Oval-Copy-17_1_">
		<g>
			<circle id="path-47_3_" class="st2" cx="413.2" cy="321.2" r="2"/>
		</g>
		<g>
			<circle id="path-47_2_" class="st13" cx="413.2" cy="321.2" r="2"/>
		</g>
	</g>
	<g id="Oval-Copy-18_1_" transform="translate(1608.968320, 178.977633) rotate(24.000000) translate(-1608.968320, -178.977633) ">
		<g>
			<path id="path-49_3_" class="st2" d="M765.7,633.1c1.7,0,3.1-1.4,3.1-3s-1.3-3-3-3c-1.7,0-3,1.3-3,3S764,633.1,765.7,633.1z"/>
		</g>
		<g>
			<path id="path-49_2_" class="st14" d="M765.7,633.1c1.7,0,3.1-1.4,3.1-3s-1.3-3-3-3c-1.7,0-3,1.3-3,3S764,633.1,765.7,633.1z"/>
		</g>
	</g>
	<g id="Path_1_">
		<g>
			<path id="path-51_3_" class="st2" d="M593.1,141.6c0.2-0.2,0.3-0.6,0.2-0.9c-0.1-0.3-0.4-0.6-0.7-0.6l-3-0.5
				c-0.1,0-0.2-0.1-0.3-0.2l-1.3-2.8c-0.1-0.3-0.5-0.5-0.8-0.5c-0.3,0-0.6,0.2-0.8,0.5l-1.3,2.8c-0.1,0.1-0.2,0.2-0.3,0.2l-3,0.5
				c-0.3,0.1-0.6,0.3-0.7,0.6c-0.1,0.3,0,0.7,0.2,0.9l2.1,2.2c0.1,0.1,0.1,0.2,0.1,0.4l-0.5,3.1c0,0.3,0,0.5,0.2,0.7
				c0.3,0.3,0.7,0.4,1.1,0.2l2.7-1.5c0.1-0.1,0.3-0.1,0.4,0l2.7,1.5c0.1,0.1,0.3,0.1,0.4,0.1c0.3,0,0.5-0.1,0.7-0.3
				c0.2-0.2,0.2-0.5,0.2-0.7l-0.5-3.1c0-0.1,0-0.3,0.1-0.4L593.1,141.6z"/>
		</g>
		<g>
			
				<linearGradient id="path-51_13_" gradientUnits="userSpaceOnUse" x1="-74.3486" y1="1507.8704" x2="-74.3486" y2="1506.3372" gradientTransform="matrix(8.0001 0 0 -8 1181.9998 12199)">
				<stop  offset="0" style="stop-color:#FFF546"/>
				<stop  offset="1" style="stop-color:#FF852F"/>
			</linearGradient>
			<path id="path-51_2_" class="st21" d="M593.1,141.6c0.2-0.2,0.3-0.6,0.2-0.9c-0.1-0.3-0.4-0.6-0.7-0.6l-3-0.5
				c-0.1,0-0.2-0.1-0.3-0.2l-1.3-2.8c-0.1-0.3-0.5-0.5-0.8-0.5c-0.3,0-0.6,0.2-0.8,0.5l-1.3,2.8c-0.1,0.1-0.2,0.2-0.3,0.2l-3,0.5
				c-0.3,0.1-0.6,0.3-0.7,0.6c-0.1,0.3,0,0.7,0.2,0.9l2.1,2.2c0.1,0.1,0.1,0.2,0.1,0.4l-0.5,3.1c0,0.3,0,0.5,0.2,0.7
				c0.3,0.3,0.7,0.4,1.1,0.2l2.7-1.5c0.1-0.1,0.3-0.1,0.4,0l2.7,1.5c0.1,0.1,0.3,0.1,0.4,0.1c0.3,0,0.5-0.1,0.7-0.3
				c0.2-0.2,0.2-0.5,0.2-0.7l-0.5-3.1c0-0.1,0-0.3,0.1-0.4L593.1,141.6z"/>
		</g>
	</g>
	<g id="Path-Copy_1_">
		<g>
			<path id="path-54_3_" class="st2" d="M391.1,172.3c0.1-0.1,0.2-0.3,0.1-0.5c-0.1-0.2-0.2-0.3-0.4-0.4l-1.7-0.3
				c-0.1,0-0.1-0.1-0.2-0.1l-0.8-1.6c-0.1-0.2-0.3-0.3-0.5-0.3s-0.4,0.1-0.5,0.3l-0.8,1.6c0,0.1-0.1,0.1-0.2,0.1l-1.7,0.3
				c-0.2,0-0.3,0.2-0.4,0.4c-0.1,0.2,0,0.4,0.1,0.5l1.2,1.2c0.1,0.1,0.1,0.1,0.1,0.2l-0.3,1.8c0,0.2,0,0.3,0.1,0.4
				c0.1,0.2,0.4,0.2,0.6,0.1l1.5-0.8c0.1,0,0.1,0,0.2,0l1.5,0.8c0.1,0,0.2,0.1,0.2,0.1c0.1,0,0.3-0.1,0.4-0.2
				c0.1-0.1,0.1-0.3,0.1-0.4l-0.3-1.8c0-0.1,0-0.2,0.1-0.2L391.1,172.3z"/>
		</g>
		<g>
			
				<linearGradient id="path-54_15_" gradientUnits="userSpaceOnUse" x1="-102.1836" y1="1487.9757" x2="-102.1836" y2="1486.9757" gradientTransform="matrix(7.0001 0 0 -7 1102.9998 10585)">
				<stop  offset="0" style="stop-color:#D17AFF"/>
				<stop  offset="1" style="stop-color:#816DFF"/>
			</linearGradient>
			<path id="path-54_2_" class="st22" d="M391.1,172.3c0.1-0.1,0.2-0.3,0.1-0.5c-0.1-0.2-0.2-0.3-0.4-0.4l-1.7-0.3
				c-0.1,0-0.1-0.1-0.2-0.1l-0.8-1.6c-0.1-0.2-0.3-0.3-0.5-0.3s-0.4,0.1-0.5,0.3l-0.8,1.6c0,0.1-0.1,0.1-0.2,0.1l-1.7,0.3
				c-0.2,0-0.3,0.2-0.4,0.4c-0.1,0.2,0,0.4,0.1,0.5l1.2,1.2c0.1,0.1,0.1,0.1,0.1,0.2l-0.3,1.8c0,0.2,0,0.3,0.1,0.4
				c0.1,0.2,0.4,0.2,0.6,0.1l1.5-0.8c0.1,0,0.1,0,0.2,0l1.5,0.8c0.1,0,0.2,0.1,0.2,0.1c0.1,0,0.3-0.1,0.4-0.2
				c0.1-0.1,0.1-0.3,0.1-0.4l-0.3-1.8c0-0.1,0-0.2,0.1-0.2L391.1,172.3z"/>
		</g>
	</g>
	<g id="Oval-Copy-13_2_">
		<g>
			<circle id="path-24_5_" class="st2" cx="472.9" cy="1426.8" r="11.2"/>
		</g>
		<g>
			
				<linearGradient id="path-24_8_" gradientUnits="userSpaceOnUse" x1="-15.4592" y1="1476.9863" x2="-15.1817" y2="1476.6362" gradientTransform="matrix(45 0 0 -45 1162 67883)">
				<stop  offset="0" style="stop-color:#FCDBDE"/>
				<stop  offset="1" style="stop-color:#EA66BF"/>
			</linearGradient>
			<circle id="path-24_4_" class="st23" cx="472.9" cy="1426.8" r="11.2"/>
		</g>
	</g>
	<g id="Oval-Copy-15_1_" class="st8">
		<g>
			<circle id="path-26_3_" class="st2" cx="472.7" cy="1313.7" r="9"/>
		</g>
		<g>
			<circle id="path-26_2_" class="st9" cx="472.7" cy="1313.7" r="9"/>
		</g>
	</g>
	<g id="Oval-Copy-36_2_">
		<g>
			<circle id="path-32_5_" class="st2" cx="884.2" cy="1200.2" r="1.5"/>
		</g>
		<g>
			<circle id="path-32_4_" class="st9" cx="884.2" cy="1200.2" r="1.5"/>
		</g>
	</g>
	<g id="Oval-Copy-37_2_">
		<g>
			<circle id="path-38_5_" class="st2" cx="670.2" cy="1114.2" r="1.5"/>
		</g>
		<g>
			<circle id="path-38_4_" class="st9" cx="670.2" cy="1114.2" r="1.5"/>
		</g>
	</g>
	<g id="Oval-Copy-21_5_">
		<g>
			<circle id="path-40_5_" class="st2" cx="764.7" cy="1193.7" r="4"/>
		</g>
		<g>
			<circle id="path-40_4_" class="st9" cx="764.7" cy="1193.7" r="4"/>
		</g>
	</g>
	<g id="Oval-Copy-21_4_">
		<g>
			<circle id="path-43_5_" class="st2" cx="960.2" cy="1116.2" r="3.5"/>
		</g>
		<g>
			
				<linearGradient id="path-43_20_" gradientUnits="userSpaceOnUse" x1="-46.1164" y1="1357.3329" x2="-46.1164" y2="1356.3329" gradientTransform="matrix(7 0 0 -7 1283 10614)">
				<stop  offset="0" style="stop-color:#FFF546"/>
				<stop  offset="1" style="stop-color:#FF852F"/>
			</linearGradient>
			<circle id="path-43_4_" class="st24" cx="960.2" cy="1116.2" r="3.5"/>
		</g>
	</g>
	<g id="Oval-Copy-17_2_">
		<g>
			<circle id="path-47_5_" class="st2" cx="649.7" cy="1225.7" r="2"/>
		</g>
		<g>
			<circle id="path-47_4_" class="st13" cx="649.7" cy="1225.7" r="2"/>
		</g>
	</g>
	<g id="Oval-Copy-18_2_" transform="translate(1608.968320, 178.977633) rotate(24.000000) translate(-1608.968320, -178.977633) ">
		<g>
			<path id="path-49_5_" class="st2" d="M1349.6,1363.2c1.7,0,3.1-1.4,3.1-3s-1.3-3-3-3c-1.7,0-3,1.3-3,3
				S1347.9,1363.2,1349.6,1363.2z"/>
		</g>
		<g>
			<path id="path-49_4_" class="st14" d="M1349.6,1363.2c1.7,0,3.1-1.4,3.1-3s-1.3-3-3-3c-1.7,0-3,1.3-3,3
				S1347.9,1363.2,1349.6,1363.2z"/>
		</g>
	</g>
	<g id="Path_2_">
		<g>
			<path id="path-51_5_" class="st2" d="M721.8,1354.9c0.3-0.3,0.5-0.8,0.3-1.3c-0.1-0.5-0.5-0.8-1-0.9l-4.1-0.6
				c-0.2,0-0.3-0.1-0.4-0.3l-1.8-3.9c-0.2-0.4-0.6-0.7-1.1-0.7s-0.9,0.3-1.1,0.7l-1.8,3.9c-0.1,0.2-0.2,0.3-0.4,0.3l-4.1,0.6
				c-0.5,0.1-0.8,0.4-1,0.9c-0.1,0.5,0,1,0.3,1.3l3,3c0.1,0.1,0.2,0.3,0.2,0.5l-0.7,4.3c-0.1,0.4,0,0.7,0.3,1c0.4,0.5,1,0.6,1.5,0.3
				l3.7-2c0.2-0.1,0.3-0.1,0.5,0l3.7,2c0.2,0.1,0.4,0.1,0.6,0.1c0.4,0,0.7-0.2,0.9-0.5c0.2-0.3,0.3-0.7,0.3-1l-0.7-4.3
				c0-0.2,0-0.4,0.2-0.5L721.8,1354.9z"/>
		</g>
		<g>
			
				<linearGradient id="path-51_14_" gradientUnits="userSpaceOnUse" x1="-58.5385" y1="1356.48" x2="-58.5385" y2="1354.3525" gradientTransform="matrix(8.0001 0 0 -8 1181.9998 12199)">
				<stop  offset="0" style="stop-color:#FFF546"/>
				<stop  offset="1" style="stop-color:#FF852F"/>
			</linearGradient>
			<path id="path-51_4_" class="st25" d="M721.8,1354.9c0.3-0.3,0.5-0.8,0.3-1.3c-0.1-0.5-0.5-0.8-1-0.9l-4.1-0.6
				c-0.2,0-0.3-0.1-0.4-0.3l-1.8-3.9c-0.2-0.4-0.6-0.7-1.1-0.7s-0.9,0.3-1.1,0.7l-1.8,3.9c-0.1,0.2-0.2,0.3-0.4,0.3l-4.1,0.6
				c-0.5,0.1-0.8,0.4-1,0.9c-0.1,0.5,0,1,0.3,1.3l3,3c0.1,0.1,0.2,0.3,0.2,0.5l-0.7,4.3c-0.1,0.4,0,0.7,0.3,1c0.4,0.5,1,0.6,1.5,0.3
				l3.7-2c0.2-0.1,0.3-0.1,0.5,0l3.7,2c0.2,0.1,0.4,0.1,0.6,0.1c0.4,0,0.7-0.2,0.9-0.5c0.2-0.3,0.3-0.7,0.3-1l-0.7-4.3
				c0-0.2,0-0.4,0.2-0.5L721.8,1354.9z"/>
		</g>
	</g>
	<g id="Path-Copy_2_">
		<g>
			<path id="path-54_5_" class="st2" d="M627.5,1076.8c0.1-0.1,0.2-0.3,0.1-0.5c-0.1-0.2-0.2-0.3-0.4-0.4l-1.7-0.3
				c-0.1,0-0.1-0.1-0.2-0.1l-0.8-1.6c-0.1-0.2-0.3-0.3-0.5-0.3s-0.4,0.1-0.5,0.3l-0.8,1.6c0,0.1-0.1,0.1-0.2,0.1l-1.7,0.3
				c-0.2,0-0.3,0.2-0.4,0.4c-0.1,0.2,0,0.4,0.1,0.5l1.2,1.2c0.1,0.1,0.1,0.1,0.1,0.2l-0.3,1.8c0,0.2,0,0.3,0.1,0.4
				c0.1,0.2,0.4,0.2,0.6,0.1l1.5-0.8c0.1,0,0.1,0,0.2,0l1.5,0.8c0.1,0,0.2,0.1,0.2,0.1c0.1,0,0.3-0.1,0.4-0.2
				c0.1-0.1,0.1-0.3,0.1-0.4l-0.3-1.8c0-0.1,0-0.2,0.1-0.2L627.5,1076.8z"/>
		</g>
		<g>
			
				<linearGradient id="path-54_16_" gradientUnits="userSpaceOnUse" x1="-68.4009" y1="1358.7615" x2="-68.4009" y2="1357.7615" gradientTransform="matrix(7.0001 0 0 -7 1102.9998 10585)">
				<stop  offset="0" style="stop-color:#D17AFF"/>
				<stop  offset="1" style="stop-color:#816DFF"/>
			</linearGradient>
			<path id="path-54_4_" class="st26" d="M627.5,1076.8c0.1-0.1,0.2-0.3,0.1-0.5c-0.1-0.2-0.2-0.3-0.4-0.4l-1.7-0.3
				c-0.1,0-0.1-0.1-0.2-0.1l-0.8-1.6c-0.1-0.2-0.3-0.3-0.5-0.3s-0.4,0.1-0.5,0.3l-0.8,1.6c0,0.1-0.1,0.1-0.2,0.1l-1.7,0.3
				c-0.2,0-0.3,0.2-0.4,0.4c-0.1,0.2,0,0.4,0.1,0.5l1.2,1.2c0.1,0.1,0.1,0.1,0.1,0.2l-0.3,1.8c0,0.2,0,0.3,0.1,0.4
				c0.1,0.2,0.4,0.2,0.6,0.1l1.5-0.8c0.1,0,0.1,0,0.2,0l1.5,0.8c0.1,0,0.2,0.1,0.2,0.1c0.1,0,0.3-0.1,0.4-0.2
				c0.1-0.1,0.1-0.3,0.1-0.4l-0.3-1.8c0-0.1,0-0.2,0.1-0.2L627.5,1076.8z"/>
		</g>
	</g>
	<g id="Oval-Copy-21_7_">
		<g>
			<circle id="path-43_9_" class="st2" cx="1737.2" cy="442.4" r="3.5"/>
		</g>
		<g>
			
				<linearGradient id="path-43_21_" gradientUnits="userSpaceOnUse" x1="64.8884" y1="1453.5829" x2="64.8884" y2="1452.5829" gradientTransform="matrix(7 0 0 -7 1283 10614)">
				<stop  offset="0" style="stop-color:#FFF546"/>
				<stop  offset="1" style="stop-color:#FF852F"/>
			</linearGradient>
			<circle id="path-43_8_" class="st27" cx="1737.2" cy="442.4" r="3.5"/>
		</g>
	</g>
	<g id="Oval-Copy-36_3_">
		<g>
			<circle id="path-32_7_" class="st2" cx="1625.5" cy="239.9" r="1.5"/>
		</g>
		<g>
			<circle id="path-32_6_" class="st9" cx="1625.5" cy="239.9" r="1.5"/>
		</g>
	</g>
	<g id="Oval-Copy-21_6_">
		<g>
			<circle id="path-43_7_" class="st2" cx="1545.5" cy="145.9" r="3.5"/>
		</g>
		<g>
			
				<linearGradient id="path-43_22_" gradientUnits="userSpaceOnUse" x1="37.5059" y1="1495.9401" x2="37.5059" y2="1494.9401" gradientTransform="matrix(7 0 0 -7 1283 10614)">
				<stop  offset="0" style="stop-color:#FFF546"/>
				<stop  offset="1" style="stop-color:#FF852F"/>
			</linearGradient>
			<circle id="path-43_6_" class="st28" cx="1545.5" cy="145.9" r="3.5"/>
		</g>
	</g>
	<g id="Oval-Copy-18_3_" transform="translate(1608.968320, 178.977633) rotate(24.000000) translate(-1608.968320, -178.977633) ">
		<g>
			<path id="path-49_7_" class="st2" d="M1636.3,184.5c1.7,0,3.1-1.4,3.1-3s-1.3-3-3-3c-1.7,0-3,1.3-3,3S1634.6,184.5,1636.3,184.5z
				"/>
		</g>
		<g>
			<path id="path-49_6_" class="st14" d="M1636.3,184.5c1.7,0,3.1-1.4,3.1-3s-1.3-3-3-3c-1.7,0-3,1.3-3,3S1634.6,184.5,1636.3,184.5
				z"/>
		</g>
	</g>
	<g id="Path_3_">
		<g>
			<path id="path-51_7_" class="st2" d="M1696.9,282.8c0.2-0.2,0.3-0.6,0.2-0.9c-0.1-0.3-0.4-0.6-0.7-0.6l-3-0.5
				c-0.1,0-0.2-0.1-0.3-0.2l-1.3-2.8c-0.1-0.3-0.5-0.5-0.8-0.5s-0.6,0.2-0.8,0.5l-1.3,2.8c-0.1,0.1-0.2,0.2-0.3,0.2l-3,0.5
				c-0.3,0.1-0.6,0.3-0.7,0.6c-0.1,0.3,0,0.7,0.2,0.9l2.1,2.2c0.1,0.1,0.1,0.2,0.1,0.4l-0.5,3.1c0,0.3,0,0.5,0.2,0.7
				c0.3,0.3,0.7,0.4,1.1,0.2l2.7-1.5c0.1-0.1,0.3-0.1,0.4,0l2.7,1.5c0.1,0.1,0.3,0.1,0.4,0.1c0.3,0,0.5-0.1,0.7-0.3
				c0.2-0.2,0.2-0.5,0.2-0.7l-0.5-3.1c0-0.1,0-0.3,0.1-0.4L1696.9,282.8z"/>
		</g>
		<g>
			
				<linearGradient id="path-51_15_" gradientUnits="userSpaceOnUse" x1="63.6292" y1="1490.2141" x2="63.6292" y2="1488.6809" gradientTransform="matrix(8.0001 0 0 -8 1181.9998 12199)">
				<stop  offset="0" style="stop-color:#FFF546"/>
				<stop  offset="1" style="stop-color:#FF852F"/>
			</linearGradient>
			<path id="path-51_6_" class="st29" d="M1696.9,282.8c0.2-0.2,0.3-0.6,0.2-0.9c-0.1-0.3-0.4-0.6-0.7-0.6l-3-0.5
				c-0.1,0-0.2-0.1-0.3-0.2l-1.3-2.8c-0.1-0.3-0.5-0.5-0.8-0.5s-0.6,0.2-0.8,0.5l-1.3,2.8c-0.1,0.1-0.2,0.2-0.3,0.2l-3,0.5
				c-0.3,0.1-0.6,0.3-0.7,0.6c-0.1,0.3,0,0.7,0.2,0.9l2.1,2.2c0.1,0.1,0.1,0.2,0.1,0.4l-0.5,3.1c0,0.3,0,0.5,0.2,0.7
				c0.3,0.3,0.7,0.4,1.1,0.2l2.7-1.5c0.1-0.1,0.3-0.1,0.4,0l2.7,1.5c0.1,0.1,0.3,0.1,0.4,0.1c0.3,0,0.5-0.1,0.7-0.3
				c0.2-0.2,0.2-0.5,0.2-0.7l-0.5-3.1c0-0.1,0-0.3,0.1-0.4L1696.9,282.8z"/>
		</g>
	</g>
	<g id="Oval-Copy-21_9_">
		<g>
			<circle id="path-43_13_" class="st2" cx="1889.2" cy="1464.4" r="3.5"/>
		</g>
		<g>
			
				<linearGradient id="path-43_23_" gradientUnits="userSpaceOnUse" x1="86.6027" y1="1307.5829" x2="86.6027" y2="1306.5829" gradientTransform="matrix(7 0 0 -7 1283 10614)">
				<stop  offset="0" style="stop-color:#FFF546"/>
				<stop  offset="1" style="stop-color:#FF852F"/>
			</linearGradient>
			<circle id="path-43_12_" class="st30" cx="1889.2" cy="1464.4" r="3.5"/>
		</g>
	</g>
	<g id="Oval-Copy-36_4_">
		<g>
			<circle id="path-32_9_" class="st2" cx="1777.5" cy="1261.9" r="1.5"/>
		</g>
		<g>
			<circle id="path-32_8_" class="st9" cx="1777.5" cy="1261.9" r="1.5"/>
		</g>
	</g>
	<g id="Oval-Copy-21_8_">
		<g>
			<circle id="path-43_11_" class="st2" cx="1697.5" cy="1167.9" r="3.5"/>
		</g>
		<g>
			
				<linearGradient id="path-43_24_" gradientUnits="userSpaceOnUse" x1="59.2202" y1="1349.9401" x2="59.2202" y2="1348.9401" gradientTransform="matrix(7 0 0 -7 1283 10614)">
				<stop  offset="0" style="stop-color:#FFF546"/>
				<stop  offset="1" style="stop-color:#FF852F"/>
			</linearGradient>
			<circle id="path-43_10_" class="st31" cx="1697.5" cy="1167.9" r="3.5"/>
		</g>
	</g>
	<g id="Oval-Copy-18_4_" transform="translate(1608.968320, 178.977633) rotate(24.000000) translate(-1608.968320, -178.977633) ">
		<g>
			<path id="path-49_9_" class="st2" d="M2190.8,1056.3c1.7,0,3.1-1.4,3.1-3s-1.3-3-3-3c-1.7,0-3,1.3-3,3
				S2189.2,1056.3,2190.8,1056.3z"/>
		</g>
		<g>
			<path id="path-49_8_" class="st14" d="M2190.8,1056.3c1.7,0,3.1-1.4,3.1-3s-1.3-3-3-3c-1.7,0-3,1.3-3,3
				S2189.2,1056.3,2190.8,1056.3z"/>
		</g>
	</g>
	<g id="Path_4_">
		<g>
			<path id="path-51_9_" class="st2" d="M1848.9,1304.8c0.2-0.2,0.3-0.6,0.2-0.9c-0.1-0.3-0.4-0.6-0.7-0.6l-3-0.5
				c-0.1,0-0.2-0.1-0.3-0.2l-1.3-2.8c-0.1-0.3-0.5-0.5-0.8-0.5s-0.6,0.2-0.8,0.5l-1.3,2.8c-0.1,0.1-0.2,0.2-0.3,0.2l-3,0.5
				c-0.3,0.1-0.6,0.3-0.7,0.6c-0.1,0.3,0,0.7,0.2,0.9l2.1,2.2c0.1,0.1,0.1,0.2,0.1,0.4l-0.5,3.1c0,0.3,0,0.5,0.2,0.7
				c0.3,0.3,0.7,0.4,1.1,0.2l2.7-1.5c0.1-0.1,0.3-0.1,0.4,0l2.7,1.5c0.1,0.1,0.3,0.1,0.4,0.1c0.3,0,0.5-0.1,0.7-0.3
				c0.2-0.2,0.2-0.5,0.2-0.7l-0.5-3.1c0-0.1,0-0.3,0.1-0.4L1848.9,1304.8z"/>
		</g>
		<g>
			
				<linearGradient id="path-51_16_" gradientUnits="userSpaceOnUse" x1="82.6289" y1="1362.4641" x2="82.6289" y2="1360.9309" gradientTransform="matrix(8.0001 0 0 -8 1181.9998 12199)">
				<stop  offset="0" style="stop-color:#FFF546"/>
				<stop  offset="1" style="stop-color:#FF852F"/>
			</linearGradient>
			<path id="path-51_8_" class="st32" d="M1848.9,1304.8c0.2-0.2,0.3-0.6,0.2-0.9c-0.1-0.3-0.4-0.6-0.7-0.6l-3-0.5
				c-0.1,0-0.2-0.1-0.3-0.2l-1.3-2.8c-0.1-0.3-0.5-0.5-0.8-0.5s-0.6,0.2-0.8,0.5l-1.3,2.8c-0.1,0.1-0.2,0.2-0.3,0.2l-3,0.5
				c-0.3,0.1-0.6,0.3-0.7,0.6c-0.1,0.3,0,0.7,0.2,0.9l2.1,2.2c0.1,0.1,0.1,0.2,0.1,0.4l-0.5,3.1c0,0.3,0,0.5,0.2,0.7
				c0.3,0.3,0.7,0.4,1.1,0.2l2.7-1.5c0.1-0.1,0.3-0.1,0.4,0l2.7,1.5c0.1,0.1,0.3,0.1,0.4,0.1c0.3,0,0.5-0.1,0.7-0.3
				c0.2-0.2,0.2-0.5,0.2-0.7l-0.5-3.1c0-0.1,0-0.3,0.1-0.4L1848.9,1304.8z"/>
		</g>
	</g>
	<g id="Oval-Copy-22_2_">
		<g>
			<circle id="path-30_5_" class="st2" cx="915" cy="592.2" r="1.5"/>
		</g>
		<g>
			<circle id="path-30_4_" class="st9" cx="915" cy="592.2" r="1.5"/>
		</g>
	</g>
	<g id="Oval-Copy-17_3_">
		<g>
			<circle id="path-47_7_" class="st2" cx="789.5" cy="592.7" r="2"/>
		</g>
		<g>
			<circle id="path-47_6_" class="st13" cx="789.5" cy="592.7" r="2"/>
		</g>
	</g>
	<g id="Oval-Copy-37_3_">
		<g>
			<circle id="path-38_7_" class="st2" cx="531.8" cy="467.2" r="1.5"/>
		</g>
		<g>
			<circle id="path-38_6_" class="st9" cx="531.8" cy="467.2" r="1.5"/>
		</g>
	</g>
	<g id="Oval-Copy-21_11_">
		<g>
			<circle id="path-40_7_" class="st2" cx="205.3" cy="796.7" r="4"/>
		</g>
		<g>
			<circle id="path-40_6_" class="st9" cx="205.3" cy="796.7" r="4"/>
		</g>
	</g>
	<g id="Oval-Copy-21_10_">
		<g>
			<circle id="path-43_15_" class="st2" cx="1207.8" cy="501.2" r="3.5"/>
		</g>
		<g>
			
				<linearGradient id="path-43_25_" gradientUnits="userSpaceOnUse" x1="-10.7454" y1="1445.1901" x2="-10.7454" y2="1444.1901" gradientTransform="matrix(7 0 0 -7 1283 10614)">
				<stop  offset="0" style="stop-color:#FFF546"/>
				<stop  offset="1" style="stop-color:#FF852F"/>
			</linearGradient>
			<circle id="path-43_14_" class="st33" cx="1207.8" cy="501.2" r="3.5"/>
		</g>
	</g>
	<g id="Path-Copy_3_">
		<g>
			<path id="path-54_7_" class="st2" d="M435.1,792.8c0.1-0.1,0.2-0.3,0.1-0.5c-0.1-0.2-0.2-0.3-0.4-0.4l-1.7-0.3
				c-0.1,0-0.1-0.1-0.2-0.1l-0.8-1.6c-0.1-0.2-0.3-0.3-0.5-0.3s-0.4,0.1-0.5,0.3l-0.8,1.6c0,0.1-0.1,0.1-0.2,0.1l-1.7,0.3
				c-0.2,0-0.3,0.2-0.4,0.4c-0.1,0.2,0,0.4,0.1,0.5l1.2,1.2c0.1,0.1,0.1,0.1,0.1,0.2l-0.3,1.8c0,0.2,0,0.3,0.1,0.4
				c0.1,0.2,0.4,0.2,0.6,0.1l1.5-0.8c0.1,0,0.1,0,0.2,0l1.5,0.8c0.1,0,0.2,0.1,0.2,0.1c0.1,0,0.3-0.1,0.4-0.2
				c0.1-0.1,0.1-0.3,0.1-0.4l-0.3-1.8c0-0.1,0-0.2,0.1-0.2L435.1,792.8z"/>
		</g>
		<g>
			
				<linearGradient id="path-54_17_" gradientUnits="userSpaceOnUse" x1="-95.8865" y1="1399.3329" x2="-95.8865" y2="1398.3329" gradientTransform="matrix(7.0001 0 0 -7 1102.9998 10585)">
				<stop  offset="0" style="stop-color:#D17AFF"/>
				<stop  offset="1" style="stop-color:#816DFF"/>
			</linearGradient>
			<path id="path-54_6_" class="st34" d="M435.1,792.8c0.1-0.1,0.2-0.3,0.1-0.5c-0.1-0.2-0.2-0.3-0.4-0.4l-1.7-0.3
				c-0.1,0-0.1-0.1-0.2-0.1l-0.8-1.6c-0.1-0.2-0.3-0.3-0.5-0.3s-0.4,0.1-0.5,0.3l-0.8,1.6c0,0.1-0.1,0.1-0.2,0.1l-1.7,0.3
				c-0.2,0-0.3,0.2-0.4,0.4c-0.1,0.2,0,0.4,0.1,0.5l1.2,1.2c0.1,0.1,0.1,0.1,0.1,0.2l-0.3,1.8c0,0.2,0,0.3,0.1,0.4
				c0.1,0.2,0.4,0.2,0.6,0.1l1.5-0.8c0.1,0,0.1,0,0.2,0l1.5,0.8c0.1,0,0.2,0.1,0.2,0.1c0.1,0,0.3-0.1,0.4-0.2
				c0.1-0.1,0.1-0.3,0.1-0.4l-0.3-1.8c0-0.1,0-0.2,0.1-0.2L435.1,792.8z"/>
		</g>
	</g>
	<g id="Oval-Copy-22_4_">
		<g>
			<circle id="path-30_9_" class="st2" cx="708.9" cy="894.2" r="1.5"/>
		</g>
		<g>
			<circle id="path-30_8_" class="st9" cx="708.9" cy="894.2" r="1.5"/>
		</g>
	</g>
	<g id="Oval-Copy-46_1_">
		<g>
			<circle id="path-34_3_" class="st2" cx="1345.9" cy="816.2" r="1.5"/>
		</g>
		<g>
			<circle id="path-34_2_" class="st10" cx="1345.9" cy="816.2" r="1.5"/>
		</g>
	</g>
	<g id="Oval-Copy-21_13_">
		<g>
			<circle id="path-40_9_" class="st2" cx="1122.4" cy="872.7" r="4"/>
		</g>
		<g>
			<circle id="path-40_8_" class="st9" cx="1122.4" cy="872.7" r="4"/>
		</g>
	</g>
	
		<g id="Oval-Copy-20_1_" transform="translate(1700.060267, 183.088132) rotate(-28.000000) translate(-1700.060267, -183.088132) ">
		<g>
			<path id="path-45_3_" class="st2" d="M632.7-133c0.8,0,1.4-0.8,1.4-1.6s-0.7-1.5-1.5-1.5c-0.8,0-1.5,0.7-1.5,1.5
				S631.9-133,632.7-133z"/>
		</g>
		<g>
			<path id="path-45_2_" class="st12" d="M632.7-133c0.8,0,1.4-0.8,1.4-1.6s-0.7-1.5-1.5-1.5c-0.8,0-1.5,0.7-1.5,1.5
				S631.9-133,632.7-133z"/>
		</g>
	</g>
	<g id="Oval-Copy-18_5_" transform="translate(1608.968320, 178.977633) rotate(24.000000) translate(-1608.968320, -178.977633) ">
		<g>
			<path id="path-49_11_" class="st2" d="M701.4,827.6c1.7,0,3.1-1.4,3.1-3s-1.3-3-3-3c-1.7,0-3,1.3-3,3S699.7,827.6,701.4,827.6z"
				/>
		</g>
		<g>
			<path id="path-49_10_" class="st14" d="M701.4,827.6c1.7,0,3.1-1.4,3.1-3s-1.3-3-3-3c-1.7,0-3,1.3-3,3S699.7,827.6,701.4,827.6z"
				/>
		</g>
	</g>
	<g id="Path_5_">
		<g>
			<path id="path-51_11_" class="st2" d="M709.2,407.3c0.2-0.2,0.2-0.4,0.1-0.6c-0.1-0.2-0.2-0.4-0.5-0.4L707,406
				c-0.1,0-0.2-0.1-0.2-0.1l-0.9-1.8c-0.1-0.2-0.3-0.3-0.5-0.3s-0.4,0.1-0.5,0.3l-0.9,1.8c0,0.1-0.1,0.1-0.2,0.1l-1.9,0.3
				c-0.2,0-0.4,0.2-0.5,0.4c-0.1,0.2,0,0.5,0.1,0.6l1.4,1.4c0.1,0.1,0.1,0.1,0.1,0.2l-0.3,2c0,0.2,0,0.3,0.1,0.5
				c0.2,0.2,0.5,0.3,0.7,0.1l1.7-1c0.1,0,0.2,0,0.2,0l1.7,1c0.1,0,0.2,0.1,0.3,0.1c0.2,0,0.3-0.1,0.4-0.2c0.1-0.1,0.2-0.3,0.1-0.5
				l-0.3-2c0-0.1,0-0.2,0.1-0.2L709.2,407.3z"/>
		</g>
		<g>
			
				<linearGradient id="path-51_17_" gradientUnits="userSpaceOnUse" x1="-59.5765" y1="1474.4163" x2="-59.5765" y2="1473.4163" gradientTransform="matrix(8.0001 0 0 -8 1181.9998 12199)">
				<stop  offset="0" style="stop-color:#FFF546"/>
				<stop  offset="1" style="stop-color:#FF852F"/>
			</linearGradient>
			<path id="path-51_10_" class="st35" d="M709.2,407.3c0.2-0.2,0.2-0.4,0.1-0.6c-0.1-0.2-0.2-0.4-0.5-0.4L707,406
				c-0.1,0-0.2-0.1-0.2-0.1l-0.9-1.8c-0.1-0.2-0.3-0.3-0.5-0.3s-0.4,0.1-0.5,0.3l-0.9,1.8c0,0.1-0.1,0.1-0.2,0.1l-1.9,0.3
				c-0.2,0-0.4,0.2-0.5,0.4c-0.1,0.2,0,0.5,0.1,0.6l1.4,1.4c0.1,0.1,0.1,0.1,0.1,0.2l-0.3,2c0,0.2,0,0.3,0.1,0.5
				c0.2,0.2,0.5,0.3,0.7,0.1l1.7-1c0.1,0,0.2,0,0.2,0l1.7,1c0.1,0,0.2,0.1,0.3,0.1c0.2,0,0.3-0.1,0.4-0.2c0.1-0.1,0.2-0.3,0.1-0.5
				l-0.3-2c0-0.1,0-0.2,0.1-0.2L709.2,407.3z"/>
		</g>
	</g>
	<g id="Path-Copy-3_1_">
		<g>
			<path id="path-58_3_" class="st2" d="M1347.2,504.4c0.1-0.1,0.2-0.3,0.1-0.5c-0.1-0.2-0.2-0.3-0.3-0.3l-1.5-0.2
				c-0.1,0-0.1,0-0.1-0.1l-0.6-1.4c-0.1-0.2-0.2-0.3-0.4-0.3c-0.2,0-0.3,0.1-0.4,0.3l-0.6,1.4c0,0.1-0.1,0.1-0.1,0.1l-1.5,0.2
				c-0.2,0-0.3,0.1-0.3,0.3c-0.1,0.2,0,0.3,0.1,0.5l1.1,1.1c0,0,0.1,0.1,0.1,0.2l-0.2,1.5c0,0.1,0,0.3,0.1,0.4
				c0.1,0.2,0.4,0.2,0.5,0.1l1.3-0.7c0.1,0,0.1,0,0.2,0l1.3,0.7c0.1,0,0.1,0.1,0.2,0.1c0.1,0,0.2-0.1,0.3-0.2
				c0.1-0.1,0.1-0.2,0.1-0.4l-0.2-1.5c0-0.1,0-0.1,0.1-0.2L1347.2,504.4z"/>
		</g>
		<g>
			<path id="path-58_2_" class="st10" d="M1347.2,504.4c0.1-0.1,0.2-0.3,0.1-0.5c-0.1-0.2-0.2-0.3-0.3-0.3l-1.5-0.2
				c-0.1,0-0.1,0-0.1-0.1l-0.6-1.4c-0.1-0.2-0.2-0.3-0.4-0.3c-0.2,0-0.3,0.1-0.4,0.3l-0.6,1.4c0,0.1-0.1,0.1-0.1,0.1l-1.5,0.2
				c-0.2,0-0.3,0.1-0.3,0.3c-0.1,0.2,0,0.3,0.1,0.5l1.1,1.1c0,0,0.1,0.1,0.1,0.2l-0.2,1.5c0,0.1,0,0.3,0.1,0.4
				c0.1,0.2,0.4,0.2,0.5,0.1l1.3-0.7c0.1,0,0.1,0,0.2,0l1.3,0.7c0.1,0,0.1,0.1,0.2,0.1c0.1,0,0.2-0.1,0.3-0.2
				c0.1-0.1,0.1-0.2,0.1-0.4l-0.2-1.5c0-0.1,0-0.1,0.1-0.2L1347.2,504.4z"/>
		</g>
	</g>
	<g id="Oval-Copy-22_3_">
		<g>
			<circle id="path-30_7_" class="st2" cx="1061.5" cy="784.2" r="1.5"/>
		</g>
		<g>
			<circle id="path-30_6_" class="st9" cx="1061.5" cy="784.2" r="1.5"/>
		</g>
	</g>
	<g id="Oval-Copy-17_4_">
		<g>
			<circle id="path-47_9_" class="st2" cx="809" cy="632.7" r="2"/>
		</g>
		<g>
			<circle id="path-47_8_" class="st13" cx="809" cy="632.7" r="2"/>
		</g>
	</g>
	<g id="Oval-Copy-37_4_">
		<g>
			<circle id="path-38_9_" class="st2" cx="551.3" cy="507.2" r="1.5"/>
		</g>
		<g>
			<circle id="path-38_8_" class="st9" cx="551.3" cy="507.2" r="1.5"/>
		</g>
	</g>
	<g id="Oval-Copy-21_12_">
		<g>
			<circle id="path-43_17_" class="st2" cx="1214.3" cy="811.2" r="3.5"/>
		</g>
		<g>
			
				<linearGradient id="path-43_26_" gradientUnits="userSpaceOnUse" x1="-9.8168" y1="1400.9043" x2="-9.8168" y2="1399.9043" gradientTransform="matrix(7 0 0 -7 1283 10614)">
				<stop  offset="0" style="stop-color:#FFF546"/>
				<stop  offset="1" style="stop-color:#FF852F"/>
			</linearGradient>
			<circle id="path-43_16_" class="st36" cx="1214.3" cy="811.2" r="3.5"/>
		</g>
	</g>
	<g id="Path-Copy_4_">
		<g>
			<path id="path-54_9_" class="st2" d="M144.6,494.8c0.1-0.1,0.2-0.3,0.1-0.5c-0.1-0.2-0.2-0.3-0.4-0.4l-1.7-0.3
				c-0.1,0-0.1-0.1-0.2-0.1l-0.8-1.6c-0.1-0.2-0.3-0.3-0.5-0.3s-0.4,0.1-0.5,0.3l-0.8,1.6c0,0.1-0.1,0.1-0.2,0.1l-1.7,0.3
				c-0.2,0-0.3,0.2-0.4,0.4c-0.1,0.2,0,0.4,0.1,0.5l1.2,1.2c0.1,0.1,0.1,0.1,0.1,0.2l-0.3,1.8c0,0.2,0,0.3,0.1,0.4
				c0.1,0.2,0.4,0.2,0.6,0.1l1.5-0.8c0.1,0,0.1,0,0.2,0l1.5,0.8c0.1,0,0.2,0.1,0.2,0.1c0.1,0,0.3-0.1,0.4-0.2
				c0.1-0.1,0.1-0.3,0.1-0.4l-0.3-1.8c0-0.1,0-0.2,0.1-0.2L144.6,494.8z"/>
		</g>
		<g>
			
				<linearGradient id="path-54_18_" gradientUnits="userSpaceOnUse" x1="-137.3858" y1="1441.9043" x2="-137.3858" y2="1440.9043" gradientTransform="matrix(7.0001 0 0 -7 1102.9998 10585)">
				<stop  offset="0" style="stop-color:#D17AFF"/>
				<stop  offset="1" style="stop-color:#816DFF"/>
			</linearGradient>
			<path id="path-54_8_" class="st37" d="M144.6,494.8c0.1-0.1,0.2-0.3,0.1-0.5c-0.1-0.2-0.2-0.3-0.4-0.4l-1.7-0.3
				c-0.1,0-0.1-0.1-0.2-0.1l-0.8-1.6c-0.1-0.2-0.3-0.3-0.5-0.3s-0.4,0.1-0.5,0.3l-0.8,1.6c0,0.1-0.1,0.1-0.2,0.1l-1.7,0.3
				c-0.2,0-0.3,0.2-0.4,0.4c-0.1,0.2,0,0.4,0.1,0.5l1.2,1.2c0.1,0.1,0.1,0.1,0.1,0.2l-0.3,1.8c0,0.2,0,0.3,0.1,0.4
				c0.1,0.2,0.4,0.2,0.6,0.1l1.5-0.8c0.1,0,0.1,0,0.2,0l1.5,0.8c0.1,0,0.2,0.1,0.2,0.1c0.1,0,0.3-0.1,0.4-0.2
				c0.1-0.1,0.1-0.3,0.1-0.4l-0.3-1.8c0-0.1,0-0.2,0.1-0.2L144.6,494.8z"/>
		</g>
	</g>
	<g id="Oval-Copy-22_6_">
		<g>
			<circle id="path-30_13_" class="st2" cx="1370.8" cy="1401.9" r="1.5"/>
		</g>
		<g>
			<circle id="path-30_12_" class="st9" cx="1370.8" cy="1401.9" r="1.5"/>
		</g>
	</g>
	<g id="Oval-Copy-17_5_">
		<g>
			<circle id="path-47_11_" class="st2" cx="1245.3" cy="1402.4" r="2"/>
		</g>
		<g>
			<circle id="path-47_10_" class="st13" cx="1245.3" cy="1402.4" r="2"/>
		</g>
	</g>
	<g id="Oval-Copy-37_6_">
		<g>
			<circle id="path-38_13_" class="st2" cx="1577.2" cy="1399.9" r="1.5"/>
		</g>
		<g>
			<circle id="path-38_12_" class="st9" cx="1577.2" cy="1399.9" r="1.5"/>
		</g>
	</g>
	<g id="Path-Copy_6_">
		<g>
			<path id="path-54_13_" class="st2" d="M1534.5,1362.6c0.1-0.1,0.2-0.3,0.1-0.5c-0.1-0.2-0.2-0.3-0.4-0.4l-1.7-0.3
				c-0.1,0-0.1-0.1-0.2-0.1l-0.8-1.6c-0.1-0.2-0.3-0.3-0.5-0.3s-0.4,0.1-0.5,0.3l-0.8,1.6c0,0.1-0.1,0.1-0.2,0.1l-1.7,0.3
				c-0.2,0-0.3,0.2-0.4,0.4c-0.1,0.2,0,0.4,0.1,0.5l1.2,1.2c0.1,0.1,0.1,0.1,0.1,0.2l-0.3,1.8c0,0.2,0,0.3,0.1,0.4
				c0.1,0.2,0.4,0.2,0.6,0.1l1.5-0.8c0.1,0,0.1,0,0.2,0l1.5,0.8c0.1,0,0.2,0.1,0.2,0.1c0.1,0,0.3-0.1,0.4-0.2
				c0.1-0.1,0.1-0.3,0.1-0.4l-0.3-1.8c0-0.1,0-0.2,0.1-0.2L1534.5,1362.6z"/>
		</g>
		<g>
			
				<linearGradient id="path-54_19_" gradientUnits="userSpaceOnUse" x1="61.1649" y1="1317.9434" x2="61.1649" y2="1316.9434" gradientTransform="matrix(7.0001 0 0 -7 1102.9998 10585)">
				<stop  offset="0" style="stop-color:#D17AFF"/>
				<stop  offset="1" style="stop-color:#816DFF"/>
			</linearGradient>
			<path id="path-54_12_" class="st38" d="M1534.5,1362.6c0.1-0.1,0.2-0.3,0.1-0.5c-0.1-0.2-0.2-0.3-0.4-0.4l-1.7-0.3
				c-0.1,0-0.1-0.1-0.2-0.1l-0.8-1.6c-0.1-0.2-0.3-0.3-0.5-0.3s-0.4,0.1-0.5,0.3l-0.8,1.6c0,0.1-0.1,0.1-0.2,0.1l-1.7,0.3
				c-0.2,0-0.3,0.2-0.4,0.4c-0.1,0.2,0,0.4,0.1,0.5l1.2,1.2c0.1,0.1,0.1,0.1,0.1,0.2l-0.3,1.8c0,0.2,0,0.3,0.1,0.4
				c0.1,0.2,0.4,0.2,0.6,0.1l1.5-0.8c0.1,0,0.1,0,0.2,0l1.5,0.8c0.1,0,0.2,0.1,0.2,0.1c0.1,0,0.3-0.1,0.4-0.2
				c0.1-0.1,0.1-0.3,0.1-0.4l-0.3-1.8c0-0.1,0-0.2,0.1-0.2L1534.5,1362.6z"/>
		</g>
	</g>
	<g id="Oval-Copy-22_5_">
		<g>
			<circle id="path-30_11_" class="st2" cx="1390.3" cy="1441.9" r="1.5"/>
		</g>
		<g>
			<circle id="path-30_10_" class="st9" cx="1390.3" cy="1441.9" r="1.5"/>
		</g>
	</g>
	
		<g id="Oval-Copy-20_2_" transform="translate(1700.060267, 183.088132) rotate(-28.000000) translate(-1700.060267, -183.088132) ">
		<g>
			<path id="path-45_5_" class="st2" d="M1117.8,1181.3c0.8,0,1.4-0.8,1.4-1.6c0-0.8-0.7-1.5-1.5-1.5c-0.8,0-1.5,0.7-1.5,1.5
				C1116.2,1180.5,1117,1181.3,1117.8,1181.3z"/>
		</g>
		<g>
			<path id="path-45_4_" class="st12" d="M1117.8,1181.3c0.8,0,1.4-0.8,1.4-1.6c0-0.8-0.7-1.5-1.5-1.5c-0.8,0-1.5,0.7-1.5,1.5
				C1116.2,1180.5,1117,1181.3,1117.8,1181.3z"/>
		</g>
	</g>
	<g id="Oval-Copy-18_6_" transform="translate(1608.968320, 178.977633) rotate(24.000000) translate(-1608.968320, -178.977633) ">
		<g>
			<path id="path-49_13_" class="st2" d="M2035.8,1254.5c1.7,0,3.1-1.4,3.1-3s-1.3-3-3-3c-1.7,0-3,1.3-3,3
				S2034.1,1254.5,2035.8,1254.5z"/>
		</g>
		<g>
			<path id="path-49_12_" class="st14" d="M2035.8,1254.5c1.7,0,3.1-1.4,3.1-3s-1.3-3-3-3c-1.7,0-3,1.3-3,3
				S2034.1,1254.5,2035.8,1254.5z"/>
		</g>
	</g>
	<g id="Oval-Copy-37_5_">
		<g>
			<circle id="path-38_11_" class="st2" cx="1596.7" cy="1439.9" r="1.5"/>
		</g>
		<g>
			<circle id="path-38_10_" class="st9" cx="1596.7" cy="1439.9" r="1.5"/>
		</g>
	</g>
	<g id="Path-Copy_5_">
		<g>
			<path id="path-54_11_" class="st2" d="M1554,1402.6c0.1-0.1,0.2-0.3,0.1-0.5c-0.1-0.2-0.2-0.3-0.4-0.4l-1.7-0.3
				c-0.1,0-0.1-0.1-0.2-0.1l-0.8-1.6c-0.1-0.2-0.3-0.3-0.5-0.3s-0.4,0.1-0.5,0.3l-0.8,1.6c0,0.1-0.1,0.1-0.2,0.1l-1.7,0.3
				c-0.2,0-0.3,0.2-0.4,0.4c-0.1,0.2,0,0.4,0.1,0.5l1.2,1.2c0.1,0.1,0.1,0.1,0.1,0.2l-0.3,1.8c0,0.2,0,0.3,0.1,0.4
				c0.1,0.2,0.4,0.2,0.6,0.1l1.5-0.8c0.1,0,0.1,0,0.2,0l1.5,0.8c0.1,0,0.2,0.1,0.2,0.1c0.1,0,0.3-0.1,0.4-0.2
				c0.1-0.1,0.1-0.3,0.1-0.4l-0.3-1.8c0-0.1,0-0.2,0.1-0.2L1554,1402.6z"/>
		</g>
		<g>
			
				<linearGradient id="path-54_20_" gradientUnits="userSpaceOnUse" x1="63.9506" y1="1312.229" x2="63.9506" y2="1311.229" gradientTransform="matrix(7.0001 0 0 -7 1102.9998 10585)">
				<stop  offset="0" style="stop-color:#D17AFF"/>
				<stop  offset="1" style="stop-color:#816DFF"/>
			</linearGradient>
			<path id="path-54_10_" class="st39" d="M1554,1402.6c0.1-0.1,0.2-0.3,0.1-0.5c-0.1-0.2-0.2-0.3-0.4-0.4l-1.7-0.3
				c-0.1,0-0.1-0.1-0.2-0.1l-0.8-1.6c-0.1-0.2-0.3-0.3-0.5-0.3s-0.4,0.1-0.5,0.3l-0.8,1.6c0,0.1-0.1,0.1-0.2,0.1l-1.7,0.3
				c-0.2,0-0.3,0.2-0.4,0.4c-0.1,0.2,0,0.4,0.1,0.5l1.2,1.2c0.1,0.1,0.1,0.1,0.1,0.2l-0.3,1.8c0,0.2,0,0.3,0.1,0.4
				c0.1,0.2,0.4,0.2,0.6,0.1l1.5-0.8c0.1,0,0.1,0,0.2,0l1.5,0.8c0.1,0,0.2,0.1,0.2,0.1c0.1,0,0.3-0.1,0.4-0.2
				c0.1-0.1,0.1-0.3,0.1-0.4l-0.3-1.8c0-0.1,0-0.2,0.1-0.2L1554,1402.6z"/>
		</g>
	</g>
	<g id="Oval-Copy-12_1_" class="st4">
		<g>
			<circle id="path-21_3_" class="st2" cx="609.4" cy="986.2" r="22.5"/>
		</g>
		<g>
			
				<linearGradient id="path-21_8_" gradientUnits="userSpaceOnUse" x1="-8.2163" y1="1486.7697" x2="-8.5128" y2="1487.5856" gradientTransform="matrix(45 0 0 -45 985 67907)">
				<stop  offset="0" style="stop-color:#0354D0"/>
				<stop  offset="0.7156" style="stop-color:#3099FF"/>
				<stop  offset="1" style="stop-color:#74B9FF"/>
			</linearGradient>
			<circle id="path-21_2_" class="st40" cx="609.4" cy="986.2" r="22.5"/>
		</g>
	</g>
	<g id="Oval-Copy_1_">
		<g>
			<path id="path-19_3_" class="st2" d="M130.4,1344.8c8.6,0,15.6-7.8,15.6-16.2c0-8.4-7-15.2-15.6-15.2s-15.6,6.8-15.6,15.2
				C114.8,1337,121.8,1344.8,130.4,1344.8z"/>
		</g>
		<g>
			
				<linearGradient id="path-19_7_" gradientUnits="userSpaceOnUse" x1="-24.1874" y1="1486.766" x2="-24.1874" y2="1486.2607" gradientTransform="matrix(62 0 0 -62 1630 93493)">
				<stop  offset="0" style="stop-color:#9795E7"/>
				<stop  offset="1" style="stop-color:#544EFA"/>
			</linearGradient>
			<path id="path-19_2_" class="st41" d="M130.4,1344.8c8.6,0,15.6-7.8,15.6-16.2c0-8.4-7-15.2-15.6-15.2s-15.6,6.8-15.6,15.2
				C114.8,1337,121.8,1344.8,130.4,1344.8z"/>
		</g>
	</g>
	<g id="Oval-Copy_2_">
		<g>
			<path id="path-19_5_" class="st2" d="M807.4,114.1c-0.1,0-0.1,0.1-0.1,0.1c0,0.1,0.1,0.1,0.1,0.1c0.1,0,0.1-0.1,0.1-0.1
				C807.5,114.1,807.4,114.1,807.4,114.1z"/>
		</g>
		<g>
			
				<linearGradient id="path-19_8_" gradientUnits="userSpaceOnUse" x1="-13.2681" y1="1506.3628" x2="-13.2681" y2="1505.8575" gradientTransform="matrix(-0.4638 0 0 0.4638 801.2261 -584.3887)">
				<stop  offset="0" style="stop-color:#9795E7"/>
				<stop  offset="1" style="stop-color:#544EFA"/>
			</linearGradient>
			<path id="path-19_4_" class="st42" d="M807.4,114.1c-0.1,0-0.1,0.1-0.1,0.1c0,0.1,0.1,0.1,0.1,0.1c0.1,0,0.1-0.1,0.1-0.1
				C807.5,114.1,807.4,114.1,807.4,114.1z"/>
		</g>
	</g>
	<g id="Oval-Copy-46_3_">
		<g>
			<circle id="path-34_7_" class="st2" cx="117.9" cy="380.6" r="1.5"/>
		</g>
		<g>
			<circle id="path-34_6_" class="st10" cx="117.9" cy="380.6" r="1.5"/>
		</g>
	</g>
	<g id="Oval-Copy-21_14_">
		<g>
			<circle id="path-40_11_" class="st2" cx="589.4" cy="392.1" r="4"/>
		</g>
		<g>
			<circle id="path-40_10_" class="st9" cx="589.4" cy="392.1" r="4"/>
		</g>
	</g>
	<g id="Path-Copy-2_1_">
		<g>
			<path id="path-56_3_" class="st2" d="M181.1,1210.6c0.2-0.2,0.3-0.6,0.2-0.9c-0.1-0.3-0.4-0.6-0.7-0.6l-2.9-0.4
				c-0.1,0-0.2-0.1-0.3-0.2l-1.3-2.7c-0.1-0.3-0.4-0.5-0.8-0.5c-0.3,0-0.6,0.2-0.8,0.5l-1.3,2.7c-0.1,0.1-0.2,0.2-0.3,0.2l-2.9,0.4
				c-0.3,0-0.6,0.3-0.7,0.6c-0.1,0.3,0,0.7,0.2,0.9l2.1,2.1c0.1,0.1,0.1,0.2,0.1,0.4l-0.5,3c0,0.3,0,0.5,0.2,0.7
				c0.3,0.3,0.7,0.4,1.1,0.2l2.6-1.4c0.1-0.1,0.2-0.1,0.4,0l2.6,1.4c0.1,0.1,0.3,0.1,0.4,0.1c0.3,0,0.5-0.1,0.7-0.3
				c0.2-0.2,0.2-0.5,0.2-0.7l-0.5-3c0-0.1,0-0.3,0.1-0.4L181.1,1210.6z"/>
		</g>
		<g>
			<path id="path-56_2_" class="st9" d="M181.1,1210.6c0.2-0.2,0.3-0.6,0.2-0.9c-0.1-0.3-0.4-0.6-0.7-0.6l-2.9-0.4
				c-0.1,0-0.2-0.1-0.3-0.2l-1.3-2.7c-0.1-0.3-0.4-0.5-0.8-0.5c-0.3,0-0.6,0.2-0.8,0.5l-1.3,2.7c-0.1,0.1-0.2,0.2-0.3,0.2l-2.9,0.4
				c-0.3,0-0.6,0.3-0.7,0.6c-0.1,0.3,0,0.7,0.2,0.9l2.1,2.1c0.1,0.1,0.1,0.2,0.1,0.4l-0.5,3c0,0.3,0,0.5,0.2,0.7
				c0.3,0.3,0.7,0.4,1.1,0.2l2.6-1.4c0.1-0.1,0.2-0.1,0.4,0l2.6,1.4c0.1,0.1,0.3,0.1,0.4,0.1c0.3,0,0.5-0.1,0.7-0.3
				c0.2-0.2,0.2-0.5,0.2-0.7l-0.5-3c0-0.1,0-0.3,0.1-0.4L181.1,1210.6z"/>
		</g>
	</g>
	<g id="Path-Copy-3_2_">
		<g>
			<path id="path-58_5_" class="st2" d="M811.2,667.8c0.1-0.1,0.2-0.3,0.1-0.5c-0.1-0.2-0.2-0.3-0.3-0.3l-1.5-0.2
				c-0.1,0-0.1,0-0.1-0.1l-0.6-1.4c-0.1-0.2-0.2-0.3-0.4-0.3c-0.2,0-0.3,0.1-0.4,0.3l-0.6,1.4c0,0.1-0.1,0.1-0.1,0.1l-1.5,0.2
				c-0.2,0-0.3,0.1-0.3,0.3c-0.1,0.2,0,0.3,0.1,0.5l1.1,1.1c0,0,0.1,0.1,0.1,0.2l-0.2,1.5c0,0.1,0,0.3,0.1,0.4
				c0.1,0.2,0.4,0.2,0.5,0.1l1.3-0.7c0.1,0,0.1,0,0.2,0l1.3,0.7c0.1,0,0.1,0.1,0.2,0.1c0.1,0,0.2-0.1,0.3-0.2
				c0.1-0.1,0.1-0.2,0.1-0.4l-0.2-1.5c0-0.1,0-0.1,0.1-0.2L811.2,667.8z"/>
		</g>
		<g>
			<path id="path-58_4_" class="st10" d="M811.2,667.8c0.1-0.1,0.2-0.3,0.1-0.5c-0.1-0.2-0.2-0.3-0.3-0.3l-1.5-0.2
				c-0.1,0-0.1,0-0.1-0.1l-0.6-1.4c-0.1-0.2-0.2-0.3-0.4-0.3c-0.2,0-0.3,0.1-0.4,0.3l-0.6,1.4c0,0.1-0.1,0.1-0.1,0.1l-1.5,0.2
				c-0.2,0-0.3,0.1-0.3,0.3c-0.1,0.2,0,0.3,0.1,0.5l1.1,1.1c0,0,0.1,0.1,0.1,0.2l-0.2,1.5c0,0.1,0,0.3,0.1,0.4
				c0.1,0.2,0.4,0.2,0.5,0.1l1.3-0.7c0.1,0,0.1,0,0.2,0l1.3,0.7c0.1,0,0.1,0.1,0.2,0.1c0.1,0,0.2-0.1,0.3-0.2
				c0.1-0.1,0.1-0.2,0.1-0.4l-0.2-1.5c0-0.1,0-0.1,0.1-0.2L811.2,667.8z"/>
		</g>
	</g>
	<g id="Oval-Copy-46_2_">
		<g>
			<circle id="path-34_5_" class="st2" cx="137.4" cy="420.6" r="1.5"/>
		</g>
		<g>
			<circle id="path-34_4_" class="st10" cx="137.4" cy="420.6" r="1.5"/>
		</g>
	</g>
</g>
<g id="Layer_1">
</g>
<g id="solar">
	<g class="st43">
		<g>
			<circle class="st44" cx="977" cy="805" r="999.5"/>
			<circle class="st44" cx="977" cy="805" r="832.9"/>
			<circle class="st44" cx="977" cy="805" r="666.3"/>
			<circle class="st44" cx="977" cy="805" r="499.8"/>
			<circle class="st44" cx="977" cy="805" r="333.2"/>
			<circle class="st44" cx="977" cy="805" r="166.6"/>
		</g>
		<g>
		</g>
	</g>
</g>
<g id="Layer_3">
</g>
<g id="Dev">
	<g>
		<linearGradient id="SVGID_1_" gradientUnits="userSpaceOnUse" x1="1449" y1="534.5" x2="1694" y2="534.5">
			<stop  offset="0" style="stop-color:#662D91"/>
			<stop  offset="1" style="stop-color:#FF7BAC"/>
		</linearGradient>
		<circle class="st45" cx="1571.5" cy="534.5" r="122.5"/>
		<path class="st46" d="M1565.3,601.9l-16.5-4.8c-1.7-0.5-2.7-2.3-2.2-4l36.9-127.2c0.5-1.7,2.3-2.7,4-2.2l16.5,4.8
			c1.7,0.5,2.7,2.3,2.2,4l-36.9,127.2C1568.8,601.4,1567,602.4,1565.3,601.9z M1534.4,571.5l11.8-12.6c1.2-1.3,1.2-3.4-0.2-4.7
			l-24.5-21.6l24.5-21.6c1.4-1.2,1.5-3.3,0.2-4.7l-11.8-12.6c-1.2-1.3-3.3-1.4-4.6-0.1l-39,36.5c-1.4,1.3-1.4,3.5,0,4.7l39,36.6
			C1531.2,572.9,1533.2,572.8,1534.4,571.5L1534.4,571.5z M1623,571.7l39-36.6c1.4-1.3,1.4-3.5,0-4.7l-39-36.6
			c-1.3-1.2-3.4-1.2-4.6,0.1l-11.8,12.6c-1.2,1.3-1.2,3.4,0.2,4.7l24.5,21.6l-24.5,21.6c-1.4,1.2-1.5,3.3-0.2,4.7l11.8,12.6
			C1619.6,572.8,1621.7,572.9,1623,571.7L1623,571.7z"/>
	</g>
</g>
<g id="design">
	<g>
		<linearGradient id="SVGID_2_" gradientUnits="userSpaceOnUse" x1="220" y1="564.5" x2="465" y2="564.5">
			<stop  offset="0" style="stop-color:#0071BC"/>
			<stop  offset="1" style="stop-color:#29ABE2"/>
		</linearGradient>
		<circle class="st47" cx="342.5" cy="564.5" r="122.5"/>
		<path class="st46" d="M301.2,564.2l38.1-38.1l-12.5-12.5l-17.5,17.5c-0.9,0.9-2.3,0.9-3.2,0c0,0,0,0,0,0l-3.2-3.2
			c-0.9-0.9-0.9-2.3,0-3.2l17.5-17.5l-9.5-9.5c-3.5-3.5-9.2-3.5-12.7,0l-25.4,25.4c-3.5,3.5-3.5,9.2,0,12.7L301.2,564.2L301.2,564.2
			z M411.1,531.1c5.3-5.3,5.3-13.9,0-19.2l-12.8-12.8c-5.3-5.3-13.9-5.3-19.2,0l-13,13l32,32L411.1,531.1L411.1,531.1z M359.6,518.5
			l-84,84l-5.3,30.4c-0.7,4.1,2.9,7.7,7,6.9l30.4-5.3l84-84L359.6,518.5z M412.4,599.3l-9.5-9.5l-17.5,17.5c-0.9,0.9-2.3,0.9-3.2,0
			l-3.2-3.2c-0.9-0.9-0.9-2.3,0-3.2l17.5-17.5l-12.5-12.5L346,609l28.4,28.4c3.5,3.5,9.2,3.5,12.7,0l25.4-25.4
			C415.9,608.5,415.9,602.8,412.4,599.3L412.4,599.3z"/>
	</g>
</g>
<g id="Layer_6">
</g>
<g id="Layer_13">
	<g>
		<linearGradient id="SVGID_3_" gradientUnits="userSpaceOnUse" x1="292" y1="1137.5" x2="537" y2="1137.5">
			<stop  offset="0" style="stop-color:#ED1E79"/>
			<stop  offset="1" style="stop-color:#9E005D"/>
		</linearGradient>
		<circle class="st48" cx="414.5" cy="1137.5" r="122.5"/>
		<path class="st46" d="M481,1141.2c-0.1,4.6-4,8.2-8.6,8.2h-14.6v4.2c0,5.8-1.3,11.2-3.6,16.1l15.9,15.9c3.3,3.3,3.3,8.6,0,11.9
			c-3.3,3.3-8.6,3.3-11.9,0l-14.4-14.4c-6.5,5.3-14.8,8.5-23.9,8.5v-64.3c0-1.7-1.4-3.2-3.2-3.2h-6.3c-1.7,0-3.2,1.4-3.2,3.2v64.3
			c-9.1,0-17.4-3.2-23.9-8.5l-14.4,14.4c-3.3,3.3-8.6,3.3-11.9,0c-3.3-3.3-3.3-8.6,0-11.9l15.9-15.9c-2.3-4.9-3.6-10.4-3.6-16.1
			v-4.2h-14.6c-4.6,0-8.5-3.6-8.6-8.2c-0.1-4.8,3.7-8.7,8.4-8.7h14.8V1117l-12.3-12.3c-3.3-3.3-3.3-8.6,0-11.9
			c3.3-3.3,8.6-3.3,11.9,0l14.4,14.4h60.5l14.4-14.4c3.3-3.3,8.6-3.3,11.9,0c3.3,3.3,3.3,8.6,0,11.9l-12.3,12.3v15.5h14.8
			C477.4,1132.5,481.2,1136.4,481,1141.2z M413.8,1065c-16.3,0-29.5,13.2-29.5,29.5h59C443.4,1078.3,430.1,1065,413.8,1065z"/>
	</g>
</g>
<g id="Marketing">
	<linearGradient id="SVGID_4_" gradientUnits="userSpaceOnUse" x1="1455" y1="1108.5" x2="1700" y2="1108.5">
		<stop  offset="0" style="stop-color:#39B54A"/>
		<stop  offset="1" style="stop-color:#8CC63F"/>
	</linearGradient>
	<circle class="st49" cx="1577.5" cy="1108.5" r="122.5"/>
	<path class="st46" d="M1656.2,1145.4h-132.6v-93.3c0-2.7-2.2-4.9-4.9-4.9h-9.8c-2.7,0-4.9,2.2-4.9,4.9v103.1c0,5.4,4.4,9.8,9.8,9.8
		h142.4c2.7,0,4.9-2.2,4.9-4.9v-9.8C1661.1,1147.6,1658.9,1145.4,1656.2,1145.4z M1646.4,1057h-36.2c-6.6,0-9.8,7.9-5.2,12.6
		l9.9,9.9l-22.5,22.5l-22.5-22.5c-3.8-3.8-10.1-3.8-13.9,0l-21.1,21.1c-1.9,1.9-1.9,5,0,6.9l6.9,6.9c1.9,1.9,5,1.9,6.9,0l14.1-14.1
		l22.5,22.5c3.8,3.8,10.1,3.8,13.9,0l29.5-29.5l9.9,9.9c4.6,4.6,12.6,1.4,12.6-5.2v-36.2C1651.3,1059.2,1649.1,1057,1646.4,1057z"/>
</g>
<g id="WP">
	<g>
		
			<image style="overflow:visible;opacity:0.75;" width="275" height="275" xlink:href="D269B2FA27B6D638.png"  transform="matrix(1 0 0 1 851 157)">
		</image>
		<g>
			<linearGradient id="SVGID_5_" gradientUnits="userSpaceOnUse" x1="866" y1="294.5" x2="1111" y2="294.5">
				<stop  offset="0" style="stop-color:#6965F4"/>
				<stop  offset="1" style="stop-color:#933FFF"/>
			</linearGradient>
			<circle class="st50" cx="988.5" cy="294.5" r="122.5"/>
		</g>
	</g>
	<path class="st46" d="M919.9,263.9l35.3,96.7c-24.7-12-41.7-37.3-41.7-66.6C913.5,283.3,915.8,273.2,919.9,263.9z M1037.5,290.3
		c0-9.1-3.3-15.5-6.1-20.4c-3.8-6.1-7.3-11.3-7.3-17.4c0-6.8,5.1-13.2,12.4-13.2c0.3,0,0.6,0,1,0.1c-13.2-12.1-30.7-19.4-50-19.4
		c-25.8,0-48.6,13.3-61.9,33.4c1.7,0.1,3.4,0.1,4.8,0.1c7.7,0,19.7-0.9,19.7-0.9c4-0.2,4.5,5.6,0.5,6.1c0,0-4,0.5-8.5,0.7l27,80.2
		l16.2-48.6l-11.5-31.6c-4-0.2-7.8-0.7-7.8-0.7c-4-0.2-3.5-6.3,0.5-6.1c0,0,12.2,0.9,19.5,0.9c7.7,0,19.7-0.9,19.7-0.9
		c4-0.2,4.5,5.6,0.5,6.1c0,0-4,0.5-8.5,0.7l26.8,79.6l7.4-24.7C1035.1,304,1037.5,296.7,1037.5,290.3L1037.5,290.3z M988.8,300.5
		l-22.2,64.5c6.6,1.9,13.6,3,20.9,3c8.6,0,16.9-1.5,24.6-4.2c-0.2-0.3-0.4-0.7-0.5-1L988.8,300.5z M1052.5,258.6
		c0.3,2.4,0.5,4.9,0.5,7.6c0,7.5-1.4,15.9-5.6,26.5l-22.6,65.4c22-12.8,36.8-36.7,36.8-64C1061.5,281.2,1058.3,269.1,1052.5,258.6
		L1052.5,258.6z M1073.8,294.1c0,47.6-38.7,86.3-86.3,86.3c-47.6,0-86.3-38.7-86.3-86.3c0-47.6,38.7-86.3,86.3-86.3
		C1035.1,207.8,1073.8,246.5,1073.8,294.1z M1069.9,294.1c0-45.4-36.9-82.3-82.3-82.3c-45.4,0-82.3,36.9-82.3,82.3
		s36.9,82.3,82.3,82.3C1032.9,376.4,1069.9,339.5,1069.9,294.1z"/>
</g>
<g id="Layer_9">
</g>
<g id="Speed">
	<linearGradient id="SVGID_6_" gradientUnits="userSpaceOnUse" x1="854" y1="1304.5" x2="1099" y2="1304.5">
		<stop  offset="0" style="stop-color:#F15A24"/>
		<stop  offset="1" style="stop-color:#FBB03B"/>
	</linearGradient>
	<circle class="st51" cx="976.5" cy="1304.5" r="122.5"/>
	<g id="Layer_12">
		<path class="st46" d="M1031.2,1246.9c-0.3-1.6-1.8-3.1-3.3-3.4c-8.6-1.9-15.4-1.9-22.1-1.9c-27.7,0-44.3,15.6-56.7,36.1h-28
			c-4.4,0-9.5,3.4-11.5,7.5l-13.3,27.9c-0.4,1-0.6,2-0.7,3c0,3.7,2.9,6.8,6.4,6.8H930l-6,6.3c-3.1,3.2-3.5,9.1,0,12.8l13.7,14.4
			c3,3.2,8.6,3.7,12.2,0l6-6.3v29.3c0,3.7,2.9,6.8,6.4,6.8c1,0,2-0.3,2.9-0.7l26.5-13.9c3.9-2.1,7.1-7.5,7.1-12.1v-29.5
			c19.5-13.1,34.4-30.6,34.4-59.6C1033.1,1263.1,1033.1,1256,1031.2,1246.9z M998.7,1288.9c-5.9,0-10.7-5.1-10.7-11.3
			c0-6.2,4.8-11.3,10.7-11.3c5.9,0,10.7,5.1,10.7,11.3C1009.5,1283.9,1004.7,1288.9,998.7,1288.9z"/>
	</g>
</g>
<g id="Layer_16">
	<g>
		<path class="st52" d="M876.9,885.4c-0.2,1.1-0.4,1.8-0.4,2.1c0,1.3,0.3,2.3,0.9,2.9c0.6,0.6,1.1,1,1.5,1.2
			c1.8,0.8,4.3,1.8,7.4,2.8c3.1,1,6.3,2,9.6,3c3.3,1,6.4,1.8,9.4,2.4c3,0.7,5.4,1,7.1,1c1.8,0,2.9-0.5,3.1-1.5l17.9-75.8l3.9-17.9
			c1.8,7.3,3.4,13.4,4.6,18.4c1.3,5,2.4,9.3,3.5,13c1,3.7,2,6.9,2.8,9.7c0.8,2.8,1.7,5.7,2.7,8.7c0.9,3,2,6.3,3.1,9.9
			c0.8,2.5,1.7,5.4,2.7,8.8l-0.9,9l-9.6,84.9c-38.4-7.2-72.2-27.7-96.3-56.5c-24.1-28.8-38.7-65.9-38.7-106.4
			c0-45.8,18.6-87.2,48.5-117.2c30-30,71.4-48.5,117.2-48.5c1.3,0,2.6,0.1,3.9,0.1L967.6,770l-18-57.8c-0.2-1.2-0.8-1.8-1.7-2.1
			c-0.9-0.2-1.9-0.3-3-0.3l-31,9.6c0,0.2-0.1,0.9-0.4,2.1c-0.3,1.2-0.6,2.9-1,4.8c-0.4,2-0.9,4.2-1.4,6.6c-0.5,2.4-1.1,4.9-1.7,7.5
			l-4.6,20.1l-15.3,71.2c-0.6,2.4-1.2,5.4-1.8,8.9c-0.6,3.5-1.3,7.3-2,11.2c-0.8,3.9-1.6,7.7-2.4,11.5c-0.9,3.8-1.8,7.1-2.9,9.9
			c-0.4,1.2-0.8,2.5-1.3,4c-0.4,1.5-0.9,3-1.2,4.4C877.5,883.1,877.2,884.4,876.9,885.4z"/>
		<path class="st52" d="M1142.7,805.2c0,45.8-18.6,87.2-48.6,117.2c-30,30-71.4,48.6-117.2,48.6c-4.8,0-9.6-0.3-14.3-0.7l9.6-85.3
			l0.7-6.9l45.7-83.7l4.8,36.2c0.5,4.3,0.9,8.5,1.4,12.6c0.4,4.1,0.9,8.2,1.4,12.3c0.6,4.9,1.1,10,1.6,15.3c0.4,5.3,1,10.2,1.8,14.6
			c0.8,4.5,1.7,8.1,2.9,11c1.2,2.9,2.7,4.3,4.7,4.3c0.1,0,1.1-0.2,3-0.7c1.9-0.4,4.3-1,7.1-1.8c2.8-0.7,5.9-1.6,9.2-2.5
			c3.3-0.9,6.4-1.8,9.2-2.8c2.8-0.9,5.2-1.8,7.2-2.7c2-0.8,3.1-1.5,3.2-2.1l1.2-3.9l-8.3-67.1c-0.6-4.2-1.6-10.7-3-19.6
			c-1.4-8.8-3-20.6-4.8-35.2c-0.1-0.6-0.3-1.9-0.6-4c-0.3-2.1-0.7-4.6-1.1-7.6c-0.4-2.9-0.9-6.1-1.4-9.6c-0.5-3.5-1-6.8-1.5-10.1
			c-0.4-3.3-0.9-6.2-1.2-8.9c-0.4-2.7-0.6-4.8-0.8-6.3c-0.3-2.4-1-4.1-1.9-5c-0.9-0.9-2.1-1.4-3.6-1.4c-0.3,0-0.7,0-1,0.1
			c-0.4,0-0.8,0.1-1.2,0.2l-38.7,10.4l-23.9,50.4l13.2-130c40.9,5,77.3,25,103.3,54.3C1126.9,724.3,1142.7,762.9,1142.7,805.2z"/>
	</g>
</g>
</svg>
