<?xml version="1.0" encoding="utf-8"?>
<!-- Generator: Adobe Illustrator 24.0.1, SVG Export Plug-In . SVG Version: 6.00 Build 0)  -->
<svg version="1.1" xmlns="http://www.w3.org/2000/svg" xmlns:xlink="http://www.w3.org/1999/xlink" x="0px" y="0px"
	 viewBox="0 0 200 200" style="enable-background:new 0 0 200 200;" xml:space="preserve">
<style type="text/css">
	.st0{fill:#03A6FF;}
</style>
<g id="Layer_1">
</g>
<g id="Layer_2">
	<g>
		<path class="st0" d="M44.4,145.6c-0.1,0.6-0.2,1-0.2,1.2c0,0.8,0.2,1.3,0.5,1.7c0.4,0.4,0.6,0.6,0.9,0.7c1,0.5,2.4,1,4.2,1.6
			s3.5,1.1,5.4,1.7c1.8,0.5,3.6,1,5.3,1.4c1.7,0.4,3.1,0.6,4,0.6c1,0,1.6-0.3,1.8-0.8l10.1-42.9l2.2-10.1c1,4.1,1.9,7.6,2.6,10.4
			c0.7,2.8,1.4,5.3,2,7.4c0.6,2.1,1.1,3.9,1.6,5.5c0.5,1.6,1,3.2,1.5,4.9c0.5,1.7,1.1,3.5,1.8,5.6c0.4,1.4,0.9,3.1,1.5,5l-0.5,5.1
			l-5.4,48c-21.7-4.1-40.8-15.7-54.5-31.9c-13.7-16.3-21.9-37.3-21.9-60.2c0-25.9,10.5-49.3,27.5-66.3C51.6,17,75.1,6.5,101,6.5
			c0.7,0,1.5,0,2.2,0.1l-7.5,73.8L85.5,47.6c-0.1-0.7-0.5-1-0.9-1.2c-0.5-0.1-1.1-0.2-1.7-0.2l-17.5,5.4c0,0.1-0.1,0.5-0.2,1.2
			c-0.1,0.7-0.3,1.6-0.6,2.7c-0.2,1.1-0.5,2.4-0.8,3.8c-0.3,1.4-0.6,2.8-0.9,4.2L60.2,75l-8.6,40.3c-0.3,1.4-0.7,3-1,5
			c-0.4,2-0.7,4.1-1.2,6.3c-0.4,2.2-0.9,4.4-1.4,6.5c-0.5,2.1-1,4-1.7,5.6c-0.2,0.7-0.5,1.4-0.7,2.2c-0.3,0.8-0.5,1.7-0.7,2.5
			C44.7,144.3,44.5,145,44.4,145.6z"/>
		<path class="st0" d="M194.7,100.2c0,25.9-10.5,49.3-27.5,66.3c-17,17-40.4,27.5-66.3,27.5c-2.7,0-5.4-0.1-8.1-0.4l5.4-48.3
			l0.4-3.9l25.9-47.3l2.7,20.5c0.3,2.4,0.5,4.8,0.8,7.2c0.2,2.3,0.5,4.7,0.8,6.9c0.3,2.8,0.6,5.6,0.9,8.6c0.3,3,0.6,5.7,1,8.3
			c0.4,2.5,1,4.6,1.6,6.2c0.7,1.6,1.5,2.5,2.7,2.5c0,0,0.6-0.1,1.7-0.4c1.1-0.3,2.4-0.6,4-1c1.6-0.4,3.3-0.9,5.2-1.4
			c1.9-0.5,3.6-1,5.2-1.6c1.6-0.5,3-1,4.1-1.5c1.1-0.5,1.7-0.9,1.8-1.2l0.7-2.2l-4.7-37.9c-0.3-2.4-0.9-6.1-1.7-11.1
			c-0.8-5-1.7-11.6-2.7-19.9c0-0.3-0.2-1.1-0.3-2.3c-0.2-1.2-0.4-2.6-0.6-4.3c-0.2-1.7-0.5-3.5-0.8-5.4c-0.3-2-0.6-3.9-0.8-5.7
			c-0.3-1.8-0.5-3.5-0.7-5c-0.2-1.5-0.4-2.7-0.5-3.5c-0.2-1.4-0.5-2.3-1.1-2.8c-0.5-0.5-1.2-0.8-2-0.8c-0.2,0-0.4,0-0.6,0
			c-0.2,0-0.4,0.1-0.7,0.1l-21.9,5.9l-13.5,28.5l7.5-73.5c23.2,2.9,43.7,14.2,58.5,30.7C185.8,54.5,194.7,76.3,194.7,100.2z"/>
	</g>
</g>
</svg>
