<?xml version="1.0" encoding="utf-8"?>
<!-- Generator: Adobe Illustrator 24.0.1, SVG Export Plug-In . SVG Version: 6.00 Build 0)  -->
<svg version="1.1" xmlns="http://www.w3.org/2000/svg" xmlns:xlink="http://www.w3.org/1999/xlink" x="0px" y="0px"
	 viewBox="0 0 1920 900" style="enable-background:new 0 0 1920 900;" xml:space="preserve">
<style type="text/css">
	.st0{fill:#FF931E;}
	.st1{fill:#E6E6E6;}
	.st2{fill:#2E3192;}
	.st3{fill:#8CC63F;}
	.st4{fill:#6C63FF;}
	.st5{fill:#FF7BAC;}
	.st6{opacity:0.9;fill:#8CC63F;enable-background:new    ;}
	.st7{opacity:0.4;fill:#6C63FF;enable-background:new    ;}
	.st8{opacity:0.4;fill:#D9E021;enable-background:new    ;}
	.st9{opacity:0.4;fill:#F7931E;enable-background:new    ;}
	.st10{fill:#29ABE2;}
	.st11{fill:#3FA9F5;}
	.st12{fill-rule:evenodd;clip-rule:evenodd;}
	.st13{fill-rule:evenodd;clip-rule:evenodd;fill:#09CBF9;}
	.st14{fill-rule:evenodd;clip-rule:evenodd;fill:#FFCF26;}
	.st15{fill-rule:evenodd;clip-rule:evenodd;fill:#B8E986;}
	.st16{fill-rule:evenodd;clip-rule:evenodd;fill:#D8D8D8;}
	.st17{fill-rule:evenodd;clip-rule:evenodd;fill:#FFFFFF;}
	.st18{fill-rule:evenodd;clip-rule:evenodd;fill:url(#path-51_2_);}
	.st19{fill-rule:evenodd;clip-rule:evenodd;fill:url(#path-54_2_);}
	.st20{fill-rule:evenodd;clip-rule:evenodd;fill:url(#path-43_9_);}
	.st21{fill-rule:evenodd;clip-rule:evenodd;fill:url(#path-51_3_);}
	.st22{fill-rule:evenodd;clip-rule:evenodd;fill:url(#path-43_10_);}
	.st23{fill-rule:evenodd;clip-rule:evenodd;fill:url(#path-54_3_);}
	.st24{opacity:0.1863;}
	.st25{fill-rule:evenodd;clip-rule:evenodd;fill:url(#path-21_5_);}
	.st26{fill-rule:evenodd;clip-rule:evenodd;fill:#8CC63F;}
	.st27{fill-rule:evenodd;clip-rule:evenodd;fill:url(#path-43_11_);}
	.st28{fill-rule:evenodd;clip-rule:evenodd;fill:url(#path-43_12_);}
	.st29{fill-rule:evenodd;clip-rule:evenodd;fill:url(#path-43_13_);}
	.st30{fill-rule:evenodd;clip-rule:evenodd;fill:url(#path-43_18_);}
</style>
<g id="Layer_1">
	<rect x="675" y="705.1" class="st0" width="17.6" height="16.9"/>
	<rect x="565" y="170.1" class="st1" width="11.9" height="11.9"/>
	<rect x="550.3" y="829" class="st1" width="21" height="20.9"/>
	<rect x="265" y="316.5" class="st2" width="13.1" height="12.3"/>
	<rect x="187.9" y="769.2" class="st3" width="16.4" height="15.8"/>
	<rect x="794.3" y="56.2" class="st4" width="12.3" height="11.8"/>
	<rect x="1702.7" y="113.1" transform="matrix(0.866 -0.5 0.5 0.866 167.9952 872.9431)" class="st5" width="20.5" height="19.7"/>
	<circle class="st6" cx="1284.4" cy="163.4" r="7.6"/>
	<circle class="st7" cx="346.1" cy="600.6" r="10.4"/>
	<circle class="st8" cx="1820.7" cy="645.5" r="13.7"/>
	<circle class="st7" cx="1831.1" cy="303.8" r="10.4"/>
	<circle class="st9" cx="1310" cy="744.6" r="13.7"/>
	
		<rect x="112" y="108.5" transform="matrix(0.766 -0.6428 0.6428 0.766 -47.3818 105.638)" class="st10" width="18.9" height="18.9"/>
	<rect x="1600" y="311" class="st11" width="12" height="12"/>
	<g id="Oval-Copy-22">
		<g>
			<circle id="path-30" class="st12" cx="626.7" cy="571.2" r="1.5"/>
		</g>
		<g>
			<circle id="path-30_1_" class="st13" cx="626.7" cy="571.2" r="1.5"/>
		</g>
	</g>
	<g id="Oval-Copy-36">
		<g>
			<circle id="path-32" class="st12" cx="1135.7" cy="322.2" r="1.5"/>
		</g>
		<g>
			<circle id="path-32_1_" class="st13" cx="1135.7" cy="322.2" r="1.5"/>
		</g>
	</g>
	<g id="Oval-Copy-46">
		<g>
			<circle id="path-34" class="st12" cx="1263.7" cy="493.2" r="1.5"/>
		</g>
		<g>
			<circle id="path-34_1_" class="st14" cx="1263.7" cy="493.2" r="1.5"/>
		</g>
	</g>
	<g id="Oval-Copy-37">
		<g>
			<circle id="path-38" class="st12" cx="577.7" cy="423.2" r="1.5"/>
		</g>
		<g>
			<circle id="path-38_1_" class="st13" cx="577.7" cy="423.2" r="1.5"/>
		</g>
	</g>
	<g id="Oval-Copy-21">
		<g>
			<circle id="path-40" class="st12" cx="1371.2" cy="529.7" r="4"/>
		</g>
		<g>
			<circle id="path-40_1_" class="st13" cx="1371.2" cy="529.7" r="4"/>
		</g>
	</g>
	<g id="Oval-Copy-20" transform="translate(1700.060267, 183.088132) rotate(-28.000000) translate(-1700.060267, -183.088132) ">
		<g>
			<path id="path-45" class="st12" d="M852.4,54.1c0.8,0,1.4-0.8,1.4-1.6c0-0.8-0.7-1.5-1.5-1.5c-0.8,0-1.5,0.7-1.5,1.5
				S851.5,54.1,852.4,54.1z"/>
		</g>
		<g>
			<path id="path-45_1_" class="st15" d="M852.4,54.1c0.8,0,1.4-0.8,1.4-1.6c0-0.8-0.7-1.5-1.5-1.5c-0.8,0-1.5,0.7-1.5,1.5
				S851.5,54.1,852.4,54.1z"/>
		</g>
	</g>
	<g id="Oval-Copy-17">
		<g>
			<circle id="path-47" class="st12" cx="501.2" cy="571.7" r="2"/>
		</g>
		<g>
			<circle id="path-47_1_" class="st16" cx="501.2" cy="571.7" r="2"/>
		</g>
	</g>
	<g id="Oval-Copy-18" transform="translate(1608.968320, 178.977633) rotate(24.000000) translate(-1608.968320, -178.977633) ">
		<g>
			<path id="path-49" class="st12" d="M984,769.7c1.7,0,3.1-1.4,3.1-3s-1.3-3-3-3c-1.7,0-3,1.3-3,3
				C981.1,768.3,982.4,769.7,984,769.7z"/>
		</g>
		<g>
			<path id="path-49_1_" class="st17" d="M984,769.7c1.7,0,3.1-1.4,3.1-3s-1.3-3-3-3c-1.7,0-3,1.3-3,3
				C981.1,768.3,982.4,769.7,984,769.7z"/>
		</g>
	</g>
	<g id="Path">
		<g>
			<path id="path-51" class="st12" d="M923,403.3c0.2-0.2,0.2-0.4,0.1-0.6c-0.1-0.2-0.2-0.4-0.5-0.4l-1.9-0.3
				c-0.1,0-0.2-0.1-0.2-0.1l-0.9-1.8c-0.1-0.2-0.3-0.3-0.5-0.3s-0.4,0.1-0.5,0.3l-0.9,1.8c0,0.1-0.1,0.1-0.2,0.1l-1.9,0.3
				c-0.2,0-0.4,0.2-0.5,0.4c-0.1,0.2,0,0.5,0.1,0.6l1.4,1.4c0.1,0.1,0.1,0.1,0.1,0.2l-0.3,2c0,0.2,0,0.3,0.1,0.5
				c0.2,0.2,0.5,0.3,0.7,0.1l1.7-1c0.1,0,0.2,0,0.2,0l1.7,1c0.1,0,0.2,0.1,0.3,0.1c0.2,0,0.3-0.1,0.4-0.2c0.1-0.1,0.2-0.3,0.1-0.5
				l-0.3-2c0-0.1,0-0.2,0.1-0.2L923,403.3z"/>
		</g>
		<g>
			
				<linearGradient id="path-51_2_" gradientUnits="userSpaceOnUse" x1="-32.8537" y1="1134.0349" x2="-32.8537" y2="1133.0349" gradientTransform="matrix(8.0001 0 0 -8 1181.9998 9472)">
				<stop  offset="0" style="stop-color:#FFF546"/>
				<stop  offset="1" style="stop-color:#FF852F"/>
			</linearGradient>
			<path id="path-51_1_" class="st18" d="M923,403.3c0.2-0.2,0.2-0.4,0.1-0.6c-0.1-0.2-0.2-0.4-0.5-0.4l-1.9-0.3
				c-0.1,0-0.2-0.1-0.2-0.1l-0.9-1.8c-0.1-0.2-0.3-0.3-0.5-0.3s-0.4,0.1-0.5,0.3l-0.9,1.8c0,0.1-0.1,0.1-0.2,0.1l-1.9,0.3
				c-0.2,0-0.4,0.2-0.5,0.4c-0.1,0.2,0,0.5,0.1,0.6l1.4,1.4c0.1,0.1,0.1,0.1,0.1,0.2l-0.3,2c0,0.2,0,0.3,0.1,0.5
				c0.2,0.2,0.5,0.3,0.7,0.1l1.7-1c0.1,0,0.2,0,0.2,0l1.7,1c0.1,0,0.2,0.1,0.3,0.1c0.2,0,0.3-0.1,0.4-0.2c0.1-0.1,0.2-0.3,0.1-0.5
				l-0.3-2c0-0.1,0-0.2,0.1-0.2L923,403.3z"/>
		</g>
	</g>
	<g id="Path-Copy">
		<g>
			<path id="path-54" class="st12" d="M535,385.9c0.1-0.1,0.2-0.3,0.1-0.5c-0.1-0.2-0.2-0.3-0.4-0.4l-1.7-0.3
				c-0.1,0-0.1-0.1-0.2-0.1l-0.8-1.6c-0.1-0.2-0.3-0.3-0.5-0.3s-0.4,0.1-0.5,0.3l-0.8,1.6c0,0.1-0.1,0.1-0.2,0.1l-1.7,0.3
				c-0.2,0-0.3,0.2-0.4,0.4c-0.1,0.2,0,0.4,0.1,0.5l1.2,1.2c0.1,0.1,0.1,0.1,0.1,0.2l-0.3,1.8c0,0.2,0,0.3,0.1,0.4
				c0.1,0.2,0.4,0.2,0.6,0.1l1.5-0.8c0.1,0,0.1,0,0.2,0l1.5,0.8c0.1,0,0.2,0.1,0.2,0.1c0.1,0,0.3-0.1,0.4-0.2
				c0.1-0.1,0.1-0.3,0.1-0.4l-0.3-1.8c0-0.1,0-0.2,0.1-0.2L535,385.9z"/>
		</g>
		<g>
			
				<linearGradient id="path-54_2_" gradientUnits="userSpaceOnUse" x1="-81.6177" y1="1111.1827" x2="-81.6177" y2="1110.1827" gradientTransform="matrix(7.0001 0 0 -7 1102.9998 8161)">
				<stop  offset="0" style="stop-color:#D17AFF"/>
				<stop  offset="1" style="stop-color:#816DFF"/>
			</linearGradient>
			<path id="path-54_1_" class="st19" d="M535,385.9c0.1-0.1,0.2-0.3,0.1-0.5c-0.1-0.2-0.2-0.3-0.4-0.4l-1.7-0.3
				c-0.1,0-0.1-0.1-0.2-0.1l-0.8-1.6c-0.1-0.2-0.3-0.3-0.5-0.3s-0.4,0.1-0.5,0.3l-0.8,1.6c0,0.1-0.1,0.1-0.2,0.1l-1.7,0.3
				c-0.2,0-0.3,0.2-0.4,0.4c-0.1,0.2,0,0.4,0.1,0.5l1.2,1.2c0.1,0.1,0.1,0.1,0.1,0.2l-0.3,1.8c0,0.2,0,0.3,0.1,0.4
				c0.1,0.2,0.4,0.2,0.6,0.1l1.5-0.8c0.1,0,0.1,0,0.2,0l1.5,0.8c0.1,0,0.2,0.1,0.2,0.1c0.1,0,0.3-0.1,0.4-0.2
				c0.1-0.1,0.1-0.3,0.1-0.4l-0.3-1.8c0-0.1,0-0.2,0.1-0.2L535,385.9z"/>
		</g>
	</g>
	<g id="Path-Copy-3">
		<g>
			<path id="path-58" class="st12" d="M1313,382.4c0.1-0.1,0.2-0.3,0.1-0.5c-0.1-0.2-0.2-0.3-0.3-0.3l-1.5-0.2c-0.1,0-0.1,0-0.1-0.1
				l-0.6-1.4c-0.1-0.2-0.2-0.3-0.4-0.3c-0.2,0-0.3,0.1-0.4,0.3l-0.6,1.4c0,0.1-0.1,0.1-0.1,0.1l-1.5,0.2c-0.2,0-0.3,0.1-0.3,0.3
				c-0.1,0.2,0,0.3,0.1,0.5l1.1,1.1c0,0,0.1,0.1,0.1,0.2l-0.2,1.5c0,0.1,0,0.3,0.1,0.4c0.1,0.2,0.4,0.2,0.5,0.1l1.3-0.7
				c0.1,0,0.1,0,0.2,0l1.3,0.7c0.1,0,0.1,0.1,0.2,0.1c0.1,0,0.2-0.1,0.3-0.2c0.1-0.1,0.1-0.2,0.1-0.4l-0.2-1.5c0-0.1,0-0.1,0.1-0.2
				L1313,382.4z"/>
		</g>
		<g>
			<path id="path-58_1_" class="st14" d="M1313,382.4c0.1-0.1,0.2-0.3,0.1-0.5c-0.1-0.2-0.2-0.3-0.3-0.3l-1.5-0.2
				c-0.1,0-0.1,0-0.1-0.1l-0.6-1.4c-0.1-0.2-0.2-0.3-0.4-0.3c-0.2,0-0.3,0.1-0.4,0.3l-0.6,1.4c0,0.1-0.1,0.1-0.1,0.1l-1.5,0.2
				c-0.2,0-0.3,0.1-0.3,0.3c-0.1,0.2,0,0.3,0.1,0.5l1.1,1.1c0,0,0.1,0.1,0.1,0.2l-0.2,1.5c0,0.1,0,0.3,0.1,0.4
				c0.1,0.2,0.4,0.2,0.5,0.1l1.3-0.7c0.1,0,0.1,0,0.2,0l1.3,0.7c0.1,0,0.1,0.1,0.2,0.1c0.1,0,0.2-0.1,0.3-0.2
				c0.1-0.1,0.1-0.2,0.1-0.4l-0.2-1.5c0-0.1,0-0.1,0.1-0.2L1313,382.4z"/>
		</g>
	</g>
	<g id="Oval-Copy-22_2_">
		<g>
			<circle id="path-30_5_" class="st12" cx="852.3" cy="309.2" r="1.5"/>
		</g>
		<g>
			<circle id="path-30_4_" class="st13" cx="852.3" cy="309.2" r="1.5"/>
		</g>
	</g>
	<g id="Oval-Copy-17_3_">
		<g>
			<circle id="path-47_7_" class="st12" cx="726.8" cy="309.7" r="2"/>
		</g>
		<g>
			<circle id="path-47_6_" class="st16" cx="726.8" cy="309.7" r="2"/>
		</g>
	</g>
	<g id="Oval-Copy-37_3_">
		<g>
			<circle id="path-38_7_" class="st12" cx="1114.1" cy="807.2" r="1.5"/>
		</g>
		<g>
			<circle id="path-38_6_" class="st13" cx="1114.1" cy="807.2" r="1.5"/>
		</g>
	</g>
	<g id="Oval-Copy-21_11_">
		<g>
			<circle id="path-40_7_" class="st12" cx="935.6" cy="731.7" r="4"/>
		</g>
		<g>
			<circle id="path-40_6_" class="st13" cx="935.6" cy="731.7" r="4"/>
		</g>
	</g>
	<g id="Oval-Copy-21_10_">
		<g>
			<circle id="path-43_15_" class="st12" cx="1145.1" cy="218.2" r="3.5"/>
		</g>
		<g>
			
				<linearGradient id="path-43_9_" gradientUnits="userSpaceOnUse" x1="-19.7045" y1="1139.3256" x2="-19.7045" y2="1138.3256" gradientTransform="matrix(7 0 0 -7 1283 8190)">
				<stop  offset="0" style="stop-color:#FFF546"/>
				<stop  offset="1" style="stop-color:#FF852F"/>
			</linearGradient>
			<circle id="path-43_14_" class="st20" cx="1145.1" cy="218.2" r="3.5"/>
		</g>
	</g>
	<g id="Oval-Copy-22_4_">
		<g>
			<circle id="path-30_9_" class="st12" cx="646.2" cy="611.2" r="1.5"/>
		</g>
		<g>
			<circle id="path-30_8_" class="st13" cx="646.2" cy="611.2" r="1.5"/>
		</g>
	</g>
	<g id="Oval-Copy-46_1_">
		<g>
			<circle id="path-34_3_" class="st12" cx="1283.2" cy="533.2" r="1.5"/>
		</g>
		<g>
			<circle id="path-34_2_" class="st14" cx="1283.2" cy="533.2" r="1.5"/>
		</g>
	</g>
	<g id="Oval-Copy-21_13_">
		<g>
			<circle id="path-40_9_" class="st12" cx="1059.7" cy="589.7" r="4"/>
		</g>
		<g>
			<circle id="path-40_8_" class="st13" cx="1059.7" cy="589.7" r="4"/>
		</g>
	</g>
	
		<g id="Oval-Copy-20_1_" transform="translate(1700.060267, 183.088132) rotate(-28.000000) translate(-1700.060267, -183.088132) ">
		<g>
			<path id="path-45_3_" class="st12" d="M850.8,98.6c0.8,0,1.4-0.8,1.4-1.6s-0.7-1.5-1.5-1.5c-0.8,0-1.5,0.7-1.5,1.5
				S850,98.6,850.8,98.6z"/>
		</g>
		<g>
			<path id="path-45_2_" class="st15" d="M850.8,98.6c0.8,0,1.4-0.8,1.4-1.6s-0.7-1.5-1.5-1.5c-0.8,0-1.5,0.7-1.5,1.5
				S850,98.6,850.8,98.6z"/>
		</g>
	</g>
	<g id="Oval-Copy-18_5_" transform="translate(1608.968320, 178.977633) rotate(24.000000) translate(-1608.968320, -178.977633) ">
		<g>
			<path id="path-49_11_" class="st12" d="M1018.1,798.3c1.7,0,3.1-1.4,3.1-3s-1.3-3-3-3c-1.7,0-3,1.3-3,3
				S1016.5,798.3,1018.1,798.3z"/>
		</g>
		<g>
			<path id="path-49_10_" class="st17" d="M1018.1,798.3c1.7,0,3.1-1.4,3.1-3s-1.3-3-3-3c-1.7,0-3,1.3-3,3
				S1016.5,798.3,1018.1,798.3z"/>
		</g>
	</g>
	<g id="Path_5_">
		<g>
			<path id="path-51_11_" class="st12" d="M984.5,214.3c0.2-0.2,0.2-0.4,0.1-0.6c-0.1-0.2-0.2-0.4-0.5-0.4l-1.9-0.3
				c-0.1,0-0.2-0.1-0.2-0.1l-0.9-1.8c-0.1-0.2-0.3-0.3-0.5-0.3s-0.4,0.1-0.5,0.3l-0.9,1.8c0,0.1-0.1,0.1-0.2,0.1l-1.9,0.3
				c-0.2,0-0.4,0.2-0.5,0.4c-0.1,0.2,0,0.5,0.1,0.6l1.4,1.4c0.1,0.1,0.1,0.1,0.1,0.2l-0.3,2c0,0.2,0,0.3,0.1,0.5
				c0.2,0.2,0.5,0.3,0.7,0.1l1.7-1c0.1,0,0.2,0,0.2,0l1.7,1c0.1,0,0.2,0.1,0.3,0.1c0.2,0,0.3-0.1,0.4-0.2c0.1-0.1,0.2-0.3,0.1-0.5
				l-0.3-2c0-0.1,0-0.2,0.1-0.2L984.5,214.3z"/>
		</g>
		<g>
			
				<linearGradient id="path-51_3_" gradientUnits="userSpaceOnUse" x1="-25.1663" y1="1157.6599" x2="-25.1663" y2="1156.6599" gradientTransform="matrix(8.0001 0 0 -8 1181.9998 9472)">
				<stop  offset="0" style="stop-color:#FFF546"/>
				<stop  offset="1" style="stop-color:#FF852F"/>
			</linearGradient>
			<path id="path-51_10_" class="st21" d="M984.5,214.3c0.2-0.2,0.2-0.4,0.1-0.6c-0.1-0.2-0.2-0.4-0.5-0.4l-1.9-0.3
				c-0.1,0-0.2-0.1-0.2-0.1l-0.9-1.8c-0.1-0.2-0.3-0.3-0.5-0.3s-0.4,0.1-0.5,0.3l-0.9,1.8c0,0.1-0.1,0.1-0.2,0.1l-1.9,0.3
				c-0.2,0-0.4,0.2-0.5,0.4c-0.1,0.2,0,0.5,0.1,0.6l1.4,1.4c0.1,0.1,0.1,0.1,0.1,0.2l-0.3,2c0,0.2,0,0.3,0.1,0.5
				c0.2,0.2,0.5,0.3,0.7,0.1l1.7-1c0.1,0,0.2,0,0.2,0l1.7,1c0.1,0,0.2,0.1,0.3,0.1c0.2,0,0.3-0.1,0.4-0.2c0.1-0.1,0.2-0.3,0.1-0.5
				l-0.3-2c0-0.1,0-0.2,0.1-0.2L984.5,214.3z"/>
		</g>
	</g>
	<g id="Path-Copy-3_1_">
		<g>
			<path id="path-58_3_" class="st12" d="M1284.5,221.4c0.1-0.1,0.2-0.3,0.1-0.5c-0.1-0.2-0.2-0.3-0.3-0.3l-1.5-0.2
				c-0.1,0-0.1,0-0.1-0.1l-0.6-1.4c-0.1-0.2-0.2-0.3-0.4-0.3c-0.2,0-0.3,0.1-0.4,0.3l-0.6,1.4c0,0.1-0.1,0.1-0.1,0.1l-1.5,0.2
				c-0.2,0-0.3,0.1-0.3,0.3c-0.1,0.2,0,0.3,0.1,0.5l1.1,1.1c0,0,0.1,0.1,0.1,0.2l-0.2,1.5c0,0.1,0,0.3,0.1,0.4
				c0.1,0.2,0.4,0.2,0.5,0.1l1.3-0.7c0.1,0,0.1,0,0.2,0l1.3,0.7c0.1,0,0.1,0.1,0.2,0.1c0.1,0,0.2-0.1,0.3-0.2
				c0.1-0.1,0.1-0.2,0.1-0.4l-0.2-1.5c0-0.1,0-0.1,0.1-0.2L1284.5,221.4z"/>
		</g>
		<g>
			<path id="path-58_2_" class="st14" d="M1284.5,221.4c0.1-0.1,0.2-0.3,0.1-0.5c-0.1-0.2-0.2-0.3-0.3-0.3l-1.5-0.2
				c-0.1,0-0.1,0-0.1-0.1l-0.6-1.4c-0.1-0.2-0.2-0.3-0.4-0.3c-0.2,0-0.3,0.1-0.4,0.3l-0.6,1.4c0,0.1-0.1,0.1-0.1,0.1l-1.5,0.2
				c-0.2,0-0.3,0.1-0.3,0.3c-0.1,0.2,0,0.3,0.1,0.5l1.1,1.1c0,0,0.1,0.1,0.1,0.2l-0.2,1.5c0,0.1,0,0.3,0.1,0.4
				c0.1,0.2,0.4,0.2,0.5,0.1l1.3-0.7c0.1,0,0.1,0,0.2,0l1.3,0.7c0.1,0,0.1,0.1,0.2,0.1c0.1,0,0.2-0.1,0.3-0.2
				c0.1-0.1,0.1-0.2,0.1-0.4l-0.2-1.5c0-0.1,0-0.1,0.1-0.2L1284.5,221.4z"/>
		</g>
	</g>
	<g id="Oval-Copy-22_3_">
		<g>
			<circle id="path-30_7_" class="st12" cx="998.8" cy="501.2" r="1.5"/>
		</g>
		<g>
			<circle id="path-30_6_" class="st13" cx="998.8" cy="501.2" r="1.5"/>
		</g>
	</g>
	<g id="Oval-Copy-17_4_">
		<g>
			<circle id="path-47_9_" class="st12" cx="746.3" cy="349.7" r="2"/>
		</g>
		<g>
			<circle id="path-47_8_" class="st16" cx="746.3" cy="349.7" r="2"/>
		</g>
	</g>
	<g id="Oval-Copy-37_4_">
		<g>
			<circle id="path-38_9_" class="st12" cx="852.6" cy="609.2" r="1.5"/>
		</g>
		<g>
			<circle id="path-38_8_" class="st13" cx="852.6" cy="609.2" r="1.5"/>
		</g>
	</g>
	<g id="Oval-Copy-21_12_">
		<g>
			<circle id="path-43_17_" class="st12" cx="1151.6" cy="528.2" r="3.5"/>
		</g>
		<g>
			
				<linearGradient id="path-43_10_" gradientUnits="userSpaceOnUse" x1="-18.776" y1="1095.0398" x2="-18.776" y2="1094.0398" gradientTransform="matrix(7 0 0 -7 1283 8190)">
				<stop  offset="0" style="stop-color:#FFF546"/>
				<stop  offset="1" style="stop-color:#FF852F"/>
			</linearGradient>
			<circle id="path-43_16_" class="st22" cx="1151.6" cy="528.2" r="3.5"/>
		</g>
	</g>
	<g id="Path-Copy_4_">
		<g>
			<path id="path-54_9_" class="st12" d="M809.9,571.9c0.1-0.1,0.2-0.3,0.1-0.5c-0.1-0.2-0.2-0.3-0.4-0.4l-1.7-0.3
				c-0.1,0-0.1-0.1-0.2-0.1L807,569c-0.1-0.2-0.3-0.3-0.5-0.3s-0.4,0.1-0.5,0.3l-0.8,1.6c0,0.1-0.1,0.1-0.2,0.1l-1.7,0.3
				c-0.2,0-0.3,0.2-0.4,0.4c-0.1,0.2,0,0.4,0.1,0.5l1.2,1.2c0.1,0.1,0.1,0.1,0.1,0.2l-0.3,1.8c0,0.2,0,0.3,0.1,0.4
				c0.1,0.2,0.4,0.2,0.6,0.1l1.5-0.8c0.1,0,0.1,0,0.2,0l1.5,0.8c0.1,0,0.2,0.1,0.2,0.1c0.1,0,0.3-0.1,0.4-0.2
				c0.1-0.1,0.1-0.3,0.1-0.4l-0.3-1.8c0-0.1,0-0.2,0.1-0.2L809.9,571.9z"/>
		</g>
		<g>
			
				<linearGradient id="path-54_3_" gradientUnits="userSpaceOnUse" x1="-42.3466" y1="1084.6112" x2="-42.3466" y2="1083.6112" gradientTransform="matrix(7.0001 0 0 -7 1102.9998 8161)">
				<stop  offset="0" style="stop-color:#D17AFF"/>
				<stop  offset="1" style="stop-color:#816DFF"/>
			</linearGradient>
			<path id="path-54_8_" class="st23" d="M809.9,571.9c0.1-0.1,0.2-0.3,0.1-0.5c-0.1-0.2-0.2-0.3-0.4-0.4l-1.7-0.3
				c-0.1,0-0.1-0.1-0.2-0.1L807,569c-0.1-0.2-0.3-0.3-0.5-0.3s-0.4,0.1-0.5,0.3l-0.8,1.6c0,0.1-0.1,0.1-0.2,0.1l-1.7,0.3
				c-0.2,0-0.3,0.2-0.4,0.4c-0.1,0.2,0,0.4,0.1,0.5l1.2,1.2c0.1,0.1,0.1,0.1,0.1,0.2l-0.3,1.8c0,0.2,0,0.3,0.1,0.4
				c0.1,0.2,0.4,0.2,0.6,0.1l1.5-0.8c0.1,0,0.1,0,0.2,0l1.5,0.8c0.1,0,0.2,0.1,0.2,0.1c0.1,0,0.3-0.1,0.4-0.2
				c0.1-0.1,0.1-0.3,0.1-0.4l-0.3-1.8c0-0.1,0-0.2,0.1-0.2L809.9,571.9z"/>
		</g>
	</g>
	<g id="Oval-Copy-12_1_" class="st24">
		<g>
			<circle id="path-21_3_" class="st12" cx="446.7" cy="746.5" r="10.5"/>
		</g>
		<g>
			
				<linearGradient id="path-21_5_" gradientUnits="userSpaceOnUse" x1="-11.902" y1="1182.5543" x2="-12.0403" y2="1182.9351" gradientTransform="matrix(45 0 0 -45 985 53969)">
				<stop  offset="0" style="stop-color:#0354D0"/>
				<stop  offset="0.7156" style="stop-color:#3099FF"/>
				<stop  offset="1" style="stop-color:#74B9FF"/>
			</linearGradient>
			<circle id="path-21_2_" class="st25" cx="446.7" cy="746.5" r="10.5"/>
		</g>
	</g>
	<g id="Oval-Copy-12_2_" class="st24">
		<g>
			<circle id="path-21_4_" class="st26" cx="1741.2" cy="391.8" r="14.2"/>
		</g>
		<g>
			<circle id="path-21_1_" class="st26" cx="1741.2" cy="391.8" r="14.2"/>
		</g>
	</g>
</g>
<g id="Layer_2">
	<circle class="st7" cx="1793.3" cy="840.1" r="13.1"/>
	<g id="Oval-Copy-36_1_">
		<g>
			<circle id="path-32_3_" class="st12" cx="1456.9" cy="604.3" r="1.5"/>
		</g>
		<g>
			<circle id="path-32_2_" class="st13" cx="1456.9" cy="604.3" r="1.5"/>
		</g>
	</g>
	<g id="Oval-Copy-46_3_">
		<g>
			<circle id="path-34_7_" class="st12" cx="1584.9" cy="775.3" r="1.5"/>
		</g>
		<g>
			<circle id="path-34_6_" class="st14" cx="1584.9" cy="775.3" r="1.5"/>
		</g>
	</g>
	<g id="Oval-Copy-21_4_">
		<g>
			<circle id="path-40_5_" class="st12" cx="1692.4" cy="811.8" r="4"/>
		</g>
		<g>
			<circle id="path-40_4_" class="st13" cx="1692.4" cy="811.8" r="4"/>
		</g>
	</g>
	<g id="Path-Copy-3_3_">
		<g>
			<path id="path-58_7_" class="st12" d="M1550.3,702.5c0.1-0.1,0.2-0.3,0.1-0.5c-0.1-0.2-0.2-0.3-0.3-0.3l-1.5-0.2
				c-0.1,0-0.1,0-0.1-0.1l-0.6-1.4c-0.1-0.2-0.2-0.3-0.4-0.3c-0.2,0-0.3,0.1-0.4,0.3l-0.6,1.4c0,0.1-0.1,0.1-0.1,0.1l-1.5,0.2
				c-0.2,0-0.3,0.1-0.3,0.3c-0.1,0.2,0,0.3,0.1,0.5l1.1,1.1c0,0,0.1,0.1,0.1,0.2l-0.2,1.5c0,0.1,0,0.3,0.1,0.4
				c0.1,0.2,0.4,0.2,0.5,0.1l1.3-0.7c0.1,0,0.1,0,0.2,0l1.3,0.7c0.1,0,0.1,0.1,0.2,0.1c0.1,0,0.2-0.1,0.3-0.2
				c0.1-0.1,0.1-0.2,0.1-0.4l-0.2-1.5c0-0.1,0-0.1,0.1-0.2L1550.3,702.5z"/>
		</g>
		<g>
			<path id="path-58_6_" class="st14" d="M1550.3,702.5c0.1-0.1,0.2-0.3,0.1-0.5c-0.1-0.2-0.2-0.3-0.3-0.3l-1.5-0.2
				c-0.1,0-0.1,0-0.1-0.1l-0.6-1.4c-0.1-0.2-0.2-0.3-0.4-0.3c-0.2,0-0.3,0.1-0.4,0.3l-0.6,1.4c0,0.1-0.1,0.1-0.1,0.1l-1.5,0.2
				c-0.2,0-0.3,0.1-0.3,0.3c-0.1,0.2,0,0.3,0.1,0.5l1.1,1.1c0,0,0.1,0.1,0.1,0.2l-0.2,1.5c0,0.1,0,0.3,0.1,0.4
				c0.1,0.2,0.4,0.2,0.5,0.1l1.3-0.7c0.1,0,0.1,0,0.2,0l1.3,0.7c0.1,0,0.1,0.1,0.2,0.1c0.1,0,0.2-0.1,0.3-0.2
				c0.1-0.1,0.1-0.2,0.1-0.4l-0.2-1.5c0-0.1,0-0.1,0.1-0.2L1550.3,702.5z"/>
		</g>
	</g>
	<g id="Oval-Copy-21_3_">
		<g>
			<circle id="path-43_4_" class="st12" cx="1688.3" cy="573.3" r="3.5"/>
		</g>
		<g>
			
				<linearGradient id="path-43_11_" gradientUnits="userSpaceOnUse" x1="57.9019" y1="1088.6066" x2="57.9019" y2="1087.6066" gradientTransform="matrix(7 0 0 -7 1283 8190)">
				<stop  offset="0" style="stop-color:#FFF546"/>
				<stop  offset="1" style="stop-color:#FF852F"/>
			</linearGradient>
			<circle id="path-43_3_" class="st27" cx="1688.3" cy="573.3" r="3.5"/>
		</g>
	</g>
	<g id="Oval-Copy-46_2_">
		<g>
			<circle id="path-34_5_" class="st12" cx="1604.4" cy="815.3" r="1.5"/>
		</g>
		<g>
			<circle id="path-34_4_" class="st14" cx="1604.4" cy="815.3" r="1.5"/>
		</g>
	</g>
	<g id="Oval-Copy-21_2_">
		<g>
			<circle id="path-40_3_" class="st12" cx="1380.9" cy="871.8" r="4"/>
		</g>
		<g>
			<circle id="path-40_2_" class="st13" cx="1380.9" cy="871.8" r="4"/>
		</g>
	</g>
	<g id="Path-Copy-3_2_">
		<g>
			<path id="path-58_5_" class="st12" d="M1605.8,503.5c0.1-0.1,0.2-0.3,0.1-0.5c-0.1-0.2-0.2-0.3-0.3-0.3l-1.5-0.2
				c-0.1,0-0.1,0-0.1-0.1l-0.6-1.4c-0.1-0.2-0.2-0.3-0.4-0.3c-0.2,0-0.3,0.1-0.4,0.3l-0.6,1.4c0,0.1-0.1,0.1-0.1,0.1l-1.5,0.2
				c-0.2,0-0.3,0.1-0.3,0.3c-0.1,0.2,0,0.3,0.1,0.5l1.1,1.1c0,0,0.1,0.1,0.1,0.2l-0.2,1.5c0,0.1,0,0.3,0.1,0.4
				c0.1,0.2,0.4,0.2,0.5,0.1l1.3-0.7c0.1,0,0.1,0,0.2,0l1.3,0.7c0.1,0,0.1,0.1,0.2,0.1c0.1,0,0.2-0.1,0.3-0.2
				c0.1-0.1,0.1-0.2,0.1-0.4l-0.2-1.5c0-0.1,0-0.1,0.1-0.2L1605.8,503.5z"/>
		</g>
		<g>
			<path id="path-58_4_" class="st14" d="M1605.8,503.5c0.1-0.1,0.2-0.3,0.1-0.5c-0.1-0.2-0.2-0.3-0.3-0.3l-1.5-0.2
				c-0.1,0-0.1,0-0.1-0.1l-0.6-1.4c-0.1-0.2-0.2-0.3-0.4-0.3c-0.2,0-0.3,0.1-0.4,0.3l-0.6,1.4c0,0.1-0.1,0.1-0.1,0.1l-1.5,0.2
				c-0.2,0-0.3,0.1-0.3,0.3c-0.1,0.2,0,0.3,0.1,0.5l1.1,1.1c0,0,0.1,0.1,0.1,0.2l-0.2,1.5c0,0.1,0,0.3,0.1,0.4
				c0.1,0.2,0.4,0.2,0.5,0.1l1.3-0.7c0.1,0,0.1,0,0.2,0l1.3,0.7c0.1,0,0.1,0.1,0.2,0.1c0.1,0,0.2-0.1,0.3-0.2
				c0.1-0.1,0.1-0.2,0.1-0.4l-0.2-1.5c0-0.1,0-0.1,0.1-0.2L1605.8,503.5z"/>
		</g>
	</g>
	<g id="Oval-Copy-21_1_">
		<g>
			<circle id="path-43_2_" class="st12" cx="1472.8" cy="810.3" r="3.5"/>
		</g>
		<g>
			
				<linearGradient id="path-43_12_" gradientUnits="userSpaceOnUse" x1="27.1162" y1="1054.7495" x2="27.1162" y2="1053.7495" gradientTransform="matrix(7 0 0 -7 1283 8190)">
				<stop  offset="0" style="stop-color:#FFF546"/>
				<stop  offset="1" style="stop-color:#FF852F"/>
			</linearGradient>
			<circle id="path-43_1_" class="st28" cx="1472.8" cy="810.3" r="3.5"/>
		</g>
	</g>
	<circle class="st9" cx="391.7" cy="210.4" r="12.6"/>
	<g id="Oval-Copy-36_2_">
		<g>
			<circle id="path-32_5_" class="st12" cx="99.9" cy="165.3" r="1.5"/>
		</g>
		<g>
			<circle id="path-32_4_" class="st13" cx="99.9" cy="165.3" r="1.5"/>
		</g>
	</g>
	<g id="Oval-Copy-46_5_">
		<g>
			<circle id="path-34_11_" class="st12" cx="227.9" cy="336.3" r="1.5"/>
		</g>
		<g>
			<circle id="path-34_10_" class="st14" cx="227.9" cy="336.3" r="1.5"/>
		</g>
	</g>
	<g id="Oval-Copy-21_8_">
		<g>
			<circle id="path-40_13_" class="st12" cx="339.4" cy="432.8" r="4"/>
		</g>
		<g>
			<circle id="path-40_12_" class="st13" cx="339.4" cy="432.8" r="4"/>
		</g>
	</g>
	<g id="Path-Copy-3_5_">
		<g>
			<path id="path-58_11_" class="st12" d="M193.3,263.5c0.1-0.1,0.2-0.3,0.1-0.5c-0.1-0.2-0.2-0.3-0.3-0.3l-1.5-0.2
				c-0.1,0-0.1,0-0.1-0.1l-0.6-1.4c-0.1-0.2-0.2-0.3-0.4-0.3c-0.2,0-0.3,0.1-0.4,0.3l-0.6,1.4c0,0.1-0.1,0.1-0.1,0.1l-1.5,0.2
				c-0.2,0-0.3,0.1-0.3,0.3c-0.1,0.2,0,0.3,0.1,0.5l1.1,1.1c0,0,0.1,0.1,0.1,0.2l-0.2,1.5c0,0.1,0,0.3,0.1,0.4
				c0.1,0.2,0.4,0.2,0.5,0.1l1.3-0.7c0.1,0,0.1,0,0.2,0l1.3,0.7c0.1,0,0.1,0.1,0.2,0.1c0.1,0,0.2-0.1,0.3-0.2
				c0.1-0.1,0.1-0.2,0.1-0.4l-0.2-1.5c0-0.1,0-0.1,0.1-0.2L193.3,263.5z"/>
		</g>
		<g>
			<path id="path-58_10_" class="st14" d="M193.3,263.5c0.1-0.1,0.2-0.3,0.1-0.5c-0.1-0.2-0.2-0.3-0.3-0.3l-1.5-0.2
				c-0.1,0-0.1,0-0.1-0.1l-0.6-1.4c-0.1-0.2-0.2-0.3-0.4-0.3c-0.2,0-0.3,0.1-0.4,0.3l-0.6,1.4c0,0.1-0.1,0.1-0.1,0.1l-1.5,0.2
				c-0.2,0-0.3,0.1-0.3,0.3c-0.1,0.2,0,0.3,0.1,0.5l1.1,1.1c0,0,0.1,0.1,0.1,0.2l-0.2,1.5c0,0.1,0,0.3,0.1,0.4
				c0.1,0.2,0.4,0.2,0.5,0.1l1.3-0.7c0.1,0,0.1,0,0.2,0l1.3,0.7c0.1,0,0.1,0.1,0.2,0.1c0.1,0,0.2-0.1,0.3-0.2
				c0.1-0.1,0.1-0.2,0.1-0.4l-0.2-1.5c0-0.1,0-0.1,0.1-0.2L193.3,263.5z"/>
		</g>
	</g>
	<g id="Oval-Copy-21_7_">
		<g>
			<circle id="path-43_8_" class="st12" cx="109.3" cy="61.3" r="3.5"/>
		</g>
		<g>
			
				<linearGradient id="path-43_13_" gradientUnits="userSpaceOnUse" x1="-167.6695" y1="1161.7495" x2="-167.6695" y2="1160.7495" gradientTransform="matrix(7 0 0 -7 1283 8190)">
				<stop  offset="0" style="stop-color:#FFF546"/>
				<stop  offset="1" style="stop-color:#FF852F"/>
			</linearGradient>
			<circle id="path-43_7_" class="st29" cx="109.3" cy="61.3" r="3.5"/>
		</g>
	</g>
	<g id="Oval-Copy-46_4_">
		<g>
			<circle id="path-34_9_" class="st12" cx="247.4" cy="376.3" r="1.5"/>
		</g>
		<g>
			<circle id="path-34_8_" class="st14" cx="247.4" cy="376.3" r="1.5"/>
		</g>
	</g>
	<g id="Oval-Copy-21_6_">
		<g>
			<circle id="path-40_11_" class="st12" cx="23.9" cy="432.8" r="4"/>
		</g>
		<g>
			<circle id="path-40_10_" class="st13" cx="23.9" cy="432.8" r="4"/>
		</g>
	</g>
	<g id="Path-Copy-3_4_">
		<g>
			<path id="path-58_9_" class="st12" d="M248.8,64.5c0.1-0.1,0.2-0.3,0.1-0.5c-0.1-0.2-0.2-0.3-0.3-0.3l-1.5-0.2
				c-0.1,0-0.1,0-0.1-0.1l-0.6-1.4c-0.1-0.2-0.2-0.3-0.4-0.3c-0.2,0-0.3,0.1-0.4,0.3l-0.6,1.4c0,0.1-0.1,0.1-0.1,0.1l-1.5,0.2
				c-0.2,0-0.3,0.1-0.3,0.3c-0.1,0.2,0,0.3,0.1,0.5l1.1,1.1c0,0,0.1,0.1,0.1,0.2l-0.2,1.5c0,0.1,0,0.3,0.1,0.4
				c0.1,0.2,0.4,0.2,0.5,0.1l1.3-0.7c0.1,0,0.1,0,0.2,0l1.3,0.7c0.1,0,0.1,0.1,0.2,0.1c0.1,0,0.2-0.1,0.3-0.2
				c0.1-0.1,0.1-0.2,0.1-0.4l-0.2-1.5c0-0.1,0-0.1,0.1-0.2L248.8,64.5z"/>
		</g>
		<g>
			<path id="path-58_8_" class="st14" d="M248.8,64.5c0.1-0.1,0.2-0.3,0.1-0.5c-0.1-0.2-0.2-0.3-0.3-0.3l-1.5-0.2
				c-0.1,0-0.1,0-0.1-0.1l-0.6-1.4c-0.1-0.2-0.2-0.3-0.4-0.3c-0.2,0-0.3,0.1-0.4,0.3l-0.6,1.4c0,0.1-0.1,0.1-0.1,0.1l-1.5,0.2
				c-0.2,0-0.3,0.1-0.3,0.3c-0.1,0.2,0,0.3,0.1,0.5l1.1,1.1c0,0,0.1,0.1,0.1,0.2l-0.2,1.5c0,0.1,0,0.3,0.1,0.4
				c0.1,0.2,0.4,0.2,0.5,0.1l1.3-0.7c0.1,0,0.1,0,0.2,0l1.3,0.7c0.1,0,0.1,0.1,0.2,0.1c0.1,0,0.2-0.1,0.3-0.2
				c0.1-0.1,0.1-0.2,0.1-0.4l-0.2-1.5c0-0.1,0-0.1,0.1-0.2L248.8,64.5z"/>
		</g>
	</g>
	<g id="Oval-Copy-21_5_">
		<g>
			<circle id="path-43_6_" class="st12" cx="156.8" cy="593.3" r="3.5"/>
		</g>
		<g>
			
				<linearGradient id="path-43_18_" gradientUnits="userSpaceOnUse" x1="-160.8838" y1="1085.7495" x2="-160.8838" y2="1084.7495" gradientTransform="matrix(7 0 0 -7 1283 8190)">
				<stop  offset="0" style="stop-color:#FFF546"/>
				<stop  offset="1" style="stop-color:#FF852F"/>
			</linearGradient>
			<circle id="path-43_5_" class="st30" cx="156.8" cy="593.3" r="3.5"/>
		</g>
	</g>
</g>
</svg>
